<svg xmlns="http://www.w3.org/2000/svg" width="315.739" height="215.698" viewBox="0 0 315.739 215.698">
  <g id="Group_739" data-name="Group 739" transform="translate(-5950.101 -1495.152)">
    <path id="Path_23" data-name="Path 23" d="M161.669,0H17.963A17.939,17.939,0,0,0,.09,17.963L0,125.743a18.016,18.016,0,0,0,17.963,17.963H161.669a18.016,18.016,0,0,0,17.963-17.963V17.963A18.016,18.016,0,0,0,161.669,0Zm0,35.927L89.816,80.835,17.963,35.927V17.963L89.816,62.871l71.853-44.908Z" transform="translate(5950.101 1587.67) rotate(-31)" fill="#f3f3f3"/>
    <path id="Path_26" data-name="Path 26" d="M116.257,0H12.917A12.9,12.9,0,0,0,.065,12.917L0,90.422A12.955,12.955,0,0,0,12.917,103.34h103.34a12.955,12.955,0,0,0,12.918-12.917v-77.5A12.955,12.955,0,0,0,116.257,0Zm0,25.835L64.587,58.129,12.917,25.835V12.917l51.67,32.294,51.67-32.294Z" transform="matrix(0.996, 0.087, -0.087, 0.996, 6137.156, 1537.274)" fill="#e2e2e2"/>
  </g>
</svg>
