<svg xmlns="http://www.w3.org/2000/svg" width="297.667" height="243.523" viewBox="0 0 297.667 243.523">
  <g id="Group_740" data-name="Group 740" transform="translate(112.739 -2033.997)">
    <path id="Path_29" data-name="Path 29" d="M88.5,0H9.834A9.82,9.82,0,0,0,.049,9.834L0,68.835a9.863,9.863,0,0,0,9.834,9.834H88.5a9.863,9.863,0,0,0,9.834-9.834v-59A9.863,9.863,0,0,0,88.5,0Zm0,19.667L49.168,44.251,9.834,19.667V9.834L49.168,34.418,88.5,9.834Z" transform="matrix(0.891, 0.454, -0.454, 0.891, 66.62, 2033.997)" fill="#e2e2e2"/>
    <g id="Group_575" data-name="Group 575" transform="translate(-112.739 2072.217)">
      <path id="Path_23" data-name="Path 23" d="M153.878,0H17.1A17.075,17.075,0,0,0,.086,17.1L0,119.683a17.148,17.148,0,0,0,17.1,17.1H153.878a17.148,17.148,0,0,0,17.1-17.1V17.1A17.148,17.148,0,0,0,153.878,0Zm0,34.2L85.488,76.939,17.1,34.2V17.1l68.39,42.744L153.878,17.1Z" transform="translate(0 88.059) rotate(-31)" fill="#cfcfcf"/>
      <path id="Path_26" data-name="Path 26" d="M110.655,0H12.295A12.279,12.279,0,0,0,.061,12.295L0,86.065A12.331,12.331,0,0,0,12.295,98.36h98.36A12.331,12.331,0,0,0,122.95,86.065V12.295A12.331,12.331,0,0,0,110.655,0Zm0,24.59L61.475,55.327,12.295,24.59V12.295l49.18,30.737,49.18-30.737Z" transform="matrix(0.996, 0.087, -0.087, 0.996, 175.185, 39.141)" fill="#f3f3f3"/>
    </g>
  </g>
</svg>
