<svg xmlns="http://www.w3.org/2000/svg" width="103.028" height="98.018" viewBox="0 0 103.028 98.018"><defs><style>.a{fill:#023047;stroke:#023047;stroke-width:0.5px;}</style></defs><g transform="translate(0.25 -12.251)"><path class="a" d="M377.9,325.142a1.5,1.5,0,0,0-1.5,1.5v5.882a4.662,4.662,0,1,0,3.56,8.6l5,5A1.5,1.5,0,0,0,387.088,344l-5-5a4.658,4.658,0,0,0-2.68-6.47v-5.882a1.5,1.5,0,0,0-1.5-1.5Zm1.656,11.8a1.656,1.656,0,1,1-1.656-1.656A1.658,1.658,0,0,1,379.56,336.94Z" transform="translate(-298.429 -249.976)"/><path class="a" d="M163.307,166.371a1.5,1.5,0,0,0-1.952.841l-5.15,12.949A1.5,1.5,0,1,0,159,181.272l5.15-12.949A1.5,1.5,0,0,0,163.307,166.371Z" transform="translate(-124.81 -122.943)"/><path class="a" d="M212.018,182.1a1.5,1.5,0,0,0,1.981-.771l5.692-12.949a1.5,1.5,0,0,0-1.376-2.108h-7.123a1.5,1.5,0,1,0,0,3.007h4.82l-4.765,10.841a1.5,1.5,0,0,0,.771,1.981Z" transform="translate(-167.659 -122.946)"/><path class="a" d="M95.348,179.521a1.5,1.5,0,0,0,1.5-1.5v-2.759h.812a1.5,1.5,0,1,0,0-3.007h-.812v-6.81a2.106,2.106,0,0,0-3.884-1.128c-1.859,2.934-5.289,8.606-5.323,8.663a1.5,1.5,0,0,0,1.287,2.281h4.914v2.759A1.5,1.5,0,0,0,95.348,179.521ZM91.6,172.252c.656-1.078,1.466-2.4,2.243-3.662v3.662Z" transform="translate(-69.904 -120.6)"/><path class="a" d="M43.269,171.5c-2.05,2.93-3.274,4.532-3.932,5.393-.819,1.072-1.193,1.562-.937,2.393a1.562,1.562,0,0,0,1.016,1.029,10.838,10.838,0,0,0,2.919.13c.988,0,2.333-.01,4.174-.033a1.5,1.5,0,0,0-.019-3.006h-.019c-1.281.016-2.639.027-3.774.029.716-.959,1.705-2.311,3.035-4.211a9.876,9.876,0,0,0,1.61-3.333,1.443,1.443,0,0,0,.027-.149l.064-.5a1.475,1.475,0,0,0,.012-.19,4.817,4.817,0,0,0-9.543-.932,1.5,1.5,0,1,0,2.95.579,1.81,1.81,0,0,1,3.584.271l-.04.31A7.146,7.146,0,0,1,43.269,171.5Z" transform="translate(-30.282 -121.316)"/><path class="a" d="M60.367,270.491a2.829,2.829,0,0,0-2.826-2.826h-6.6a2.829,2.829,0,0,0-2.826,2.826v6.6a2.829,2.829,0,0,0,2.826,2.826h6.6a2.829,2.829,0,0,0,2.826-2.826Zm-3.007,6.418H51.124v-6.237h6.237v6.237Z" transform="translate(-38.473 -204.019)"/><path class="a" d="M138.843,270.491a2.829,2.829,0,0,0-2.826-2.826h-6.6a2.829,2.829,0,0,0-2.826,2.826v6.6a2.829,2.829,0,0,0,2.826,2.826h6.6a2.829,2.829,0,0,0,2.826-2.826Zm-3.007,6.418H129.6v-6.237h6.237Z" transform="translate(-101.219 -204.019)"/><path class="a" d="M217.32,270.491a2.829,2.829,0,0,0-2.826-2.826h-6.6a2.829,2.829,0,0,0-2.826,2.826v6.6a2.829,2.829,0,0,0,2.826,2.826h6.6a2.829,2.829,0,0,0,2.826-2.826Zm-3.007,6.418h-6.237v-6.237h6.237Z" transform="translate(-163.966 -204.019)"/><path class="a" d="M279.111,190.66v-6.6a2.829,2.829,0,0,0-2.826-2.826h-6.6a2.829,2.829,0,0,0-2.826,2.826v6.6a2.829,2.829,0,0,0,2.826,2.826h6.6A2.829,2.829,0,0,0,279.111,190.66Zm-3.007-.181h-6.237v-6.237H276.1Z" transform="translate(-213.372 -134.913)"/><path class="a" d="M347.713,181.236a2.829,2.829,0,0,0-2.826,2.826v6.6a2.829,2.829,0,0,0,2.826,2.826h6.6a2.829,2.829,0,0,0,2.826-2.826v-6.6a2.829,2.829,0,0,0-2.826-2.826Zm6.418,9.244h-6.237v-6.237h6.237Z" transform="translate(-275.758 -134.914)"/><path class="a" d="M50.943,353.782h6.6a2.829,2.829,0,0,0,2.826-2.826v-6.6a2.829,2.829,0,0,0-2.826-2.826h-6.6a2.829,2.829,0,0,0-2.826,2.826v6.6A2.829,2.829,0,0,0,50.943,353.782Zm.181-9.244h6.237v6.237H51.124Z" transform="translate(-38.473 -263.081)"/><path class="a" d="M129.419,353.782h6.6a2.829,2.829,0,0,0,2.826-2.826v-6.6a2.829,2.829,0,0,0-2.826-2.826h-6.6a2.829,2.829,0,0,0-2.826,2.826v6.6A2.829,2.829,0,0,0,129.419,353.782Zm.181-9.244h6.237v6.237H129.6Z" transform="translate(-101.219 -263.081)"/><path class="a" d="M214.495,341.532h-6.6a2.829,2.829,0,0,0-2.826,2.826v6.6a2.829,2.829,0,0,0,2.826,2.826h6.6a2.829,2.829,0,0,0,2.826-2.826v-6.6a2.829,2.829,0,0,0-2.826-2.826Zm-.181,9.244h-6.237v-6.237h6.237Z" transform="translate(-163.966 -263.081)"/><path class="a" d="M53.521,337.777H10.389a7.391,7.391,0,0,1-7.383-7.383V317.963a1.5,1.5,0,1,0-3.007,0v12.431a10.4,10.4,0,0,0,10.389,10.389H53.521a1.5,1.5,0,1,0,0-3.007Z" transform="translate(0 -243.034)"/><path class="a" d="M1.5,70.026a1.5,1.5,0,0,0,1.5-1.5V38.365H70.632a1.5,1.5,0,0,0,0-3.007H3.007V30.373a7.391,7.391,0,0,1,7.383-7.383H20.857V26.2a4.206,4.206,0,0,0,8.412,0V22.99h30.19V26.2a4.206,4.206,0,1,0,8.412,0V22.99H78.339a7.391,7.391,0,0,1,7.383,7.383v4.986H77.038a1.5,1.5,0,0,0,0,3.007h8.683V60.512a1.5,1.5,0,0,0,3.007,0V30.373A10.4,10.4,0,0,0,78.339,19.984H67.871V16.707a4.206,4.206,0,1,0-8.412,0v3.277H29.269V16.707a4.206,4.206,0,0,0-8.412,0v3.277H10.389A10.4,10.4,0,0,0,0,30.373v38.15A1.5,1.5,0,0,0,1.5,70.026ZM62.466,16.707a1.2,1.2,0,1,1,2.4,0V26.2a1.2,1.2,0,1,1-2.4,0Zm-38.6,0a1.2,1.2,0,1,1,2.4,0V26.2a1.2,1.2,0,1,1-2.4,0Z" transform="translate(0)"/><path class="a" d="M326.779,285.949a1.5,1.5,0,0,0-2.9.793,20.043,20.043,0,0,1,.652,3.8H322.15a1.5,1.5,0,0,0,0,3.007h2.382a19.963,19.963,0,0,1-4.8,11.563l-1.678-1.678a1.5,1.5,0,1,0-2.126,2.126l1.678,1.678a19.963,19.963,0,0,1-11.562,4.8v-2.383a1.5,1.5,0,0,0-3.007,0v2.383a19.962,19.962,0,0,1-11.562-4.8l1.678-1.678a1.5,1.5,0,1,0-2.126-2.126l-1.678,1.678a19.963,19.963,0,0,1-4.8-11.562h2.382a1.5,1.5,0,0,0,0-3.007h-2.382a19.963,19.963,0,0,1,4.8-11.562l1.678,1.678a1.5,1.5,0,1,0,2.126-2.126l-1.678-1.678a19.962,19.962,0,0,1,11.563-4.8v2.382a1.5,1.5,0,1,0,3.007,0v-2.381a19.928,19.928,0,0,1,11.573,4.787l-1.688,1.689a1.5,1.5,0,0,0,2.126,2.126l1.685-1.685a20.371,20.371,0,0,1,1.724,2.322A1.5,1.5,0,0,0,324,279.678a22.979,22.979,0,1,0,2.779,6.271Z" transform="translate(-225.067 -205.079)"/></g></svg>