<svg xmlns="http://www.w3.org/2000/svg" width="115.683" height="98.532" viewBox="0 0 115.683 98.532"><defs><style>.a{fill:#023047;stroke:#023047;stroke-width:0.5px;}</style></defs><g transform="translate(0.25 0.285)"><path class="a" d="M358.875,47.235,338.83,38.884a9.056,9.056,0,0,0-6.919,0l-9.624,4.009a1.687,1.687,0,1,0,1.3,3.115L333.208,42a5.66,5.66,0,0,1,4.324,0l20.044,8.351a5.09,5.09,0,0,1,3.21,4.658v72.158a5.242,5.242,0,0,1-5.372,5.089h-2.736a1.687,1.687,0,0,0,0,3.375h2.736a8.618,8.618,0,0,0,8.747-8.463V55.008A8.455,8.455,0,0,0,358.875,47.235Z" transform="translate(-248.977 -38.197)"/><path class="a" d="M96.347,158.539H68a7.249,7.249,0,0,0,.1-9.463,7.288,7.288,0,0,0,1.842-1.34,7.25,7.25,0,0,0,.288-9.951,7.253,7.253,0,0,0,1.862-11.13,7.324,7.324,0,0,0,1.59-1.2,7.26,7.26,0,0,0-5.134-12.391H60.977V81.291a5.09,5.09,0,0,1,3.209-4.658l3.069-1.278a1.687,1.687,0,1,0-1.3-3.115l-3.07,1.278A8.455,8.455,0,0,0,57.6,81.291v31.77h-7.05C52.9,105.643,52.7,97.9,49.961,88.915a6.515,6.515,0,0,0-2.395-3.371,6.612,6.612,0,0,0-10.521,5.668c.528,10.145-4.152,13.637-10.629,18.471a77.921,77.921,0,0,0-6.754,5.466v-2.211a1.687,1.687,0,0,0-1.687-1.687H1.687A1.687,1.687,0,0,0,0,112.938V160.79a1.687,1.687,0,0,0,1.687,1.687H17.975a1.687,1.687,0,0,0,1.687-1.687v-4.245c3.2.3,5.545.944,7.819,2.686a8.573,8.573,0,0,0,5.182,1.774H62.42a8.984,8.984,0,0,0,3.93.907h30a1.687,1.687,0,0,0,0-3.374Zm-66.813-1.985a17.9,17.9,0,0,0-9.872-3.4v-19.7a1.687,1.687,0,1,0-3.375,0V159.1H3.374V114.625H16.288V126.1a1.687,1.687,0,1,0,3.375,0v-6.158a57.847,57.847,0,0,1,8.772-7.554c6.481-4.836,12.6-9.4,11.981-21.351a3.24,3.24,0,0,1,5.155-2.772A3.164,3.164,0,0,1,46.734,89.9c2.79,9.153,2.747,16.853-.137,24.234a1.687,1.687,0,0,0,1.571,2.3H68.543a3.884,3.884,0,1,1,0,7.768H61.612a1.687,1.687,0,0,0,0,3.375h5.044a3.884,3.884,0,1,1,0,7.768H61.612a1.687,1.687,0,0,0,0,3.375H64.8a3.884,3.884,0,0,1,0,7.768H59.76a1.687,1.687,0,1,0,0,3.375h2.785a3.885,3.885,0,0,1,2.748,6.63,4.107,4.107,0,0,1-2.578,1.134l-30.052,0a5.189,5.189,0,0,1-3.129-1.079Z" transform="translate(0 -64.481)"/><path class="a" d="M366.788,94.1a6.43,6.43,0,1,0-6.43,6.43,6.437,6.437,0,0,0,6.43-6.43Zm-9.486,0a3.056,3.056,0,1,1,3.056,3.056A3.059,3.059,0,0,1,357.3,94.1Z" transform="translate(-274.306 -76.543)"/><path class="a" d="M355.186,274.111H352.16a2.894,2.894,0,0,1-2.891-2.891,1.687,1.687,0,1,0-3.375,0,6.271,6.271,0,0,0,6.091,6.261v3.734a1.687,1.687,0,1,0,3.374,0v-3.734a6.271,6.271,0,0,0,6.091-6.261v-2.336a4.974,4.974,0,0,0-3.446-4.743l-7.622-2.476a1.608,1.608,0,0,1-1.114-1.533v-3.345a2.35,2.35,0,0,1,2.348-2.348h4.112a2.35,2.35,0,0,1,2.348,2.348,1.687,1.687,0,1,0,3.374,0,5.729,5.729,0,0,0-5.722-5.722h-.369v-3.729a1.687,1.687,0,0,0-3.375,0v3.729h-.369a5.729,5.729,0,0,0-5.722,5.722v3.345a4.974,4.974,0,0,0,3.446,4.743l7.622,2.476a1.608,1.608,0,0,1,1.114,1.533v2.336A2.894,2.894,0,0,1,355.186,274.111Z" transform="translate(-268.08 -198.979)"/></g></svg>