<svg xmlns="http://www.w3.org/2000/svg" width="90.378" height="100.376" viewBox="0 0 90.378 100.376"><defs><style>.a{fill:#023047;stroke:#023047;stroke-width:0.5px;}</style></defs><g transform="translate(-25.377 0.25)"><path class="a" d="M96.9,49.051h6.967a2.86,2.86,0,0,0,2.856-2.856V39.228a2.86,2.86,0,0,0-2.856-2.856H96.9a2.86,2.86,0,0,0-2.856,2.856v6.967A2.86,2.86,0,0,0,96.9,49.051Zm.07-9.754H103.8v6.827H96.974ZM96.9,67.583h6.967a2.86,2.86,0,0,0,2.856-2.856V57.76a2.86,2.86,0,0,0-2.856-2.856H96.9a2.86,2.86,0,0,0-2.856,2.856v6.967A2.86,2.86,0,0,0,96.9,67.583Zm.07-9.754H103.8v6.827H96.974Zm-19.95-8.778H83.99a2.86,2.86,0,0,0,2.856-2.856V39.228a2.86,2.86,0,0,0-2.856-2.856H77.023a2.86,2.86,0,0,0-2.856,2.856v6.967A2.86,2.86,0,0,0,77.023,49.051Zm.07-9.754H83.92v6.827H77.093ZM44.228,72.566H37.261A2.86,2.86,0,0,0,34.4,75.423v6.967a2.86,2.86,0,0,0,2.856,2.856h6.967a2.86,2.86,0,0,0,2.856-2.856V75.423A2.86,2.86,0,0,0,44.228,72.566Zm-.07,9.754H37.331V75.492h6.827Zm.07-45.948H37.261A2.86,2.86,0,0,0,34.4,39.228v6.967a2.86,2.86,0,0,0,2.856,2.856h6.967a2.86,2.86,0,0,0,2.856-2.856V39.228A2.86,2.86,0,0,0,44.228,36.372Zm-.07,9.754H37.331V39.3h6.827ZM77.023,67.149H83.99a2.86,2.86,0,0,0,2.856-2.856V57.325a2.86,2.86,0,0,0-2.856-2.856H77.023a2.86,2.86,0,0,0-2.856,2.856v6.967A2.86,2.86,0,0,0,77.023,67.149Zm.07-9.754H83.92v6.827H77.093ZM108.18,6.686h-6.255V4.449A4.454,4.454,0,0,0,97.476,0H96.8a4.454,4.454,0,0,0-4.449,4.449V6.686H48.777V4.449A4.454,4.454,0,0,0,44.328,0h-.672a4.454,4.454,0,0,0-4.449,4.449V6.686H32.952a7.333,7.333,0,0,0-7.325,7.325v78.55a7.323,7.323,0,0,0,7.315,7.315H108.19a7.323,7.323,0,0,0,7.315-7.315V14.011a7.334,7.334,0,0,0-7.325-7.325Zm-12.9-2.237A1.525,1.525,0,0,1,96.8,2.926h.672A1.525,1.525,0,0,1,99,4.449V6.686H95.281Zm-53.148,0a1.525,1.525,0,0,1,1.523-1.523h.672a1.525,1.525,0,0,1,1.523,1.523V6.686H42.133V4.449Zm70.446,88.112a4.394,4.394,0,0,1-4.389,4.389H32.942a4.394,4.394,0,0,1-4.389-4.389v-.009a7.287,7.287,0,0,0,4.4,1.472H92.27a7.276,7.276,0,0,0,5.18-2.146l15.13-15.13ZM95.956,89.233a6.257,6.257,0,0,0,.177-1.475V77.992a3.344,3.344,0,0,1,3.34-3.34h9.766a6.258,6.258,0,0,0,1.475-.177Zm16.623-61.64H50.24a1.463,1.463,0,1,0,0,2.926h62.34V68.386a3.344,3.344,0,0,1-3.34,3.34H99.473a6.273,6.273,0,0,0-6.266,6.266v9.766a3.344,3.344,0,0,1-3.34,3.34H32.952a4.4,4.4,0,0,1-4.4-4.4V30.52H44.388a1.463,1.463,0,0,0,0-2.926H28.553V14.011a4.4,4.4,0,0,1,4.4-4.4h6.255v4.3a4.454,4.454,0,0,0,4.449,4.449,1.463,1.463,0,1,0,0-2.926,1.525,1.525,0,0,1-1.523-1.523v-4.3H92.355v4.3A4.454,4.454,0,0,0,96.8,18.363a1.463,1.463,0,1,0,0-2.926,1.525,1.525,0,0,1-1.523-1.523v-4.3h12.9a4.4,4.4,0,0,1,4.4,4.4ZM44.228,54.469H37.261A2.86,2.86,0,0,0,34.4,57.325v6.967a2.86,2.86,0,0,0,2.856,2.856h6.967a2.86,2.86,0,0,0,2.856-2.856V57.325a2.86,2.86,0,0,0-2.856-2.856Zm-.07,9.754H37.331V57.4h6.827ZM57.142,49.051h6.967a2.86,2.86,0,0,0,2.856-2.856V39.228a2.86,2.86,0,0,0-2.856-2.856H57.142a2.86,2.86,0,0,0-2.856,2.856v6.967A2.86,2.86,0,0,0,57.142,49.051Zm.07-9.754h6.827v6.827H57.212ZM77.091,82.32a1.463,1.463,0,0,0-2.924.07,2.86,2.86,0,0,0,2.856,2.856H83.99a2.86,2.86,0,0,0,2.856-2.856V75.423a2.86,2.86,0,0,0-2.856-2.856H77.023a2.86,2.86,0,0,0-2.856,2.856v2.009a1.463,1.463,0,0,0,2.926,0v-1.94H83.92V82.32ZM57.142,67.149h6.967a2.86,2.86,0,0,0,2.856-2.856V57.325a2.86,2.86,0,0,0-2.856-2.856H57.142a2.86,2.86,0,0,0-2.856,2.856v6.967A2.86,2.86,0,0,0,57.142,67.149Zm.07-9.754h6.827v6.827H57.212Zm-.07,27.851h6.967a2.86,2.86,0,0,0,2.856-2.856V75.423a2.86,2.86,0,0,0-2.856-2.856H57.142a2.86,2.86,0,0,0-2.856,2.856v6.967A2.86,2.86,0,0,0,57.142,85.246Zm.07-9.754h6.827V82.32H57.212Z"/></g></svg>