<svg xmlns="http://www.w3.org/2000/svg" width="101.066" height="97.999" viewBox="0 0 101.066 97.999"><defs><style>.a{fill:#fff;}</style></defs><g transform="translate(0.001)"><path class="a" d="M28.752,377.664a1.482,1.482,0,1,0-1.049-.434A1.489,1.489,0,0,0,28.752,377.664Zm0,0" transform="translate(-21.887 -300.739)"/><path class="a" d="M98.6,200.5H89.8a2.47,2.47,0,0,0-2.467,2.467v.7H83.071a2.47,2.47,0,0,0-2.467,2.467v3.056H57.4a4.763,4.763,0,0,0-3.394,1.41l-.627.628-.157-.157a6.992,6.992,0,0,0-4.416-1.887H20.46v-3.051a2.47,2.47,0,0,0-2.467-2.467H13.728v-.7a2.471,2.471,0,0,0-2.467-2.467H2.467A2.47,2.47,0,0,0,0,202.968v38.023a2.47,2.47,0,0,0,2.467,2.467h8.794a2.47,2.47,0,0,0,2.467-2.467v-.7h4.265a2.471,2.471,0,0,0,2.467-2.467v-1.2l1.78,1.273a5.083,5.083,0,0,0,1.451,4.015,5.027,5.027,0,0,0,3.588,1.475c.035,0,.071,0,.106,0a5.028,5.028,0,0,0,5.055,5.181l.107,0a5.025,5.025,0,0,0,5.054,5.18l.106,0a5.028,5.028,0,0,0,5.055,5.181,5.294,5.294,0,0,0,3.771-1.575l.349-.351a5.432,5.432,0,0,0,6.577-.847l.449-.45a5.41,5.41,0,0,0,1.395-2.42,5.435,5.435,0,0,0,6.391-.952l.449-.45a5.4,5.4,0,0,0,1.365-2.309,5.429,5.429,0,0,0,6.733-.752l.448-.45a5.4,5.4,0,0,0,1.453-2.659,5.436,5.436,0,0,0,5.843-1.206l.448-.45a5.453,5.453,0,0,0,.675-6.856l1.494-.843v1.467a2.47,2.47,0,0,0,2.467,2.467h4.265v.7a2.471,2.471,0,0,0,2.467,2.467H98.6a2.47,2.47,0,0,0,2.467-2.467V202.968A2.47,2.47,0,0,0,98.6,200.5Zm-87.83,40H2.96V203.462h7.807Zm16.512-.07a2.085,2.085,0,0,1-1.49-.6,2.264,2.264,0,0,1,.1-3.188l.655-.658a2.355,2.355,0,0,1,1.674-.7,2.085,2.085,0,0,1,1.49.6,2.263,2.263,0,0,1-.1,3.187l-.656.658A2.349,2.349,0,0,1,27.279,240.427Zm5.162,5.178a2.082,2.082,0,0,1-1.49-.6,2.263,2.263,0,0,1,.1-3.187l.656-.658a2.353,2.353,0,0,1,1.674-.7,2.084,2.084,0,0,1,1.49.6,2.266,2.266,0,0,1-.1,3.188l-.656.658A2.349,2.349,0,0,1,32.441,245.6Zm5.162,5.178a2.083,2.083,0,0,1-1.49-.6,2.265,2.265,0,0,1,.1-3.187h0l.656-.658h0a2.351,2.351,0,0,1,1.672-.7,2.084,2.084,0,0,1,1.49.6,2.264,2.264,0,0,1-.1,3.188l-.656.658A2.349,2.349,0,0,1,37.6,250.782Zm6.835,4.475a2.352,2.352,0,0,1-1.673.7,2.082,2.082,0,0,1-1.49-.6,2.265,2.265,0,0,1,.1-3.187l.656-.658a2.352,2.352,0,0,1,1.674-.7,2.082,2.082,0,0,1,1.49.6,2.265,2.265,0,0,1-.1,3.187Zm31.9-13.3-.449.45a2.464,2.464,0,0,1-3.477,0L60.844,230.8a1.481,1.481,0,0,0-2.1,2.09l9.847,9.881a2.485,2.485,0,0,1,0,3.5l-.449.45a2.464,2.464,0,0,1-3.477,0L53.289,235.311a1.48,1.48,0,0,0-2.1,2.09L60,246.235l.049.049a2.484,2.484,0,0,1,0,3.5l-.448.45a2.465,2.465,0,0,1-3.478,0l-12.4-12.443a1.48,1.48,0,1,0-2.1,2.09l10.191,10.224a2.484,2.484,0,0,1,0,3.5l-.448.45a2.467,2.467,0,0,1-2.852.453,5.14,5.14,0,0,0-1.222-5.19,5.025,5.025,0,0,0-3.587-1.474l-.107,0a5.027,5.027,0,0,0-5.055-5.181l-.106,0a5.026,5.026,0,0,0-5.054-5.18l-.107,0a5.027,5.027,0,0,0-5.055-5.181,5.29,5.29,0,0,0-3.771,1.575l-.656.658a5.332,5.332,0,0,0-.443.505l-2.888-2.066v-3.52a1.48,1.48,0,1,0-2.961,0v7.863H13.728V206.633H17.5v15.725a1.48,1.48,0,0,0,2.961,0V212.151H48.8a4.145,4.145,0,0,1,2.321,1.016l.163.164-10.5,10.536a5.979,5.979,0,0,0-1.755,4.121,5.617,5.617,0,0,0,5.65,5.775A5.928,5.928,0,0,0,48.906,232l3.592-3.6a9.138,9.138,0,0,0,4.546,1.218,9.032,9.032,0,0,0,6.441-2.676l.683-.685,12.17,12.209a2.484,2.484,0,0,1,0,3.5Zm7.226-4.635V223.739a1.48,1.48,0,1,0-2.961,0v9.214l-3.568,2.012L66.259,224.154l1.605-1.61a1.481,1.481,0,0,0-2.1-2.09l-4.379,4.393a6.131,6.131,0,0,1-8.154.478,1.481,1.481,0,0,0-1.969.113l-4.455,4.47a2.991,2.991,0,0,1-2.128.894,2.678,2.678,0,0,1-1.913-.776,2.708,2.708,0,0,1-.777-1.982,3.033,3.033,0,0,1,.892-2.087L56.1,212.7a1.819,1.819,0,0,1,1.3-.54H80.6v4.478a1.48,1.48,0,0,0,2.961,0v-10h3.771v30.694ZM98.1,240.5H90.3V203.462H98.1Zm0,0" transform="translate(0 -160.923)"/><path class="a" d="M471.2,377.664a1.484,1.484,0,1,0-1.048-.434A1.492,1.492,0,0,0,471.2,377.664Zm0,0" transform="translate(-376.999 -300.739)"/><path class="a" d="M187.1,94.816a16.9,16.9,0,0,0,8.654-2.38,1.481,1.481,0,1,0-1.517-2.543,14.036,14.036,0,1,1,4.872-4.875,1.48,1.48,0,1,0,2.542,1.517A16.939,16.939,0,1,0,187.1,94.816Zm0,0" transform="translate(-136.563 -48.818)"/><path class="a" d="M218.1,123.074v-1.6a1.48,1.48,0,0,0-2.961,0v1.6a1.48,1.48,0,0,0,2.961,0Zm0,0" transform="translate(-172.674 -96.31)"/><path class="a" d="M284.82,123.074v-1.6a1.48,1.48,0,1,0-2.961,0v1.6a1.48,1.48,0,1,0,2.961,0Zm0,0" transform="translate(-226.222 -96.31)"/><path class="a" d="M229.956,161.744a6.167,6.167,0,0,0,6.405-5.88,1.48,1.48,0,0,0-2.961,0,3.492,3.492,0,0,1-6.889,0,1.48,1.48,0,0,0-2.961,0A6.166,6.166,0,0,0,229.956,161.744Zm0,0" transform="translate(-179.424 -123.909)"/><path class="a" d="M339.827,20.264a10.13,10.13,0,0,0,9.18-14.36l1.268-1.271a1.48,1.48,0,1,0-2.1-2.09l-.829.831a10.115,10.115,0,1,0-7.522,16.89Zm0-17.3a7.119,7.119,0,0,1,5.427,2.515l-5.427,5.444-3.153-3.164a1.481,1.481,0,0,0-2.1,2.09l3.784,3.8a2.072,2.072,0,0,0,2.933,0l5.414-5.432a7.14,7.14,0,1,1-6.881-5.249Zm0,0" transform="translate(-264.638)"/><path class="a" d="M69.5,55.7l-.523,3.05a2.625,2.625,0,0,0,2.588,3.07,2.636,2.636,0,0,0,1.222-.3l2.739-1.44,2.738,1.44a2.636,2.636,0,0,0,1.222.3,2.626,2.626,0,0,0,2.588-3.07L81.555,55.7l2.215-2.16a2.626,2.626,0,0,0-1.456-4.479l-3.062-.445-1.369-2.775a2.626,2.626,0,0,0-4.71,0L71.8,48.613l-3.062.445a2.626,2.626,0,0,0-1.455,4.479ZM73,51.431a1.48,1.48,0,0,0,1.114-.81l1.413-2.864,1.413,2.864a1.482,1.482,0,0,0,1.115.81l3.161.459L78.93,54.119A1.48,1.48,0,0,0,78.5,55.43l.54,3.148-2.827-1.487a1.484,1.484,0,0,0-1.378,0l-2.827,1.487.54-3.148a1.48,1.48,0,0,0-.426-1.311L69.84,51.89Zm0,0" transform="translate(-53.368 -35.615)"/></g></svg>