<svg xmlns="http://www.w3.org/2000/svg" width="50.933" height="50.932" viewBox="0 0 50.933 50.932"><defs><style>.a{fill:#023047;stroke:#023047;stroke-width:2px;}</style></defs><g transform="translate(1 1)"><path class="a" d="M24.466,48.932A24.466,24.466,0,1,0,0,24.466,24.494,24.494,0,0,0,24.466,48.932Zm0-46.751A22.285,22.285,0,1,1,2.182,24.466,22.31,22.31,0,0,1,24.466,2.182Zm0,0"/><path class="a" d="M93.83,93.946a4.518,4.518,0,1,0-4.517-4.518,4.517,4.517,0,0,0,4.517,4.518Zm0-6.854a2.336,2.336,0,1,1-2.336,2.336,2.336,2.336,0,0,1,2.336-2.336Zm0,0" transform="translate(-75.395 -71.678)"/><path class="a" d="M164.953,177.385a4.518,4.518,0,1,0,4.517-4.518A4.517,4.517,0,0,0,164.953,177.385Zm6.854,0a2.336,2.336,0,1,1-2.336-2.336A2.336,2.336,0,0,1,171.807,177.385Zm0,0" transform="translate(-139.247 -145.928)"/><path class="a" d="M101.017,99.774a1.091,1.091,0,0,0,1.51-.318l15.42-23.645a1.091,1.091,0,1,0-1.827-1.192L100.7,98.264A1.091,1.091,0,0,0,101.017,99.774Zm0,0" transform="translate(-84.857 -62.572)"/></g></svg>