<svg xmlns="http://www.w3.org/2000/svg" width="72.336" height="98.613" viewBox="0 0 72.336 98.613"><defs><style>.a{fill:#023047;stroke:#023047;}</style></defs><g transform="translate(-68.372 0.5)"><path class="a" d="M223.435,61.9a7.283,7.283,0,0,0-4.528,1.575,7.316,7.316,0,0,0-12.312-4.288,7.313,7.313,0,0,0-11.178-2.894V42.2a7.321,7.321,0,1,0-14.642,0V65.873a1.431,1.431,0,0,0,2.862,0V42.2a4.459,4.459,0,1,1,8.918,0V74.292a1.431,1.431,0,0,0,2.862,0v-12.2a4.459,4.459,0,1,1,8.918,0v12.2a1.431,1.431,0,1,0,2.862,0V64.47a4.459,4.459,0,1,1,8.918,0v9.822a1.431,1.431,0,1,0,2.862,0V69.219a4.459,4.459,0,0,1,8.918,0V90.3l-.007,6.08a41.2,41.2,0,0,1-2.849,14.528l-.456,1.163a6.624,6.624,0,0,0-.459,2.429v9.9a1.431,1.431,0,1,0,2.862,0v-9.9a3.771,3.771,0,0,1,.262-1.383l.456-1.163A44.076,44.076,0,0,0,230.748,96.4l.007-6.1V69.219A7.329,7.329,0,0,0,223.435,61.9Z" transform="translate(-90.547 -28.223)"/><path class="a" d="M97.868,262.477A16.1,16.1,0,0,1,88,255.816L72.588,233.29a4.789,4.789,0,0,1,7.477-5.945l9.058,9.851a2.284,2.284,0,0,0,3.966-1.546V223.224a1.431,1.431,0,1,0-2.862,0v10.944l-8.056-8.76a7.651,7.651,0,0,0-11.947,9.5l15.407,22.526a18.945,18.945,0,0,0,11.14,7.728v10.5a1.431,1.431,0,0,0,2.862,0V264.673A2.262,2.262,0,0,0,97.868,262.477Z" transform="translate(0 -179.476)"/><path class="a" d="M275.709,40.437a12.9,12.9,0,0,1-1.45,5.978,1.431,1.431,0,1,0,2.543,1.313,15.918,15.918,0,0,0-1.434-16.871,1.431,1.431,0,0,0-2.285,1.723,12.95,12.95,0,0,1,2.627,7.857Z" transform="translate(-165.009 -24.509)"/><path class="a" d="M139.147,23.994a1.432,1.432,0,0,0,1.27-2.088,12.9,12.9,0,0,1-1.45-5.978A13.069,13.069,0,0,1,158.3,4.464a1.431,1.431,0,0,0,1.376-2.51A15.931,15.931,0,0,0,136.1,15.928a15.737,15.737,0,0,0,1.769,7.291,1.431,1.431,0,0,0,1.273.775Z" transform="translate(-54.4)"/><path class="a" d="M94.519,46.7a1.432,1.432,0,0,0,1.291-2.046,21.743,21.743,0,0,1,0-18.6,1.431,1.431,0,1,0-2.585-1.229,24.605,24.605,0,0,0,0,21.061A1.431,1.431,0,0,0,94.519,46.7Z" transform="translate(-17.785 -19.428)"/><path class="a" d="M322.454,46.565a1.43,1.43,0,0,0,1.907-.678,24.605,24.605,0,0,0,0-21.061,1.431,1.431,0,0,0-2.585,1.228,21.743,21.743,0,0,1,0,18.6,1.431,1.431,0,0,0,.678,1.907Z" transform="translate(-204.533 -19.428)"/></g></svg>