<svg xmlns="http://www.w3.org/2000/svg" width="98.336" height="98.497" viewBox="0 0 98.336 98.497"><defs><style>.a{fill:#023047;stroke:#023047;stroke-linecap:round;stroke-linejoin:round;stroke-width:0.5px;}</style></defs><g transform="translate(-0.171 0.25)"><g transform="translate(56.309 30.646)"><path class="a" d="M298.994,160.113a6.586,6.586,0,0,0-6.578,6.578c0,3.043,4.392,11.02,5.273,12.588l1.306,2.326,1.306-2.326c.88-1.568,5.272-9.545,5.272-12.588A6.586,6.586,0,0,0,298.994,160.113Zm0,15.286c-1.92-3.681-3.583-7.472-3.583-8.707a3.583,3.583,0,1,1,7.166,0C302.577,167.926,300.915,171.717,298.994,175.4Z" transform="translate(-292.416 -160.113)"/></g><g transform="translate(70.1 62.824)"><path class="a" d="M371.046,328.233a6.586,6.586,0,0,0-6.579,6.578c0,3.043,4.392,11.02,5.272,12.588l1.306,2.326,1.306-2.326c.88-1.568,5.272-9.545,5.272-12.588A6.586,6.586,0,0,0,371.046,328.233Zm0,15.285c-1.92-3.682-3.583-7.472-3.583-8.707a3.583,3.583,0,1,1,7.166,0C374.628,336.046,372.966,339.836,371.045,343.518Z" transform="translate(-364.467 -328.233)"/></g><g transform="translate(16.469)"><path class="a" d="M90.847,0a6.586,6.586,0,0,0-6.579,6.578c0,3.043,4.392,11.02,5.273,12.588l1.306,2.326,1.306-2.326c.88-1.568,5.273-9.545,5.273-12.588A6.586,6.586,0,0,0,90.847,0Zm0,15.286c-1.92-3.681-3.583-7.472-3.583-8.707a3.583,3.583,0,0,1,7.166,0C94.429,7.813,92.767,11.6,90.846,15.286Z" transform="translate(-84.268)"/></g><g transform="translate(23.567 41.049)"><path class="a" d="M127.927,214.467a6.586,6.586,0,0,0-6.578,6.578c0,3.043,4.392,11.02,5.273,12.588l1.306,2.326,1.306-2.326c.88-1.568,5.272-9.545,5.272-12.588A6.586,6.586,0,0,0,127.927,214.467Zm0,15.286c-1.92-3.681-3.583-7.472-3.583-8.707a3.583,3.583,0,1,1,7.166,0C131.51,222.28,129.848,226.071,127.927,229.753Z" transform="translate(-121.349 -214.467)"/></g><g transform="translate(21.764 23.323)"><rect class="a" width="3.195" height="2.996"/></g><g transform="translate(61.705 53.678)"><rect class="a" width="2.996" height="2.996"/></g><g transform="translate(28.279 8.805)"><path class="a" d="M174.976,49.417l-16.87,1.534L149.861,46,145.969,49.9l2.118,2.118,2.238-2.238,7.078,4.247,16.84-1.531,10.4,6.5-5.078,6.347,2.339,1.872,7.18-8.976Z" transform="translate(-145.969 -46.004)"/></g><g transform="translate(16.982 28.248)"><path class="a" d="M90.206,153.266l2.68-4.02-2.492-1.662-3.449,5.173L90.2,164.149l2.88-.823Z" transform="translate(-86.945 -147.584)"/></g><g transform="translate(0.421 0.162)"><path class="a" d="M83.929,15.172A48.97,48.97,0,0,0,30.286,4.693l1.168,2.759A45.972,45.972,0,0,1,81.811,17.29a46.112,46.112,0,0,1,7.778,10.326L84.472,35.46v6.277L81.084,50.4l9.125,5.561h4.636A45.933,45.933,0,0,1,49.339,95.684c-.112,0-.224,0-.336,0L47.78,86.987l1.936-1.937,6.128,1.532,12.15-12.153L62.447,65.2l-7.88-1.574-4.473-4.45-5.562-2.76V52.141l11.476-5.716-1.336-2.682L41.536,50.286v7.985l6.791,3.369,4.768,4.744,7.467,1.491,3.659,6.091-9.3,9.3L48.8,81.733l-4.191,4.193,1.356,9.637a45.951,45.951,0,0,1-8.1-1.316L29.37,81.5l1.451-10.16-2.966-.424L26.242,82.214l7.071,10.607A45.943,45.943,0,0,1,17.122,17.037L15.02,14.9A48.918,48.918,0,1,0,83.929,84.352a48.918,48.918,0,0,0,0-69.18ZM91.05,52.963,84.79,49.147,87.468,42.3V36.321l3.609-5.761a45.779,45.779,0,0,1,4.184,19.2q0,1.61-.111,3.2Z" transform="translate(-0.421 -0.844)"/></g><g transform="translate(53.748 48.065)"><path class="a" d="M292.464,251.121l-2.117,2.119,4.037,4.032v2.864c-3.181.96-7.4,2.216-8.922,2.634a37.475,37.475,0,0,1-3.145-4.627l.962-2.806H285.4v-3h-4.259l-2.1,6.131.344.592c.038.065.942,1.616,1.975,3.172l4.136,3.612c.94-.178,9.181-2.668,10.823-3.166l1.064-.322v-6.329Z" transform="translate(-279.037 -251.121)"/></g><g transform="translate(27.955 64.462)"><rect class="a" width="2.996" height="2.996"/></g></g></svg>