<svg xmlns="http://www.w3.org/2000/svg" width="427.802" height="375.987" viewBox="0 0 427.802 375.987"><defs><style>.a{fill:#d2302c;}.b{fill:#023047;}</style></defs><g transform="translate(0 -31.006)"><path class="a" d="M254.35,90.28a8.356,8.356,0,0,0,8.355-8.355V39.362a8.355,8.355,0,1,0-16.711,0V81.924A8.357,8.357,0,0,0,254.35,90.28Z" transform="translate(-40.454)"/><path class="a" d="M176.177,108.9a8.355,8.355,0,1,0,14.137-8.91L168.051,64.666a8.355,8.355,0,1,0-14.137,8.91Z" transform="translate(-25.1 -4.894)"/><path class="a" d="M316.651,111.516a8.354,8.354,0,0,0,11.522-2.619l22.239-35.323a8.356,8.356,0,1,0-14.142-8.9L314.032,99.992A8.357,8.357,0,0,0,316.651,111.516Z" transform="translate(-51.431 -4.894)"/><path class="b" d="M425.108,241.907,410.59,216.26a8.355,8.355,0,1,0-14.541,8.231l14.511,25.636a4.122,4.122,0,0,1,.361,3.157,3.94,3.94,0,0,1-1.868,2.393l-22.374,12.394a4.236,4.236,0,0,1-5.666-1.507l-5.684-10.055c-.023-.045-.05-.087-.074-.131L316.49,152.44a4.069,4.069,0,0,1-.368-3.123,3.914,3.914,0,0,1,1.862-2.38l22.4-12.4a4.16,4.16,0,0,1,5.644,1.512l13.1,23.139a8.355,8.355,0,0,0,14.543-8.231l-13.091-23.129a20.916,20.916,0,0,0-28.28-7.914l-22.4,12.4a20.76,20.76,0,0,0-8.442,27.439l-12.339,3.576c-5.256,1.521-8.447,2.345-10.217,2.345h-.021c-1.219,0-2.548-.47-6.343-1.907-1.721-.652-3.864-1.464-6.5-2.383l-21.862-7.643c-12.091-4.223-17.545-4-25.446-3.275L181.45,153.8c-16.994,1.506-27.829,5.339-33.81,11.988L126.4,159.635a20.752,20.752,0,0,0-8.488-27.317l-22.388-12.4a20.93,20.93,0,0,0-28.3,7.908L2.715,241.9a20.785,20.785,0,0,0,7.929,28.4l22.388,12.4a20.952,20.952,0,0,0,28.3-7.908l2.365-4.184a39.246,39.246,0,0,1,15.57,11.858A28.046,28.046,0,0,0,97.4,328.547a28.016,28.016,0,0,0,24.666,30.81,28.005,28.005,0,0,0,24.667,30.812,28.1,28.1,0,0,0,45.483,24.87l17.495-14a28.171,28.171,0,0,0,3.788-3.655l9.993,7.983a28.076,28.076,0,0,0,45.1-16.536,27.93,27.93,0,0,0,9.152,1.532,28.9,28.9,0,0,0,3.18-.176,28.032,28.032,0,0,0,24.823-30.833,27.986,27.986,0,0,0,24.665-30.809,28.086,28.086,0,0,0,18.137-46.086A39.082,39.082,0,0,1,364.1,270.6l2.37,4.193a20.954,20.954,0,0,0,28.3,7.9L417.144,270.3a20.812,20.812,0,0,0,7.964-28.391ZM46.785,266.56a4.233,4.233,0,0,1-5.662,1.515l-22.387-12.4a3.93,3.93,0,0,1-1.859-2.386,4.1,4.1,0,0,1,.376-3.153L81.771,136.042A4.08,4.08,0,0,1,85.347,134a4.285,4.285,0,0,1,2.079.538l22.381,12.4.008,0a3.916,3.916,0,0,1,1.859,2.379,4.079,4.079,0,0,1-.377,3.137Zm60.973,43A11.372,11.372,0,0,1,93.544,291.8l31.281-25a11.423,11.423,0,0,1,16.02,1.787,11.38,11.38,0,0,1-1.781,15.948c-.052.041-.1.087-.146.129l-31.153,24.89Zm8.66,29.022a11.41,11.41,0,0,1,1.778-15.972l0,0,.005,0,0,0,45.058-36a11.416,11.416,0,0,1,16.02,1.787,11.413,11.413,0,0,1-1.791,15.983l-45.046,35.985a11.421,11.421,0,0,1-16.028-1.778Zm32.3,35a11.369,11.369,0,0,1-5.851-20.164l.006-.005L174.055,328.5c.037-.028.077-.053.114-.082a11.415,11.415,0,0,1,16.009,1.773,11.409,11.409,0,0,1-1.794,15.983l-31.281,25A11.345,11.345,0,0,1,148.719,373.58Zm54.744,6.783a11.279,11.279,0,0,1-4.188,7.624l-17.5,14a11.418,11.418,0,0,1-16.027-1.776,11.407,11.407,0,0,1,1.771-15.967l.008-.006,17.491-13.982c.009-.008.019-.013.028-.02a11.423,11.423,0,0,1,16.021,1.787A11.253,11.253,0,0,1,203.462,380.363Zm132.583-72.579a11.454,11.454,0,0,1-16.009,1.773l0,0,0,0-22.358-17.863a8.355,8.355,0,1,0-10.431,13.055l22.35,17.857a11.373,11.373,0,1,1-14.221,17.752L271.118,321a8.355,8.355,0,1,0-10.423,13.061l24.24,19.344A11.389,11.389,0,0,1,270.7,371.186l-12.067-9.651-.06-.051-10.2-8.151-1.906-1.524a8.355,8.355,0,0,0-10.437,13.05l12.133,9.7a11.381,11.381,0,0,1-14.252,17.749l-13.766-11A27.959,27.959,0,0,0,204.086,353.7a28.04,28.04,0,0,0-10.891-41.82,28.086,28.086,0,0,0-33.814-42.233,27.865,27.865,0,0,0-5.489-11.5,28.16,28.16,0,0,0-39.5-4.406L92.022,271.621a55.053,55.053,0,0,0-20.068-15.629l46.021-81.4,24.5,7.1a27.33,27.33,0,0,0,.679,4.15c5.932,24.388,28.386,35.752,58.6,29.663,25.459-5.123,35.94,2.508,56.815,17.709,2.166,1.577,4.416,3.215,6.771,4.9,15.012,10.77,31.055,23.43,41.811,32.01L334.279,291.8a11.41,11.41,0,0,1,1.766,15.982Zm-.26-36.168-18.2-14.546c-10.9-8.7-27.174-21.535-42.5-32.533-2.323-1.664-4.538-3.277-6.67-4.829-21.646-15.763-37.29-27.151-69.95-20.583-10,2.015-33.813,4.37-39.066-17.227-.74-3.049.012-4.1.332-4.544,1.117-1.557,5.612-5.348,23.2-6.906l37.318-3.34c6.081-.555,9.132-.834,18.413,2.408l21.865,7.644c2.431.849,4.374,1.584,6.089,2.234,10.528,3.988,13.318,3.987,27.149-.016l16.119-4.671L355.842,256A54.9,54.9,0,0,0,335.786,271.616Z" transform="translate(0 -14.191)"/><path class="b" d="M458.926,208.308a8.362,8.362,0,1,0-8.355-8.368v.023A8.347,8.347,0,0,0,458.926,208.308Z" transform="translate(-74.096 -26.407)"/></g></svg>