<svg id="Group_15" data-name="Group 15" xmlns="http://www.w3.org/2000/svg" width="177.835" height="210.534" viewBox="0 0 177.835 210.534">
  <path id="Path_23" data-name="Path 23" d="M50.417,0H5.6A5.594,5.594,0,0,0,.028,5.6L0,39.213a5.618,5.618,0,0,0,5.6,5.6H50.417a5.618,5.618,0,0,0,5.6-5.6V5.6A5.618,5.618,0,0,0,50.417,0Zm0,11.2-22.408,14L5.6,11.2V5.6l22.408,14,22.408-14Z" transform="matrix(0.358, -0.934, 0.934, 0.358, 79.902, 97.987)" fill="#f9d142" opacity="0.6"/>
  <path id="Path_24" data-name="Path 24" d="M52.446,0H5.827a5.82,5.82,0,0,0-5.8,5.827L0,40.792a5.845,5.845,0,0,0,5.827,5.827H52.446a5.845,5.845,0,0,0,5.827-5.827V5.827A5.845,5.845,0,0,0,52.446,0Zm0,11.655L29.137,26.223,5.827,11.655V5.827L29.137,20.4,52.446,5.827Z" transform="matrix(0.819, 0.574, -0.574, 0.819, 26.74, 86.762)" fill="#f9d142" opacity="0.4"/>
  <path id="Path_25" data-name="Path 25" d="M55.448,0H6.161A6.153,6.153,0,0,0,.031,6.161L0,43.126a6.179,6.179,0,0,0,6.161,6.161H55.448a6.179,6.179,0,0,0,6.161-6.161V6.161A6.179,6.179,0,0,0,55.448,0Zm0,12.322L30.8,27.724,6.161,12.322V6.161L30.8,21.563l24.643-15.4Z" transform="matrix(0.719, -0.695, 0.695, 0.719, 11.393, 42.797)" fill="#f9d142" opacity="0.2"/>
  <path id="Path_26" data-name="Path 26" d="M26.262,0H2.918a2.914,2.914,0,0,0-2.9,2.918L0,20.426a2.927,2.927,0,0,0,2.918,2.918H26.262a2.927,2.927,0,0,0,2.918-2.918V2.918A2.927,2.927,0,0,0,26.262,0Zm0,5.836L14.59,13.131,2.918,5.836V2.918L14.59,10.213,26.262,2.918Z" transform="matrix(0.996, 0.087, -0.087, 0.996, 128.342, 184.736)" fill="#f9d142"/>
  <path id="Path_27" data-name="Path 27" d="M36.738,0H4.082A4.077,4.077,0,0,0,.02,4.082L0,28.574a4.094,4.094,0,0,0,4.082,4.082H36.738a4.094,4.094,0,0,0,4.082-4.082V4.082A4.094,4.094,0,0,0,36.738,0Zm0,8.164L20.41,18.369,4.082,8.164V4.082L20.41,14.287,36.738,4.082Z" transform="matrix(0.829, -0.559, 0.559, 0.829, 68.633, 166.597)" fill="#f9d142" opacity="0.8"/>
  <path id="Path_28" data-name="Path 28" d="M29.487,0H3.276A3.272,3.272,0,0,0,.016,3.276L0,22.935a3.286,3.286,0,0,0,3.276,3.276H29.487a3.286,3.286,0,0,0,3.276-3.276V3.276A3.286,3.286,0,0,0,29.487,0Zm0,6.553L16.382,14.744,3.276,6.553V3.276l13.105,8.191L29.487,3.276Z" transform="translate(122.329 136.399) rotate(-42)" fill="#f9d142"/>
  <path id="Path_29" data-name="Path 29" d="M18.377,0H2.042A2.039,2.039,0,0,0,.01,2.042L0,14.293a2.048,2.048,0,0,0,2.042,2.042H18.377a2.048,2.048,0,0,0,2.042-2.042V2.042A2.048,2.048,0,0,0,18.377,0Zm0,4.084-8.168,5.1-8.168-5.1V2.042l8.168,5.1,8.168-5.1Z" transform="matrix(0.996, -0.087, 0.087, 0.996, 156.07, 157.529)" fill="#f9d142"/>
</svg>
