<svg xmlns="http://www.w3.org/2000/svg" width="189.173" height="36.327" viewBox="0 0 189.173 36.327">
  <g id="Group_9" data-name="Group 9" transform="translate(-1142.529 -74.356)">
    <g id="Group_1" data-name="Group 1" transform="translate(1209.945 74.356)">
      <path id="Path_2" data-name="Path 2" d="M1235.833,99.7h-3.707v11.22h-7.8V76.777h13.658a11.679,11.679,0,0,1,11.707,11.707,11.254,11.254,0,0,1-6.292,9.9l7.268,12.537h-8.39Zm-3.707-6.83h5.854a4.421,4.421,0,0,0,0-8.781h-5.854Z" transform="translate(-1224.321 -75.606)" fill="#023047"/>
      <path id="Path_3" data-name="Path 3" d="M1259.083,80.842A4.389,4.389,0,1,1,1262.236,84,4.407,4.407,0,0,1,1259.083,80.842Zm.592,5.441h7.317v24.391h-7.317Z" transform="translate(-1230.406 -75.356)" fill="#023047"/>
      <path id="Path_4" data-name="Path 4" d="M1297.713,88.613,1288.688,113H1280.4l-9.025-24.391h8.1l5.073,15.464,5.073-15.464Z" transform="translate(-1232.591 -77.686)" fill="#023047"/>
      <path id="Path_5" data-name="Path 5" d="M1316.94,107a6.37,6.37,0,0,0,4.683-1.854l5.854,3.366c-2.39,3.317-6,5.024-10.634,5.024-8.341,0-13.513-5.609-13.513-12.878a12.506,12.506,0,0,1,12.976-12.878c7.122,0,12.39,5.513,12.39,12.878a14.155,14.155,0,0,1-.293,2.927h-17.317C1312.013,106.127,1314.257,107,1316.94,107Zm4.488-8.878a5.494,5.494,0,0,0-10.488,0Z" transform="translate(-1238.208 -77.541)" fill="#023047"/>
      <path id="Path_6" data-name="Path 6" d="M1346.509,94.182v8.634c0,2.1,1.805,2.293,5.025,2.1v6.634c-9.561.975-12.341-1.9-12.341-8.732V94.182h-3.9V87.157h3.9V82.523l7.317-2.195v6.829h5.025v7.025Z" transform="translate(-1243.825 -76.23)" fill="#023047"/>
    </g>
    <g id="Group_8" data-name="Group 8" transform="translate(1142.529 76.629)">
      <path id="Path_7" data-name="Path 7" d="M1203.467,79.912a3.167,3.167,0,0,0-2.956-.2l-6.171,2.807c-.675-1.463-1.211-2.719-1.6-3.682a3.119,3.119,0,0,0-4.081-1.7,145.038,145.038,0,0,1-22.807,7.341,3.12,3.12,0,0,0-2.282,3.989c3.328,10.427,8.016,15.61,10.394,17.7.22.195.422.363.6.506a3.137,3.137,0,0,0,1.958.685,3.1,3.1,0,0,0,1.081-.194l2.684-1,19.1-7.094a3.1,3.1,0,0,0,1.66-1.454,33.872,33.872,0,0,0,1.479-3.937,50.661,50.661,0,0,0,2.394-11.235A2.852,2.852,0,0,0,1203.467,79.912Zm-5.776,16.461a.914.914,0,0,1-.566.556l-20.707,7.524a.909.909,0,0,1-.889-.17c-1.662-1.411-6.336-6.563-9.31-15.262a.663.663,0,0,1,.977-.779,30.4,30.4,0,0,0,9.864,3.513,2.868,2.868,0,0,0,.493.056,3.463,3.463,0,0,0,2.5-1.245c2.014-2.052,5.807-6.461,8.97-10.165a.661.661,0,0,1,1.119.184,102.661,102.661,0,0,0,7.466,15A.908.908,0,0,1,1197.69,96.373Z" transform="translate(-1146.201 -76.9)" fill="#d2302c"/>
      <g id="Group_3" data-name="Group 3" transform="translate(0 16.159)">
        <g id="Group_2" data-name="Group 2">
          <path id="Path_8" data-name="Path 8" d="M1143.962,105.1a1.433,1.433,0,0,1-.572-2.746l13.181-5.731a1.433,1.433,0,1,1,1.142,2.628l-13.18,5.731A1.431,1.431,0,0,1,1143.962,105.1Z" transform="translate(-1142.529 -96.505)" fill="#d2302c"/>
        </g>
      </g>
      <g id="Group_5" data-name="Group 5" transform="translate(0.351 22.527)">
        <g id="Group_4" data-name="Group 4">
          <path id="Path_9" data-name="Path 9" d="M1144.389,113.4a1.433,1.433,0,0,1-.578-2.744l14.327-6.3a1.432,1.432,0,1,1,1.154,2.622l-14.327,6.3A1.433,1.433,0,0,1,1144.389,113.4Z" transform="translate(-1142.955 -104.232)" fill="#d2302c"/>
        </g>
      </g>
      <g id="Group_7" data-name="Group 7" transform="translate(10.731 27.177)">
        <g id="Group_6" data-name="Group 6">
          <path id="Path_10" data-name="Path 10" d="M1156.983,116.75a1.433,1.433,0,0,1-.591-2.739l8.883-4.012a1.433,1.433,0,1,1,1.18,2.611l-8.883,4.012A1.438,1.438,0,0,1,1156.983,116.75Z" transform="translate(-1155.549 -109.873)" fill="#d2302c"/>
        </g>
      </g>
    </g>
    <text id="TM" transform="translate(1319.702 83.721)" fill="#023047" font-size="8" font-family="Gilroy-ExtraBold, Gilroy" font-weight="800" letter-spacing="0.05em"><tspan x="0" y="0">TM</tspan></text>
  </g>
</svg>
