<svg xmlns="http://www.w3.org/2000/svg" width="112.633" height="28.921" viewBox="0 0 112.633 28.921">
  <g id="Group_858" data-name="Group 858" transform="translate(-5358.174 474)">
    <g id="Group_658" data-name="Group 658" transform="translate(5414.12 -468.746)">
      <path id="Path_1182" data-name="Path 1182" d="M1130.022,26.284v.142c-1.346,0-2.693,0-4.039.005-.172,0-.227-.055-.258-.212-.149-.755-.315-1.508-.458-2.264-.031-.164-.1-.2-.248-.2q-2.74.006-5.48,0a.252.252,0,0,0-.288.2c-.264.757-.545,1.507-.807,2.264a.265.265,0,0,1-.3.21q-2.173-.011-4.346,0c-.234,0-.233-.061-.156-.245q3.346-7.976,6.679-15.958a2.312,2.312,0,0,1,2.33-1.568c1.126,0,2.252.007,3.377-.009.236,0,.314.072.359.294.284,1.41.582,2.817.876,4.224q1.216,5.839,2.435,11.678A12.05,12.05,0,0,0,1130.022,26.284ZM1123.1,13.473l-2.433,6.638a.35.35,0,0,0,.069.021c1.188,0,2.376,0,3.565.005.215,0,.149-.117.126-.23C1123.984,17.784,1123.546,15.66,1123.1,13.473Z" transform="translate(-1073.334 -8.332)" fill="#31589b"/>
      <path id="Path_1183" data-name="Path 1183" d="M1077.887,7.5a4.57,4.57,0,0,0,.869.136,12.276,12.276,0,0,1,2.141.551.2.2,0,0,1,.148.26q-.286,1.733-.564,3.467c-.025.16-.077.164-.211.1a7.991,7.991,0,0,0-3.934-.782,3.2,3.2,0,0,0-1.822.551,1.122,1.122,0,0,0-.127,1.839,3.436,3.436,0,0,0,.517.41,15.8,15.8,0,0,0,1.691.934,9.3,9.3,0,0,1,2.558,1.747,4.283,4.283,0,0,1,1.212,3.739,5.687,5.687,0,0,1-3.912,4.715,10.43,10.43,0,0,1-3.077.66c-.072.006-.159-.037-.214.049h-.236a3.231,3.231,0,0,0-.9,0h-.236a2.971,2.971,0,0,0-.757-.092,14.242,14.242,0,0,1-3.469-.755c-.217-.08-.271-.169-.229-.406.2-1.161.388-2.326.566-3.492.029-.188.078-.194.232-.121a10.534,10.534,0,0,0,2.675.962,7.275,7.275,0,0,0,3.366-.021,2.3,2.3,0,0,0,1.048-.61,1.3,1.3,0,0,0,.067-1.779,3.8,3.8,0,0,0-1.053-.825c-.738-.436-1.533-.765-2.261-1.22a7.138,7.138,0,0,1-1.881-1.6,4.264,4.264,0,0,1-.532-4.415,5.694,5.694,0,0,1,3.047-3.1,9.559,9.559,0,0,1,3.172-.851c.057-.006.13.026.166-.051Z" transform="translate(-1039.859 -7.5)" fill="#31589b"/>
      <path id="Path_1184" data-name="Path 1184" d="M968,8.908c.033-.228.184-.246.382-.246q3.458.01,6.916,0a3.871,3.871,0,0,1,.8.069,1.727,1.727,0,0,1,1.45,1.454q.523,2.622,1.036,5.247.226,1.144.451,2.288a.679.679,0,0,1,.024.3.455.455,0,0,1-.05-.075,13.785,13.785,0,0,0-3.9-5.362,13.21,13.21,0,0,0-2.271-1.6,16.154,16.154,0,0,0-2.88-1.365,17.608,17.608,0,0,0-1.769-.554A1.388,1.388,0,0,0,968,9.049Z" transform="translate(-968 -8.341)" fill="#e4a431"/>
      <path id="Path_1185" data-name="Path 1185" d="M1084.337,73.872a3.232,3.232,0,0,1,.9,0Z" transform="translate(-1052.167 -55.496)" fill="#31589b"/>
      <path id="Path_1186" data-name="Path 1186" d="M985.476,10.989a13.208,13.208,0,0,1,2.271,1.6,13.786,13.786,0,0,1,3.9,5.362.447.447,0,0,0,.05.075v0a.141.141,0,0,0,.047.139l.531,2.543c.089-.06.094-.16.124-.243q2.151-5.786,4.294-11.576a.28.28,0,0,1,.314-.226c1.464.008,2.928,0,4.392.006a.345.345,0,0,1,.221.032q-.387.956-.776,1.915-3.16,7.771-6.316,15.544a.353.353,0,0,1-.389.268c-1.44-.013-2.881-.01-4.321,0-.188,0-.27-.044-.321-.237Q987.494,18.584,985.476,10.989Z" transform="translate(-980.643 -8.338)" fill="#31589b"/>
      <path id="Path_1187" data-name="Path 1187" d="M1042.564,26.434c-.692,0-1.385,0-2.078,0-.169,0-.206-.032-.177-.209q.639-3.9,1.262-7.8.531-3.281,1.066-6.562c.162-1,.328-2,.479-3,.024-.16.075-.206.234-.205q2.1.009,4.2,0c.16,0,.189.038.163.2-.3,1.814-.589,3.63-.882,5.445q-.507,3.142-1.015,6.283-.456,2.828-.908,5.656c-.025.158-.091.195-.245.193C1043.965,26.429,1043.264,26.434,1042.564,26.434Z" transform="translate(-1020.308 -8.341)" fill="#31589b"/>
      <path id="Path_1188" data-name="Path 1188" d="M1008.022,42.651a.141.141,0,0,1-.047-.139C1008.047,42.54,1008.013,42.6,1008.022,42.651Z" transform="translate(-996.921 -32.83)" fill="#e4a431"/>
    </g>
    <g id="Group_661" data-name="Group 661" transform="translate(5358.174 -474)">
      <path id="Path_1198" data-name="Path 1198" d="M1556.557,5.863V4.15c.061-.029.035-.087.039-.131a12.138,12.138,0,0,1,.2-1.342,11.5,11.5,0,0,1,9.731-9.075,2.914,2.914,0,0,0,.685-.1h1.638c.013.038.047.033.076.035a11.335,11.335,0,0,1,6.22,2.422.873.873,0,0,1-.088.094,11.021,11.021,0,0,0-1.819,1.851,11.473,11.473,0,0,0-2.448,6.669,11.356,11.356,0,0,0,.063,1.688,11.7,11.7,0,0,0,.444,2.157,11.431,11.431,0,0,0,1.934,3.7,9.788,9.788,0,0,0,1.373,1.46c.184.155.361.319.541.478a.159.159,0,0,1-.023.028,11.355,11.355,0,0,1-6.587,2.419,10.89,10.89,0,0,1-5.488-1.147,11.345,11.345,0,0,1-6.383-8.808A3.2,3.2,0,0,0,1556.557,5.863Z" transform="translate(-1556.557 6.5)" fill="#c80120"/>
      <path id="Path_1199" data-name="Path 1199" d="M1630.352-6.5h1.452c.037.047.091.03.138.033a9.541,9.541,0,0,1,1.308.17,11.231,11.231,0,0,1,6.741,4.027,11.212,11.212,0,0,1,2.406,9.417,11.07,11.07,0,0,1-3.525,6.339,11.283,11.283,0,0,1-7.416,3.021,11.147,11.147,0,0,1-4.548-.788,10.806,10.806,0,0,1-2.887-1.665.771.771,0,0,1,.087-.094A10.6,10.6,0,0,0,1626,12.032a11.422,11.422,0,0,0,1.873-3.626,11.8,11.8,0,0,0,.5-2.874,11.218,11.218,0,0,0-.181-2.6,11.352,11.352,0,0,0-1.644-4.149,10.769,10.769,0,0,0-1.908-2.262c-.208-.184-.412-.372-.618-.558a.145.145,0,0,1,.022-.029,11.455,11.455,0,0,1,5.491-2.324A5.694,5.694,0,0,0,1630.352-6.5Z" transform="translate(-1605.366 6.5)" fill="#e09c2f"/>
      <path id="Path_1200" data-name="Path 1200" d="M1612.349,2.388l.072,0c.206.186.41.374.618.558a10.768,10.768,0,0,1,1.908,2.262,11.353,11.353,0,0,1,1.644,4.149,11.218,11.218,0,0,1,.181,2.6,11.8,11.8,0,0,1-.5,2.874,11.426,11.426,0,0,1-1.873,3.626,10.611,10.611,0,0,1-1.893,1.929.79.79,0,0,0-.087.094l-.071,0c-.18-.16-.357-.323-.541-.478a9.788,9.788,0,0,1-1.373-1.46,11.432,11.432,0,0,1-1.934-3.7,11.71,11.71,0,0,1-.444-2.157,11.466,11.466,0,0,1,2.384-8.357,11.02,11.02,0,0,1,1.819-1.851A.862.862,0,0,0,1612.349,2.388Z" transform="translate(-1593.765 0.07)" fill="#de5f16"/>
      <path id="Path_1201" data-name="Path 1201" d="M1564,86.854a1.187,1.187,0,0,1,1.847.015c.058.09.087.06.145,0a1.373,1.373,0,0,1,1.527-.358,1.053,1.053,0,0,1,.691,1.029c.02.632,0,1.265.009,1.9,0,.087-.021.12-.113.116a4.083,4.083,0,0,0-.465,0c-.127.009-.169-.027-.167-.161.008-.477,0-.955,0-1.432,0-.081,0-.161,0-.242a.63.63,0,0,0-.637-.659.671.671,0,0,0-.742.624c-.048.55-.016,1.1-.016,1.655,0,.159-.025.243-.207.215-.151-.024-.354.067-.442-.038-.075-.088-.027-.283-.028-.431,0-.372,0-.744,0-1.117,0-.087,0-.174-.01-.26a.623.623,0,0,0-.663-.649.655.655,0,0,0-.718.664c-.017.551-.013,1.1-.006,1.656,0,.138-.03.189-.173.175-.159-.015-.374.051-.466-.03-.108-.094-.034-.314-.034-.478,0-.8,0-1.6-.005-2.4,0-.131.033-.174.164-.161a1.517,1.517,0,0,0,.334,0c.151-.018.2.041.179.184A1.544,1.544,0,0,0,1564,86.854Z" transform="translate(-1561.439 -60.719)" fill="#040404"/>
      <path id="Path_1202" data-name="Path 1202" d="M1675.788,83.814c0-.5,0-.961,0-1.419,0-.132.02-.2.169-.176s.384-.07.479.039c.081.093.026.307.026.467,0,1.2,0,2.406,0,3.609,0,.138-.031.194-.172.17a.788.788,0,0,0-.13,0c-.351,0-.351,0-.39-.349a1.093,1.093,0,0,1-.806.411,1.543,1.543,0,0,1-.9-.192,1.613,1.613,0,0,1-.761-1.635,1.513,1.513,0,0,1,1.8-1.336A1.2,1.2,0,0,1,1675.788,83.814ZM1674,84.961a.929.929,0,1,0,1.852.015.93.93,0,0,0-.93-.994A.918.918,0,0,0,1674,84.961Z" transform="translate(-1641.01 -57.675)" fill="#030303"/>
      <path id="Path_1203" data-name="Path 1203" d="M1585.757,86.854c.015-.357.015-.357.339-.357s.339,0,.339.333c0,.856,0,1.712,0,2.568,0,.125-.023.185-.159.164a1.088,1.088,0,0,0-.167,0c-.331,0-.331,0-.361-.347a1.1,1.1,0,0,1-.807.41,1.544,1.544,0,0,1-.9-.193,1.6,1.6,0,0,1-.751-1.672,1.494,1.494,0,0,1,1.116-1.276A1.278,1.278,0,0,1,1585.757,86.854Zm.039,1.174a.928.928,0,1,0-1.853-.007.929.929,0,1,0,1.853.007Z" transform="translate(-1575.89 -60.731)" fill="#030303"/>
      <path id="Path_1204" data-name="Path 1204" d="M1653.484,89.188a1.385,1.385,0,0,1-1.857.145,1.582,1.582,0,0,1-.6-1.654,1.436,1.436,0,0,1,1.087-1.194,1.262,1.262,0,0,1,1.34.344c.012-.017.023-.026.023-.035.009-.3.009-.3.32-.3.355,0,.355,0,.355.354,0,.85,0,1.7,0,2.549,0,.13-.03.177-.162.163a1.5,1.5,0,0,0-.334,0c-.151.018-.2-.04-.179-.184A1.606,1.606,0,0,0,1653.484,89.188Zm.067-1.171a.93.93,0,1,0-1.856.009.93.93,0,1,0,1.856-.009Z" transform="translate(-1624.879 -60.728)" fill="#030303"/>
      <path id="Path_1205" data-name="Path 1205" d="M1620.792,88.321c-.323,0-.646.009-.968,0-.169-.007-.167.052-.118.18a.875.875,0,0,0,.919.551,1.4,1.4,0,0,0,.748-.248c.092-.062.136-.051.18.041a.645.645,0,0,0,.052.077c.221.331.222.335-.149.509a1.988,1.988,0,0,1-1.323.151,1.477,1.477,0,0,1-1.143-1.521,1.5,1.5,0,0,1,1.963-1.563,1.325,1.325,0,0,1,.952,1.187c.031.2.1.455-.007.6s-.358.033-.547.041S1620.978,88.321,1620.792,88.321Zm-.3-.583c.223,0,.446,0,.669,0,.106,0,.126-.03.1-.129a.728.728,0,0,0-.741-.6.8.8,0,0,0-.811.606c-.025.107.013.126.11.124C1620.046,87.735,1620.269,87.739,1620.492,87.739Z" transform="translate(-1601.725 -60.732)" fill="#040404"/>
      <path id="Path_1206" data-name="Path 1206" d="M1598.182,89.63a2.33,2.33,0,0,1-1.08-.3c-.1-.055-.136-.1-.053-.208s.13-.286.239-.343.227.1.351.145A1.737,1.737,0,0,0,1598.7,89a.5.5,0,0,0,.226-.122.234.234,0,0,0-.056-.408,1.482,1.482,0,0,0-.592-.14,2,2,0,0,1-.647-.155.775.775,0,0,1-.517-.649.868.868,0,0,1,.37-.842,1.552,1.552,0,0,1,.99-.252,2.323,2.323,0,0,1,1.039.244c.1.053.12.1.058.2-.079.125-.112.307-.221.377s-.251-.078-.385-.114a1.85,1.85,0,0,0-.77-.08.525.525,0,0,0-.286.121.241.241,0,0,0,.067.42,1.5,1.5,0,0,0,.491.094,1.979,1.979,0,0,1,.734.182.85.85,0,0,1,.11,1.488A1.928,1.928,0,0,1,1598.182,89.63Z" transform="translate(-1585.819 -60.735)" fill="#040404"/>
      <path id="Path_1207" data-name="Path 1207" d="M1609.043,85.683c0-.254,0-.509,0-.763,0-.089-.027-.121-.116-.116-.13.006-.261,0-.391,0-.078,0-.118-.022-.107-.1a.107.107,0,0,0,0-.019c-.022-.473-.022-.479.457-.476.139,0,.164-.048.158-.171-.009-.217,0-.434,0-.651,0-.092.028-.117.116-.113.179.009.406-.055.523.032s.031.324.033.5c.005.4,0,.4.4.4.186,0,.372,0,.559,0,.093,0,.126.018.128.121.013.483.017.483-.471.483-.168,0-.335,0-.5,0-.09,0-.117.026-.116.115,0,.447,0,.894.007,1.34a.406.406,0,0,0,.482.435.876.876,0,0,0,.4-.09c.107-.061.165-.056.188.077a1.239,1.239,0,0,0,.056.176c.091.277.091.276-.2.376a1.579,1.579,0,0,1-.786.085.868.868,0,0,1-.806-.89c-.014-.247,0-.5,0-.744Z" transform="translate(-1594.081 -58.438)" fill="#030303"/>
      <path id="Path_1208" data-name="Path 1208" d="M1640.008,88.009a1.572,1.572,0,0,1,1.86-1.584,1.645,1.645,0,0,1,.761.27c.076.053.1.1.037.177a.245.245,0,0,0-.018.032c-.072.123-.117.292-.224.355s-.236-.1-.363-.149a1.011,1.011,0,0,0-1.18.276,1.126,1.126,0,0,0-.017,1.257,1,1,0,0,0,1.26.247c.1-.046.2-.176.283-.135s.13.186.19.287c.143.241.142.241-.105.378a1.66,1.66,0,0,1-2.457-1.1C1640.017,88.221,1640.017,88.114,1640.008,88.009Z" transform="translate(-1616.932 -60.718)" fill="#040404"/>
      <path id="Path_1209" data-name="Path 1209" d="M1666.364,86.823a1.067,1.067,0,0,1,1.087-.39c.107.011.138.053.094.151a.439.439,0,0,0-.02.052c-.042.142-.046.322-.138.416s-.262-.02-.4-.02a.591.591,0,0,0-.631.573c-.054.444-.013.892-.024,1.338,0,.031,0,.062,0,.093,0,.166.058.4-.027.483-.109.112-.339.022-.516.037-.092.008-.131-.018-.13-.121q.005-1.414,0-2.827c0-.087.022-.126.114-.117.061.006.124,0,.186,0a.84.84,0,0,1,.331.01C1666.4,86.553,1666.291,86.7,1666.364,86.823Z" transform="translate(-1635.488 -60.726)" fill="#040404"/>
      <path id="Path_1210" data-name="Path 1210" d="M1632.937,86.856a1.059,1.059,0,0,1,1.094-.423c.11.01.157.048.1.16a.613.613,0,0,0-.028.088c-.04.13-.043.3-.129.38s-.242-.022-.371-.027a.594.594,0,0,0-.655.524,3.761,3.761,0,0,0-.029.686c0,.39-.005.781,0,1.171,0,.116-.03.151-.145.143a3.1,3.1,0,0,0-.409,0c-.1.006-.124-.033-.123-.128q0-1.4,0-2.808c0-.108.034-.143.137-.132a2.014,2.014,0,0,0,.2,0C1632.911,86.492,1632.911,86.492,1632.937,86.856Z" transform="translate(-1611.319 -60.726)" fill="#040404"/>
    </g>
  </g>
</svg>
