<svg xmlns="http://www.w3.org/2000/svg" xmlns:xlink="http://www.w3.org/1999/xlink" width="697.938" height="564.192" viewBox="0 0 697.938 564.192">
  <defs>
    <linearGradient id="linear-gradient" x1="-27.242" y1="0.255" x2="-26.085" y2="0.255" gradientUnits="objectBoundingBox">
      <stop offset="0" stop-color="#7bdaff"/>
      <stop offset="1" stop-color="#59bdef"/>
    </linearGradient>
    <linearGradient id="linear-gradient-2" x1="-26.842" y1="-0.097" x2="-25.697" y2="-0.097" xlink:href="#linear-gradient"/>
    <linearGradient id="linear-gradient-3" x1="-57.594" y1="0.561" x2="-58.723" y2="-0.202" gradientUnits="objectBoundingBox">
      <stop offset="0.768" stop-color="#59bdef"/>
      <stop offset="0.845" stop-color="#54b8eb"/>
      <stop offset="0.932" stop-color="#48aae1"/>
      <stop offset="1" stop-color="#3a9bd5"/>
    </linearGradient>
    <linearGradient id="linear-gradient-4" x1="-26.259" y1="-0.129" x2="-25.118" y2="-0.129" xlink:href="#linear-gradient"/>
  </defs>
  <g id="Group_572" data-name="Group 572" transform="translate(-5472.975 -6367.5)">
    <g id="Group_544" data-name="Group 544" transform="translate(5472.975 6367.5)">
      <g id="Group_537" data-name="Group 537" transform="translate(0 27.727)">
        <g id="Group_534" data-name="Group 534">
          <path id="Path_619" data-name="Path 619" d="M734.432,285.044h0l0,0c.111-.21.227-.421.344-.631.08-.151.168-.3.247-.446s.173-.31.264-.463c3.139-5.61,7.561-10.151,12.642-12.369l1.436-.626h0l174.589-76.133,174.589-76.13h0l1.436-.628c5.084-2.215,9.878-1.692,13.626.916.106.065.2.139.307.2s.2.142.3.219l20.225,14.922-13.071,3.881,17.342,234.366a32.707,32.707,0,0,1-4.424,18.059c-.082.162-.173.316-.259.472s-.165.3-.25.441c-3.142,5.613-7.564,10.157-12.645,12.372L772.921,555.311l1.385,14.74-19.156-14.189c-.1-.074-.2-.139-.3-.216-3.756-2.59-6.293-7.148-6.739-13.2L730.355,302.477A32.45,32.45,0,0,1,734.432,285.044Z" transform="translate(-730.284 -116.224)" fill="#fff"/>
          <g id="Group_533" data-name="Group 533" transform="translate(19.867 14.691)">
            <path id="Path_620" data-name="Path 620" d="M776,562.162l352.053-153.516c10.646-4.643,18.459-19.443,17.45-33.058L1128,139.035c-1.007-13.614-10.455-20.885-21.1-16.244L754.85,276.31c-10.646,4.64-18.46,19.441-17.453,33.055l17.5,236.553C755.908,559.532,765.357,566.805,776,562.162Z" transform="translate(-737.199 -121.391)" fill="url(#linear-gradient)"/>
            <path id="Path_621" data-name="Path 621" d="M756.358,225.011l174.589-76.133,20.578,278.081-174.012,83.9c-11.442,4.99-21.477-1.237-22.412-13.9l-17.76-239.976C736.406,244.315,744.919,230,756.358,225.011Z" transform="translate(-737.271 -70.72)" fill="#f9d142"/>
            <path id="Path_622" data-name="Path 622" d="M979.971,123.22,805.385,199.35l20.447,276.335,175.294-66.613c11.439-4.987,19.953-19.3,19.017-31.971l-17.76-239.973C1001.448,124.457,991.413,118.23,979.971,123.22Z" transform="translate(-611.709 -121.192)" fill="#e8c136"/>
            <path id="Path_623" data-name="Path 623" d="M1125.966,274.688c-3.443,6.412-8.755,11.843-14.937,14.538L761.851,441.489c-6.181,2.7-11.94,2.1-16.085-1.007L923.207,186.511Z" transform="translate(-721.612 -1.346)" fill="#deb41d"/>
            <path id="Path_624" data-name="Path 624" d="M738.731,290.014c3.443-6.412,8.755-11.843,14.937-14.538l349.178-152.262c6.182-2.7,11.939-2.093,16.085,1.009L941.49,378.192Z" transform="translate(-734.58 -121.185)" fill="#f9d142"/>
          </g>
        </g>
        <g id="Group_536" data-name="Group 536" transform="translate(95.748 2.481)">
          <path id="Path_625" data-name="Path 625" d="M767.239,329.069h0l0,0c.106-.236.211-.472.321-.708.074-.168.154-.333.228-.5s.162-.347.247-.52c2.92-6.29,7.308-11.539,12.594-14.337l1.5-.79h0l181.635-96.136L1145.4,119.938h0l1.5-.79c5.289-2.8,10.489-2.627,14.735-.125.119.06.23.131.347.193s.23.136.344.21l22.978,14.408-13.748,5.24L1209.3,389.816a35.284,35.284,0,0,1-3.287,19.79c-.077.179-.162.353-.242.529s-.153.33-.233.492c-2.923,6.3-7.307,11.544-12.6,14.345L830.674,616.713l2.69,15.744-21.764-13.7c-.114-.071-.23-.134-.341-.208-4.254-2.482-7.353-7.177-8.326-13.648L764.274,348.157A35.05,35.05,0,0,1,767.239,329.069Z" transform="translate(-763.958 -117.097)" fill="#fff"/>
          <g id="Group_535" data-name="Group 535" transform="translate(22.572 14.184)">
            <path id="Path_626" data-name="Path 626" d="M834.494,623.829l366.261-193.856c11.075-5.863,18.278-22.423,16.082-36.987l-38.107-253.079c-2.192-14.567-12.949-21.621-24.024-15.758L788.442,318c-11.075,5.863-18.275,22.423-16.082,36.987l38.108,253.082C812.662,622.635,823.419,629.69,834.494,623.829Z" transform="translate(-771.766 -122.085)" fill="url(#linear-gradient-2)"/>
            <path id="Path_627" data-name="Path 627" d="M790.068,253.035,971.7,156.9l44.8,297.507L836.12,558.859c-11.9,6.3-23.2.418-25.247-13.137L772.214,288.984C770.173,275.43,778.168,259.333,790.068,253.035Z" transform="translate(-771.896 -57.908)" fill="#e8c136"/>
            <path id="Path_628" data-name="Path 628" d="M1023.8,124.727,842.166,220.863,886.685,516.5l183.168-85.951c11.9-6.3,19.9-22.392,17.854-35.946l-38.659-256.741C1047.006,124.309,1035.7,118.429,1023.8,124.727Z" transform="translate(-642.359 -121.873)" fill="url(#linear-gradient-3)"/>
            <path id="Path_629" data-name="Path 629" d="M1183.913,275.509c-3.182,7.18-8.454,13.455-14.885,16.859L805.757,484.64c-6.432,3.406-12.676,3.224-17.39.225l170.213-287.7Z" transform="translate(-741.533 16.312)" fill="#deb41d"/>
            <path id="Path_630" data-name="Path 630" d="M773.052,333.849c3.182-7.18,8.454-13.455,14.885-16.859L1151.21,124.719c6.432-3.4,12.676-3.224,17.39-.225L998.385,412.2Z" transform="translate(-769.765 -121.864)" fill="#f9d142"/>
          </g>
        </g>
      </g>
      <g id="Group_539" data-name="Group 539" transform="translate(196.516)">
        <path id="Path_631" data-name="Path 631" d="M802.334,347.565h0l0,0c.1-.256.207-.509.313-.765.074-.182.151-.361.225-.543s.159-.375.242-.563c2.863-6.816,7.33-12.579,12.852-15.77l1.561-.9h0l189.716-109.574,189.716-109.574h0l1.561-.9c5.522-3.19,11.072-3.21,15.693-.714.128.06.25.131.378.193s.25.134.372.21l25.048,14.442-14.442,6.128,50.1,265.635a37.628,37.628,0,0,1-2.724,21.215c-.074.193-.157.378-.236.572-.077.176-.148.358-.23.534-2.863,6.821-7.33,12.585-12.852,15.775L881.245,651.507l3.486,16.665-23.725-13.739c-.122-.071-.25-.134-.37-.208-4.629-2.479-8.115-7.359-9.409-14.211l-51.3-271.993A37.359,37.359,0,0,1,802.334,347.565Z" transform="translate(-799.397 -106.472)" fill="#fff"/>
        <g id="Group_538" data-name="Group 538" transform="translate(24.606 14.219)">
          <path id="Path_632" data-name="Path 632" d="M885.578,658.931,1268.136,437.98c11.567-6.682,18.587-24.607,15.676-40.038l-50.57-268.115c-2.909-15.428-14.647-22.52-26.217-15.841L824.471,334.94c-11.57,6.682-18.587,24.607-15.679,40.035l50.57,268.115C862.274,658.522,874.012,665.613,885.578,658.931Z" transform="translate(-807.895 -111.473)" fill="url(#linear-gradient-4)"/>
          <path id="Path_633" data-name="Path 633" d="M826.187,260.782,1015.9,151.211l59.448,315.179L887.3,584.776c-12.431,7.18-24.707,1.359-27.413-13l-51.3-271.993C805.874,285.423,813.756,267.962,826.187,260.782Z" transform="translate(-808.05 -38.219)" fill="#e8c136"/>
          <path id="Path_634" data-name="Path 634" d="M1070.866,114.669,881.15,224.243l59.075,313.2,191.749-98.786c12.432-7.18,20.313-24.641,17.606-39l-51.3-271.993C1095.57,113.307,1083.3,107.489,1070.866,114.669Z" transform="translate(-673.297 -111.251)" fill="#e8c136"/>
          <path id="Path_635" data-name="Path 635" d="M1242.552,268.456c-3.108,7.774-8.476,14.666-15.2,18.545L847.924,506.149c-6.716,3.881-13.375,3.935-18.516.924l170-313.209Z" transform="translate(-768.679 40.408)" fill="#deb41d"/>
          <path id="Path_636" data-name="Path 636" d="M809.085,352.352c3.108-7.774,8.476-14.666,15.2-18.548l379.432-219.145c6.719-3.881,13.375-3.935,18.516-.927l-170,313.212Z" transform="translate(-806.143 -111.241)" fill="#f9d142"/>
        </g>
      </g>
    </g>
    <g id="Group_571" data-name="Group 571" transform="translate(5814.135 6504.672)">
      <g id="Group_564" data-name="Group 564" transform="translate(51.974 10.703)">
        <g id="Group_559" data-name="Group 559" transform="translate(0 41.766)">
          <path id="Path_648" data-name="Path 648" d="M18.8,21.315l-3.329,1.911,4.14,9.018-7,4.02L0,8.82,12.259,1.781C18.085-1.566,24.7-.06,27.1,5.156c1.545,3.372.674,7.741-1.993,11.208L36.258,22.7l-7.537,4.327ZM12.95,17.739,18.2,14.72a4.391,4.391,0,0,0,1.887-5.54,3.525,3.525,0,0,0-5.128-1.513L9.709,10.686Z" transform="translate(0 0)" fill="#d9b535"/>
        </g>
        <g id="Group_560" data-name="Group 560" transform="translate(26.493 32.009)">
          <path id="Path_649" data-name="Path 649" d="M.846,7.264C-1.087,5.105.476,1.2,3.671.207a3.809,3.809,0,0,1,4,.9c1.936,2.155.371,6.066-2.825,7.053A3.808,3.808,0,0,1,.846,7.264Zm2.543,4.07L9.962,7.56,18.97,27.168,12.4,30.945Z" transform="translate(0 0)" fill="#d9b535"/>
        </g>
        <g id="Group_561" data-name="Group 561" transform="translate(38.405 24.867)">
          <path id="Path_650" data-name="Path 650" d="M23.657,0l.9,24.264-7.445,4.274L0,13.585,7.269,9.409l10.27,9.811L16.385,4.172Z" fill="#d9b535"/>
        </g>
        <g id="Group_562" data-name="Group 562" transform="translate(65.539 15.705)">
          <path id="Path_651" data-name="Path 651" d="M15.589,17.043a7.826,7.826,0,0,0,3.523-3.9l6.5-.31c-.917,3.9-3.526,7.131-7.7,9.522-7.484,4.3-14.206,2.455-16.886-3.389S1,5.9,7.922,1.925C14.319-1.747,21.08-.026,23.8,5.9a10.912,10.912,0,0,1,.811,2.5L9.061,17.326C10.842,18.87,13.183,18.426,15.589,17.043Zm.744-9.455c-1.742-1.88-4.094-1.562-6.069-.427C7.77,8.593,6.6,10.653,6.913,13Z" transform="translate(0 0)" fill="#d9b535"/>
        </g>
        <g id="Group_563" data-name="Group 563" transform="translate(85.705 0)">
          <path id="Path_652" data-name="Path 652" d="M12.675,11.148l3.188,6.94c.776,1.689,2.469.917,5.283-.9L23.6,22.521c-8.228,5.713-11.786,4.831-14.308-.66L6.1,14.921,2.592,16.935,0,11.289,3.505,9.275,1.792,5.544,7.55,0l2.521,5.488L14.583,2.9l2.592,5.65-4.507,2.589Z" transform="translate(0)" fill="#d9b535"/>
        </g>
      </g>
      <g id="Group_569" data-name="Group 569" transform="translate(0 69.031)">
        <g id="Group_565" data-name="Group 565" transform="translate(10.637 0)">
          <path id="Path_653" data-name="Path 653" d="M33.37,0a3.723,3.723,0,0,0-.995.169,3.853,3.853,0,0,0-1.735,1.2L26.141,6.8c-1.15-.829-2.095-1.562-2.8-2.13a2.627,2.627,0,0,0-2.13-.494,3.7,3.7,0,0,0-2.155,1.234A181.171,181.171,0,0,1,1.285,23.072,3.687,3.687,0,0,0,.026,25.315,2.477,2.477,0,0,0,.71,27.459c6.838,6.665,12.96,8.425,15.87,8.873.275.042.515.078.733.1a3.34,3.34,0,0,0,2.014-.455,3.506,3.506,0,0,0,.9-.719l2.039-2.187L36.791,17.517a3.62,3.62,0,0,0,.959-2.028,30.537,30.537,0,0,0-.123-3.929,42.228,42.228,0,0,0-2-10.263A2.232,2.232,0,0,0,33.37,0Zm.9,16.212a.982.982,0,0,1-.3.734L18.156,33.666a1.045,1.045,0,0,1-.861.321C15.282,33.712,9.188,31.98,3.3,26.514c-.4-.374-.007-1.129.586-1.125a32.791,32.791,0,0,0,10.15-2.257,3.6,3.6,0,0,0,.462-.212,4.242,4.242,0,0,0,1.785-2.285c1.054-2.684,2.832-8.189,4.3-12.8a.714.714,0,0,1,1.065-.427,77.368,77.368,0,0,0,12.237,8.21A.716.716,0,0,1,34.273,16.212Z" transform="translate(0)" fill="#d9b535"/>
        </g>
        <g id="Group_566" data-name="Group 566" transform="translate(0 32.341)">
          <path id="Path_654" data-name="Path 654" d="M1.917,13.922a1.352,1.352,0,0,1-1.5-.018A1.309,1.309,0,0,1,.393,12L10.106.6a1.494,1.494,0,0,1,1.971-.37,1.309,1.309,0,0,1,.028,1.9L2.393,13.531A2.148,2.148,0,0,1,1.917,13.922Z" transform="translate(0 0)" fill="#d9b535"/>
        </g>
        <g id="Group_567" data-name="Group 567" transform="translate(2.874 36.679)">
          <path id="Path_655" data-name="Path 655" d="M1.921,14.98a1.366,1.366,0,0,1-1.5-.014,1.3,1.3,0,0,1-.039-1.9L10.925.609A1.493,1.493,0,0,1,12.892.225a1.3,1.3,0,0,1,.039,1.9L2.4,14.592A1.777,1.777,0,0,1,1.921,14.98Z" transform="translate(0 0)" fill="#d9b535"/>
        </g>
        <g id="Group_568" data-name="Group 568" transform="translate(13.062 37.887)">
          <path id="Path_656" data-name="Path 656" d="M1.925,10.316a1.368,1.368,0,0,1-1.492,0A1.3,1.3,0,0,1,.38,8.419l6.5-7.8A1.488,1.488,0,0,1,8.844.223a1.3,1.3,0,0,1,.049,1.89l-6.5,7.8A1.772,1.772,0,0,1,1.925,10.316Z" transform="translate(0 0)" fill="#d9b535"/>
        </g>
      </g>
      <g id="Group_570" data-name="Group 570" transform="translate(151.134 0)">
        <path id="Path_657" data-name="Path 657" d="M4.447,1.054l-1.368.783L4.793,5.569l-1.213.7L1.866,2.536.483,3.329,0,2.275,3.964,0Z" transform="translate(0 3.576)" fill="#d9b535"/>
        <path id="Path_658" data-name="Path 658" d="M7.526,4.768l-1.217.7L5.033,2.687,4.585,5.512l-.138.078L2.134,4.352,3.41,7.131l-1.217.7L0,3.054l1.217-.7L3.636,3.65,4.105.7,5.318,0,7.512,4.775Z" transform="translate(4.891 0)" fill="#d9b535"/>
      </g>
    </g>
  </g>
</svg>
