<svg xmlns="http://www.w3.org/2000/svg" width="97.737" height="97.738" viewBox="0 0 97.737 97.738"><defs><style>.a{fill:#023047;}</style></defs><g transform="translate(10.308 0)"><path class="a" d="M140.466.251a1.909,1.909,0,0,0-1.918.015L103.566,20.951a1.909,1.909,0,1,0,1.943,3.286L130.608,9.4,83.857,57.9,60.605,50.791,90.95,32.847a1.909,1.909,0,0,0-1.943-3.286L54.937,49.707a1.909,1.909,0,0,0,.413,3.469l27.769,8.5L95.37,83.97a.453.453,0,0,0,.04.06,1.9,1.9,0,0,0,2.968.386l14.087-13.767,26.5,8.106a1.909,1.909,0,0,0,2.467-1.825V1.909A1.909,1.909,0,0,0,140.466.251Zm-44.992,62.6a1.91,1.91,0,0,0-.34,1.087V75.612L86.769,60.385l37.018-38.41Zm3.478,15.668v-12l9.352,2.861Zm38.659-4.166L100.1,62.874l37.51-54.149Z" transform="translate(-53.999 0)"/></g><g transform="translate(10.308 65.791)"><path class="a" d="M75.078,345.207a1.909,1.909,0,0,0-2.7,0l-17.82,17.82a1.909,1.909,0,0,0,2.7,2.7l17.82-17.82A1.909,1.909,0,0,0,75.078,345.207Z" transform="translate(-53.999 -344.648)"/></g><g transform="translate(0 89.529)"><path class="a" d="M7.65,469.56a1.91,1.91,0,0,0-2.7,0L.559,473.95a1.909,1.909,0,0,0,2.7,2.7l4.391-4.391A1.909,1.909,0,0,0,7.65,469.56Z" transform="translate(0 -469.001)"/></g><g transform="translate(23.972 93.807)"><path class="a" d="M128.838,491.969a1.908,1.908,0,1,0,.56,1.35A1.923,1.923,0,0,0,128.838,491.969Z" transform="translate(-125.58 -491.41)"/></g><g transform="translate(28.736 79.604)"><path class="a" d="M163.232,417.565a1.909,1.909,0,0,0-2.7,0L151.093,427a1.909,1.909,0,1,0,2.7,2.7l9.439-9.439A1.909,1.909,0,0,0,163.232,417.565Z" transform="translate(-150.534 -417.006)"/></g><g transform="translate(61.287 78.879)"><path class="a" d="M333.776,413.77a1.909,1.909,0,0,0-2.7,0l-9.465,9.464a1.909,1.909,0,1,0,2.7,2.7l9.465-9.465A1.909,1.909,0,0,0,333.776,413.77Z" transform="translate(-321.053 -413.211)"/></g><g transform="translate(50.86 25.461)"><path class="a" d="M269.689,133.939a1.908,1.908,0,1,0,.559,1.352A1.923,1.923,0,0,0,269.689,133.939Z" transform="translate(-266.43 -133.38)"/></g></svg>