<svg xmlns="http://www.w3.org/2000/svg" width="98.498" height="98.499" viewBox="0 0 98.498 98.499">
  <g id="pay" transform="translate(0.25 0.25)">
    <path id="Path_665" data-name="Path 665" d="M134.656,325.286l-4.16-2.492a8.184,8.184,0,0,0-4.2-1.16h-6.26a14.776,14.776,0,0,0-3.8.49L97.38,327.187a6.578,6.578,0,0,0-4.441,4.119L76.347,322.33a6.5,6.5,0,0,0-4.441-.734,6.129,6.129,0,0,0-1.652.542,6.421,6.421,0,0,0-2.806,2.613,6.545,6.545,0,0,0-.864,3.25,6.472,6.472,0,0,0,3.228,5.65L99.55,351.443a8.165,8.165,0,0,0,4.3,1.223h23.013a8.142,8.142,0,0,0,3-.572l4.792-1.892v2.464h16.333V320H134.656Zm-5.993,23.772a4.913,4.913,0,0,1-1.8.343H103.849a4.914,4.914,0,0,1-2.6-.748L71.47,330.84A3.249,3.249,0,0,1,69.846,328a3.318,3.318,0,0,1,.438-1.633,3.211,3.211,0,0,1,1.4-1.3,3.078,3.078,0,0,1,.817-.265,3.439,3.439,0,0,1,.626-.058,3.2,3.2,0,0,1,1.6.424L92.721,334.9c.021.1.021.2.047.3a6.55,6.55,0,0,0,6.315,4.835,16.051,16.051,0,0,0,2.692-.48l16.969-4.541-.842-3.156-16.914,4.521c-.745.171-1.706.368-1.9.384a3.267,3.267,0,0,1-3.157-2.406,2.982,2.982,0,0,1-.095-.6s-.013-.4,0-.534a3.3,3.3,0,0,1,2.4-2.881l18.855-5.044a11.415,11.415,0,0,1,2.951-.388h6.26a4.9,4.9,0,0,1,2.517.7l5.839,3.5v17.6Zm9.259-25.79h9.8V349.4h-9.8Zm0,0" transform="translate(-52.991 -254.668)" fill="#023047" stroke="#023047" stroke-width="0.5"/>
    <path id="Path_666" data-name="Path 666" d="M67.364,13.066,58.6,4.306A14.6,14.6,0,0,0,48.209,0H27.674a8.222,8.222,0,0,0-3.652.862L20.362,2.693a4.841,4.841,0,0,1-2.369.513l-1.66-.058V0H0V35.933H16.333v-4.9H19.11l.988.653a18.007,18.007,0,0,0,9.3,2.994V55.532H98V13.066Zm-54.3,19.6h-9.8V3.266h9.8Zm8.84-3.7-1.817-1.2H16.333V6.416l1.54.055a8.2,8.2,0,0,0,3.949-.856L25.48,3.784a4.909,4.909,0,0,1,2.195-.518H48.209a11.356,11.356,0,0,1,8.084,3.348l6.452,6.452H49.267L45.3,9.1l-2.309,2.309L54.531,22.95a3.275,3.275,0,0,1-4.622,4.642l-9.636-9.636-1.144.98A8.657,8.657,0,0,1,28.12,19.1l-.947-.767-2.058,2.538.957.776A11.906,11.906,0,0,0,29.4,23.519v7.892a14.729,14.729,0,0,1-7.493-2.444ZM45.14,27.439,47.6,29.9a6.58,6.58,0,0,0,9.228.008,8.268,8.268,0,1,0,.928-1.184,6.424,6.424,0,0,0,.535-5.862H80.168A9.827,9.827,0,0,0,88.2,30.9v6.8a9.827,9.827,0,0,0-8.031,8.031H47.23A9.827,9.827,0,0,0,39.2,37.7V30.9a9.75,9.75,0,0,0,5.941-3.458ZM58.8,34.3a4.9,4.9,0,1,1,4.9,4.9A4.9,4.9,0,0,1,58.8,34.3ZM94.732,52.266H32.666V24.2a11.876,11.876,0,0,0,7.35-1.878L42.8,25.112a6.517,6.517,0,0,1-5.236,2.654H35.933V40.832h1.633A6.534,6.534,0,0,1,44.1,47.366V49H83.3V47.366a6.534,6.534,0,0,1,6.533-6.533h1.633V27.766H89.832A6.534,6.534,0,0,1,83.3,21.233V19.6H55.8l-3.267-3.267h42.2Zm0,0" transform="translate(0 0)" fill="#023047" stroke="#023047" stroke-width="0.5"/>
  </g>
</svg>
