<svg xmlns="http://www.w3.org/2000/svg" width="268.195" height="38.254" viewBox="0 0 268.195 38.254">
  <g id="Group_665" data-name="Group 665" transform="translate(-4659 -4601.334)">
    <g id="Group_658" data-name="Group 658" transform="translate(4733 4608.283)">
      <path id="Path_1182" data-name="Path 1182" d="M1135.323,31.974v.187c-1.781,0-3.561-.005-5.342.007-.228,0-.3-.073-.341-.28-.2-1-.416-1.994-.606-2.995-.041-.217-.13-.26-.328-.259q-3.624.008-7.248,0a.334.334,0,0,0-.381.262c-.349,1-.721,1.994-1.067,2.995a.351.351,0,0,1-.4.278q-2.874-.014-5.748,0c-.309,0-.308-.08-.206-.324q4.426-10.55,8.834-21.108a3.058,3.058,0,0,1,3.082-2.074c1.489,0,2.978.009,4.467-.011.313,0,.416.1.475.39.375,1.865.77,3.726,1.158,5.588q1.609,7.724,3.22,15.446A15.937,15.937,0,0,0,1135.323,31.974Zm-9.161-16.945-3.219,8.78a.462.462,0,0,0,.091.027c1.572,0,3.143,0,4.715.007.285,0,.2-.154.167-.3C1127.336,20.731,1126.758,17.922,1126.162,15.029Z" transform="translate(-1060.342 -8.23)" fill="#31589b"/>
      <path id="Path_1183" data-name="Path 1183" d="M1081.3,7.5a6.046,6.046,0,0,0,1.15.18,16.236,16.236,0,0,1,2.832.729.258.258,0,0,1,.2.345q-.378,2.292-.745,4.585c-.034.211-.1.217-.279.132a10.569,10.569,0,0,0-5.2-1.034,4.226,4.226,0,0,0-2.41.729,1.484,1.484,0,0,0-.168,2.432,4.547,4.547,0,0,0,.684.542,20.905,20.905,0,0,0,2.237,1.235,12.3,12.3,0,0,1,3.383,2.311,5.665,5.665,0,0,1,1.6,4.946c-.415,3.158-2.327,5.093-5.174,6.237a13.8,13.8,0,0,1-4.069.873c-.095.008-.211-.049-.283.065h-.313a4.274,4.274,0,0,0-1.187,0h-.312a3.931,3.931,0,0,0-1-.121,18.838,18.838,0,0,1-4.588-1c-.287-.106-.358-.223-.3-.537.271-1.536.513-3.077.749-4.618.038-.248.1-.257.307-.16a13.933,13.933,0,0,0,3.539,1.273,9.623,9.623,0,0,0,4.452-.028,3.04,3.04,0,0,0,1.387-.807,1.72,1.72,0,0,0,.088-2.354,5.028,5.028,0,0,0-1.393-1.092c-.976-.577-2.028-1.011-2.99-1.614a9.443,9.443,0,0,1-2.488-2.11,5.64,5.64,0,0,1-.7-5.84,7.531,7.531,0,0,1,4.03-4.106,12.642,12.642,0,0,1,4.195-1.126c.075-.008.172.034.22-.068Z" transform="translate(-1030.996 -7.5)" fill="#31589b"/>
      <path id="Path_1184" data-name="Path 1184" d="M968,8.987c.044-.3.243-.326.5-.325q4.574.013,9.148,0a5.12,5.12,0,0,1,1.055.091,2.284,2.284,0,0,1,1.917,1.924q.691,3.469,1.371,6.94.3,1.513.6,3.027a.9.9,0,0,1,.032.4.6.6,0,0,1-.066-.1,18.235,18.235,0,0,0-5.162-7.093,17.472,17.472,0,0,0-3-2.111,21.366,21.366,0,0,0-3.81-1.806,23.287,23.287,0,0,0-2.339-.733,1.835,1.835,0,0,0-.243-.03Z" transform="translate(-968 -8.237)" fill="#e4a431"/>
      <path id="Path_1185" data-name="Path 1185" d="M1084.337,73.882a4.274,4.274,0,0,1,1.187,0Z" transform="translate(-1041.786 -49.576)" fill="#31589b"/>
      <path id="Path_1186" data-name="Path 1186" d="M985.476,11.741a17.472,17.472,0,0,1,3,2.111,18.235,18.235,0,0,1,5.162,7.093.6.6,0,0,0,.066.1l0,0a.187.187,0,0,0,.062.184l.7,3.364c.118-.08.124-.212.164-.321q2.845-7.654,5.679-15.311a.371.371,0,0,1,.415-.3c1.936.011,3.873.006,5.809.008a.456.456,0,0,1,.292.042q-.512,1.265-1.026,2.534-4.18,10.279-8.355,20.56a.466.466,0,0,1-.515.354c-1.905-.017-3.811-.014-5.716,0-.249,0-.357-.058-.425-.314Q988.145,21.787,985.476,11.741Z" transform="translate(-979.084 -8.234)" fill="#31589b"/>
      <path id="Path_1187" data-name="Path 1187" d="M1043.294,32.169c-.916,0-1.832-.006-2.748,0-.223,0-.272-.042-.234-.277.563-3.436,1.113-6.874,1.669-10.312q.7-4.34,1.41-8.679c.215-1.324.433-2.647.634-3.972.032-.211.1-.272.309-.271q2.779.012,5.558,0c.212,0,.25.05.215.261-.4,2.4-.779,4.8-1.167,7.2q-.67,4.155-1.343,8.311-.6,3.74-1.2,7.481c-.033.208-.121.258-.324.255C1045.147,32.162,1044.221,32.169,1043.294,32.169Z" transform="translate(-1013.856 -8.238)" fill="#31589b"/>
      <path id="Path_1188" data-name="Path 1188" d="M1008.038,42.7a.187.187,0,0,1-.062-.184C1008.07,42.549,1008.025,42.632,1008.038,42.7Z" transform="translate(-993.353 -29.706)" fill="#e4a431"/>
    </g>
    <g id="Group_660" data-name="Group 660" transform="translate(4833.195 4608.283)">
      <path id="Path_1189" data-name="Path 1189" d="M1415.952,22.294h-5.073a.99.99,0,0,0-.746.6l-2.089,13.13a.4.4,0,0,0,.448.447h2.686a.4.4,0,0,0,.448-.447l.6-3.73a.683.683,0,0,1,.746-.6h1.642q5.147,0,5.819-4.924a3.911,3.911,0,0,0-.6-3.283,6.017,6.017,0,0,0-3.879-1.194m.6,4.924c-.3,1.791-1.641,1.791-2.984,1.791h-.9l.6-3.432c0-.149.149-.3.448-.3h.3c.9,0,1.79,0,2.238.6.3.149.3.6.3,1.343" transform="translate(-1343.288 -16.027)" fill="#5898d2"/>
      <g id="Group_659" data-name="Group 659" transform="translate(28.2 6.267)">
        <path id="Path_1190" data-name="Path 1190" d="M1316.008,22.294h-5.073a.992.992,0,0,0-.746.6l-2.089,13.13a.4.4,0,0,0,.448.447h2.387a.99.99,0,0,0,.746-.6l.6-3.581a.683.683,0,0,1,.746-.6h1.641q5.148,0,5.819-4.924a3.911,3.911,0,0,0-.6-3.283,5.734,5.734,0,0,0-3.879-1.194m.6,4.924c-.3,1.791-1.641,1.791-2.984,1.791h-.746l.6-3.432c0-.149.149-.3.448-.3h.3c.9,0,1.791,0,2.238.6a1.6,1.6,0,0,1,.149,1.343" transform="translate(-1308.1 -22.294)" fill="#313d7d"/>
        <path id="Path_1191" data-name="Path 1191" d="M1351.654,34.831h-2.387c-.149,0-.448.149-.448.3l-.149.746-.149-.3a3.508,3.508,0,0,0-2.835-1.044,5.733,5.733,0,0,0-5.521,4.924,4.447,4.447,0,0,0,.9,3.73,3.76,3.76,0,0,0,3.133,1.193,4.77,4.77,0,0,0,3.432-1.343l-.149.746a.4.4,0,0,0,.448.447h2.238a.99.99,0,0,0,.746-.6l1.343-8.356c-.149-.149-.448-.448-.6-.448m-3.432,4.775a2.886,2.886,0,0,1-2.835,2.387,2.388,2.388,0,0,1-1.642-.6,3.185,3.185,0,0,1-.447-1.791,2.661,2.661,0,0,1,4.327-1.79,2.6,2.6,0,0,1,.6,1.79" transform="translate(-1328.378 -30.056)" fill="#313d7d"/>
      </g>
      <path id="Path_1192" data-name="Path 1192" d="M1451.191,34.831H1448.8c-.149,0-.448.149-.448.3l-.149.746-.149-.3a3.51,3.51,0,0,0-2.835-1.044,5.733,5.733,0,0,0-5.52,4.924,4.447,4.447,0,0,0,.9,3.73,3.761,3.761,0,0,0,3.133,1.193,4.769,4.769,0,0,0,3.432-1.343l-.149.746a.4.4,0,0,0,.448.447h2.238a.991.991,0,0,0,.746-.6l1.343-8.356c-.149-.149-.3-.448-.6-.448m-3.432,4.775a2.886,2.886,0,0,1-2.835,2.387,2.388,2.388,0,0,1-1.641-.6,3.182,3.182,0,0,1-.448-1.791,2.661,2.661,0,0,1,4.327-1.79,1.712,1.712,0,0,1,.6,1.79" transform="translate(-1363.308 -23.79)" fill="#5898d2"/>
      <path id="Path_1193" data-name="Path 1193" d="M1387.306,35.348h-2.536a.775.775,0,0,0-.6.3l-3.283,5.073-1.492-4.775a.689.689,0,0,0-.746-.448h-2.387c-.3,0-.448.3-.448.6L1378.5,44l-2.536,3.581c-.149.3,0,.746.3.746h2.387a.775.775,0,0,0,.6-.3l8.207-11.787c.447-.448.149-.9-.149-.9" transform="translate(-1322.849 -24.307)" fill="#313d7d"/>
      <path id="Path_1194" data-name="Path 1194" d="M1475.4,22.9l-2.089,13.429a.4.4,0,0,0,.448.447h2.089a.992.992,0,0,0,.746-.6l2.089-13.13a.4.4,0,0,0-.448-.448h-2.387c-.149-.149-.3,0-.448.3" transform="translate(-1384.685 -16.185)" fill="#5898d2"/>
      <path id="Path_1195" data-name="Path 1195" d="M1248.159,6.951c-1.045-1.193-2.984-1.79-5.67-1.79h-7.46a1.28,1.28,0,0,0-1.044.9L1231,25.6a.683.683,0,0,0,.6.746h4.625l1.193-7.311v.3a1.28,1.28,0,0,1,1.045-.9h2.238c4.327,0,7.61-1.79,8.654-6.714v-.447h0a5.212,5.212,0,0,0-1.193-4.327" transform="translate(-1231 -5.161)" fill="#313d7d"/>
      <path id="Path_1196" data-name="Path 1196" d="M1257.482,21.887h0v.447c-1.044,5.073-4.327,6.714-8.654,6.714h-2.238a1.28,1.28,0,0,0-1.045.9l-1.492,9.1a.547.547,0,0,0,.6.6h3.879a.836.836,0,0,0,.9-.746v-.149l.746-4.625v-.3a.836.836,0,0,1,.9-.746h.6c3.73,0,6.714-1.492,7.46-5.968.3-1.79.149-3.432-.746-4.476a1.527,1.527,0,0,0-.9-.746" transform="translate(-1239.279 -15.769)" fill="#5898d2"/>
      <path id="Path_1197" data-name="Path 1197" d="M1259.284,19.887c-.149,0-.3-.149-.448-.149a.548.548,0,0,1-.448-.149,7.879,7.879,0,0,0-1.94-.149h-5.819a.547.547,0,0,0-.447.149.821.821,0,0,0-.448.746l-1.194,7.759v.3a1.28,1.28,0,0,1,1.045-.9h2.238c4.327,0,7.61-1.79,8.654-6.714a.547.547,0,0,1,.149-.447c-.3-.149-.448-.3-.746-.3-.447-.149-.447-.149-.6-.149" transform="translate(-1242.125 -14.217)" fill="#2a3063"/>
    </g>
    <g id="Group_661" data-name="Group 661" transform="translate(4659 4601.333)">
      <path id="Path_1198" data-name="Path 1198" d="M1556.557,9.853V7.587c.08-.038.046-.114.052-.173a16.084,16.084,0,0,1,.258-1.775,15.217,15.217,0,0,1,12.871-12,3.855,3.855,0,0,0,.906-.136h2.167c.017.051.062.044.1.047a14.992,14.992,0,0,1,8.227,3.2,1.143,1.143,0,0,1-.117.124,14.574,14.574,0,0,0-2.406,2.448,15.174,15.174,0,0,0-3.237,8.822,15.032,15.032,0,0,0,.084,2.232,15.464,15.464,0,0,0,.587,2.853,15.12,15.12,0,0,0,2.558,4.9,12.947,12.947,0,0,0,1.816,1.931c.243.206.477.421.715.633a.22.22,0,0,1-.031.037,15.02,15.02,0,0,1-8.713,3.2,14.405,14.405,0,0,1-7.259-1.517,15.006,15.006,0,0,1-8.443-11.651A4.244,4.244,0,0,0,1556.557,9.853Z" transform="translate(-1556.557 6.5)" fill="#c80120"/>
      <path id="Path_1199" data-name="Path 1199" d="M1632.4-6.5h1.921c.049.063.12.04.183.044a12.62,12.62,0,0,1,1.73.224,14.856,14.856,0,0,1,8.917,5.327,14.83,14.83,0,0,1,3.182,12.456,14.642,14.642,0,0,1-4.663,8.385,14.924,14.924,0,0,1-9.81,4,14.744,14.744,0,0,1-6.016-1.042,14.3,14.3,0,0,1-3.819-2.2,1.032,1.032,0,0,1,.116-.125,14.022,14.022,0,0,0,2.5-2.551,15.107,15.107,0,0,0,2.478-4.8,15.605,15.605,0,0,0,.659-3.8,14.837,14.837,0,0,0-.239-3.443,15.014,15.014,0,0,0-2.175-5.488,14.242,14.242,0,0,0-2.524-2.992c-.276-.243-.545-.492-.818-.738a.192.192,0,0,1,.03-.038,15.153,15.153,0,0,1,7.262-3.074A7.53,7.53,0,0,0,1632.4-6.5Z" transform="translate(-1599.345 6.5)" fill="#e09c2f"/>
      <path id="Path_1200" data-name="Path 1200" d="M1613.757,2.388l.095,0c.272.246.542.495.818.738a14.242,14.242,0,0,1,2.524,2.992,15.016,15.016,0,0,1,2.175,5.488,14.837,14.837,0,0,1,.239,3.443,15.611,15.611,0,0,1-.659,3.8,15.112,15.112,0,0,1-2.478,4.8,14.026,14.026,0,0,1-2.5,2.551,1.041,1.041,0,0,0-.115.125l-.094,0c-.239-.211-.473-.427-.716-.633a12.946,12.946,0,0,1-1.816-1.931,15.12,15.12,0,0,1-2.558-4.9,15.464,15.464,0,0,1-.587-2.853,15.123,15.123,0,0,1,.829-6.884,15.191,15.191,0,0,1,2.325-4.17,14.578,14.578,0,0,1,2.406-2.448A1.131,1.131,0,0,0,1613.757,2.388Z" transform="translate(-1589.176 0.863)" fill="#de5f16"/>
      <path id="Path_1201" data-name="Path 1201" d="M1564.224,87a1.57,1.57,0,0,1,2.443.02c.076.119.115.08.191,0a1.816,1.816,0,0,1,2.02-.473,1.393,1.393,0,0,1,.914,1.361c.026.836.006,1.673.012,2.51,0,.115-.027.159-.149.154a5.4,5.4,0,0,0-.615,0c-.168.012-.223-.036-.22-.213.011-.631,0-1.263,0-1.895,0-.107,0-.214-.006-.32a.833.833,0,0,0-.843-.872.888.888,0,0,0-.981.826c-.064.728-.022,1.459-.021,2.189,0,.21-.033.322-.273.284-.2-.031-.468.089-.585-.05-.1-.117-.035-.375-.036-.57,0-.492,0-.985,0-1.477,0-.114,0-.23-.012-.344a.825.825,0,0,0-.877-.858.867.867,0,0,0-.949.879c-.022.729-.017,1.46-.008,2.19,0,.182-.04.25-.229.232-.21-.02-.494.068-.617-.039-.143-.125-.045-.415-.046-.632,0-1.058,0-2.117-.007-3.175,0-.174.044-.23.216-.213a2.008,2.008,0,0,0,.442,0c.2-.024.265.054.237.243A2.1,2.1,0,0,0,1564.224,87Z" transform="translate(-1560.837 -52.428)" fill="#040404"/>
      <path id="Path_1202" data-name="Path 1202" d="M1676.595,84.334c0-.667.006-1.272,0-1.876,0-.174.026-.26.223-.233.216.029.508-.093.633.052.107.123.035.406.035.618,0,1.591,0,3.183.006,4.774,0,.183-.041.257-.227.225a1.04,1.04,0,0,0-.172,0c-.464,0-.464,0-.516-.462a1.446,1.446,0,0,1-1.066.544,2.04,2.04,0,0,1-1.184-.253,2.134,2.134,0,0,1-1.007-2.163,2,2,0,0,1,2.387-1.767A1.591,1.591,0,0,1,1676.595,84.334Zm-2.365,1.517a1.228,1.228,0,1,0,2.45.02,1.231,1.231,0,0,0-1.23-1.315A1.214,1.214,0,0,0,1674.229,85.851Z" transform="translate(-1630.593 -49.76)" fill="#030303"/>
      <path id="Path_1203" data-name="Path 1203" d="M1586.557,86.991c.02-.472.02-.472.449-.472.448,0,.448,0,.448.44,0,1.132,0,2.265,0,3.4,0,.166-.031.245-.211.217a1.439,1.439,0,0,0-.221,0c-.437,0-.437,0-.478-.459a1.457,1.457,0,0,1-1.068.542,2.041,2.041,0,0,1-1.184-.255,2.121,2.121,0,0,1-.994-2.211,1.976,1.976,0,0,1,1.476-1.687A1.69,1.69,0,0,1,1586.557,86.991Zm.052,1.553a1.228,1.228,0,1,0-2.451-.01,1.229,1.229,0,1,0,2.451.01Z" transform="translate(-1573.505 -52.438)" fill="#030303"/>
      <path id="Path_1204" data-name="Path 1204" d="M1654.288,90.08a1.832,1.832,0,0,1-2.456.192,2.093,2.093,0,0,1-.789-2.187,1.9,1.9,0,0,1,1.438-1.579,1.67,1.67,0,0,1,1.773.455c.015-.022.03-.034.03-.046.012-.4.012-.4.423-.4.469,0,.469,0,.469.469,0,1.124,0,2.248,0,3.372,0,.172-.04.234-.215.215a1.985,1.985,0,0,0-.442,0c-.2.023-.266-.053-.237-.243A2.1,2.1,0,0,0,1654.288,90.08Zm.089-1.549a1.23,1.23,0,1,0-2.455.012,1.23,1.23,0,1,0,2.455-.012Z" transform="translate(-1616.452 -52.435)" fill="#030303"/>
      <path id="Path_1205" data-name="Path 1205" d="M1621.374,88.932c-.427,0-.854.012-1.281,0-.223-.009-.221.068-.156.238a1.158,1.158,0,0,0,1.216.729,1.856,1.856,0,0,0,.99-.328c.121-.083.18-.067.238.055a.872.872,0,0,0,.068.1c.292.438.294.443-.2.673a2.629,2.629,0,0,1-1.75.2,1.953,1.953,0,0,1-1.512-2.012,1.989,1.989,0,0,1,2.6-2.067,1.753,1.753,0,0,1,1.259,1.569c.041.266.134.6-.01.79-.129.17-.474.043-.724.054S1621.62,88.932,1621.374,88.932Zm-.4-.771c.3,0,.59-.007.885,0,.141,0,.167-.04.137-.17a.963.963,0,0,0-.98-.8,1.057,1.057,0,0,0-1.072.8c-.033.141.017.167.145.164C1620.387,88.156,1620.683,88.161,1620.977,88.161Z" transform="translate(-1596.154 -52.439)" fill="#040404"/>
      <path id="Path_1206" data-name="Path 1206" d="M1598.563,90.662a3.082,3.082,0,0,1-1.429-.4c-.129-.073-.18-.136-.071-.276s.172-.378.317-.454.3.132.464.191a2.3,2.3,0,0,0,1.4.1.656.656,0,0,0,.3-.161.309.309,0,0,0-.075-.54,1.961,1.961,0,0,0-.783-.186,2.651,2.651,0,0,1-.856-.2,1.025,1.025,0,0,1-.684-.858,1.147,1.147,0,0,1,.489-1.113,2.053,2.053,0,0,1,1.309-.333,3.072,3.072,0,0,1,1.374.323c.133.071.159.132.077.262-.1.165-.148.406-.293.5s-.332-.1-.509-.151a2.447,2.447,0,0,0-1.019-.106.694.694,0,0,0-.379.161.318.318,0,0,0,.089.556,1.978,1.978,0,0,0,.649.124,2.617,2.617,0,0,1,.971.241,1.124,1.124,0,0,1,.146,1.968A2.55,2.55,0,0,1,1598.563,90.662Z" transform="translate(-1582.21 -52.442)" fill="#040404"/>
      <path id="Path_1207" data-name="Path 1207" d="M1609.243,86.466c0-.337,0-.673,0-1.01,0-.117-.035-.16-.154-.154-.172.008-.345,0-.517,0-.1,0-.157-.029-.142-.138a.141.141,0,0,0,0-.025c-.029-.626-.029-.634.6-.629.183,0,.217-.063.209-.226-.012-.287,0-.575-.006-.862,0-.121.037-.155.153-.149.236.012.538-.073.692.042s.041.429.044.655c.007.534,0,.534.532.534.246,0,.493.006.739,0,.123,0,.166.024.17.159.018.639.023.639-.623.639-.222,0-.443.006-.665,0-.118,0-.154.034-.153.152.006.591,0,1.182.009,1.773a.537.537,0,0,0,.638.575,1.158,1.158,0,0,0,.523-.12c.142-.081.218-.075.248.1a1.626,1.626,0,0,0,.074.233c.121.366.12.365-.259.5a2.089,2.089,0,0,1-1.04.112,1.148,1.148,0,0,1-1.066-1.177c-.019-.327,0-.656,0-.985Z" transform="translate(-1589.453 -50.428)" fill="#030303"/>
      <path id="Path_1208" data-name="Path 1208" d="M1640.008,88.525a2.079,2.079,0,0,1,2.46-2.1,2.177,2.177,0,0,1,1.007.357c.1.07.134.135.049.234a.3.3,0,0,0-.024.043c-.1.162-.154.387-.3.47-.161.094-.312-.133-.479-.2a1.337,1.337,0,0,0-1.56.365,1.489,1.489,0,0,0-.023,1.663,1.328,1.328,0,0,0,1.666.327c.131-.06.264-.233.375-.178s.172.247.251.38c.188.319.188.319-.139.5a2.2,2.2,0,0,1-3.249-1.452C1640.02,88.805,1640.02,88.664,1640.008,88.525Z" transform="translate(-1609.485 -52.427)" fill="#040404"/>
      <path id="Path_1209" data-name="Path 1209" d="M1666.592,86.953a1.412,1.412,0,0,1,1.437-.516c.142.014.183.07.125.2a.576.576,0,0,0-.026.069c-.056.188-.061.426-.183.55s-.347-.026-.53-.027a.782.782,0,0,0-.834.758c-.071.588-.018,1.18-.032,1.77,0,.041,0,.082,0,.123,0,.22.076.523-.036.639-.145.148-.449.029-.683.049-.121.01-.173-.023-.172-.16q.007-1.87,0-3.74c0-.115.03-.167.151-.155.081.008.164,0,.246,0a1.11,1.11,0,0,1,.437.014C1666.634,86.6,1666.5,86.8,1666.592,86.953Z" transform="translate(-1625.753 -52.434)" fill="#040404"/>
      <path id="Path_1210" data-name="Path 1210" d="M1633.159,87a1.4,1.4,0,0,1,1.447-.56c.145.014.208.064.138.212a.816.816,0,0,0-.037.117c-.052.172-.057.394-.17.5s-.321-.029-.49-.035a.785.785,0,0,0-.866.693,4.971,4.971,0,0,0-.039.908c0,.516-.007,1.033,0,1.549,0,.154-.04.2-.191.189a4.1,4.1,0,0,0-.541,0c-.132.007-.164-.043-.163-.169q.006-1.857,0-3.714c0-.143.045-.189.181-.174a2.662,2.662,0,0,0,.27,0C1633.125,86.515,1633.125,86.515,1633.159,87Z" transform="translate(-1604.565 -52.434)" fill="#040404"/>
    </g>
  </g>
</svg>
