<svg id="Group_660" data-name="Group 660" xmlns="http://www.w3.org/2000/svg" width="94" height="24.022" viewBox="0 0 94 24.022">
  <path id="Path_1189" data-name="Path 1189" d="M1415.952,22.294h-5.073a.99.99,0,0,0-.746.6l-2.089,13.13a.4.4,0,0,0,.448.447h2.686a.4.4,0,0,0,.448-.447l.6-3.73a.683.683,0,0,1,.746-.6h1.642q5.147,0,5.819-4.924a3.911,3.911,0,0,0-.6-3.283,6.017,6.017,0,0,0-3.879-1.194m.6,4.924c-.3,1.791-1.641,1.791-2.984,1.791h-.9l.6-3.432c0-.149.149-.3.448-.3h.3c.9,0,1.79,0,2.238.6.3.149.3.6.3,1.343" transform="translate(-1343.288 -16.027)" fill="#5898d2"/>
  <g id="Group_659" data-name="Group 659" transform="translate(28.2 6.267)">
    <path id="Path_1190" data-name="Path 1190" d="M1316.008,22.294h-5.073a.992.992,0,0,0-.746.6l-2.089,13.13a.4.4,0,0,0,.448.447h2.387a.99.99,0,0,0,.746-.6l.6-3.581a.683.683,0,0,1,.746-.6h1.641q5.148,0,5.819-4.924a3.911,3.911,0,0,0-.6-3.283,5.734,5.734,0,0,0-3.879-1.194m.6,4.924c-.3,1.791-1.641,1.791-2.984,1.791h-.746l.6-3.432c0-.149.149-.3.448-.3h.3c.9,0,1.791,0,2.238.6a1.6,1.6,0,0,1,.149,1.343" transform="translate(-1308.1 -22.294)" fill="#313d7d"/>
    <path id="Path_1191" data-name="Path 1191" d="M1351.654,34.831h-2.387c-.149,0-.448.149-.448.3l-.149.746-.149-.3a3.508,3.508,0,0,0-2.835-1.044,5.733,5.733,0,0,0-5.521,4.924,4.447,4.447,0,0,0,.9,3.73,3.76,3.76,0,0,0,3.133,1.193,4.77,4.77,0,0,0,3.432-1.343l-.149.746a.4.4,0,0,0,.448.447h2.238a.99.99,0,0,0,.746-.6l1.343-8.356c-.149-.149-.448-.448-.6-.448m-3.432,4.775a2.886,2.886,0,0,1-2.835,2.387,2.388,2.388,0,0,1-1.642-.6,3.185,3.185,0,0,1-.447-1.791,2.661,2.661,0,0,1,4.327-1.79,2.6,2.6,0,0,1,.6,1.79" transform="translate(-1328.378 -30.056)" fill="#313d7d"/>
  </g>
  <path id="Path_1192" data-name="Path 1192" d="M1451.191,34.831H1448.8c-.149,0-.448.149-.448.3l-.149.746-.149-.3a3.51,3.51,0,0,0-2.835-1.044,5.733,5.733,0,0,0-5.52,4.924,4.447,4.447,0,0,0,.9,3.73,3.761,3.761,0,0,0,3.133,1.193,4.769,4.769,0,0,0,3.432-1.343l-.149.746a.4.4,0,0,0,.448.447h2.238a.991.991,0,0,0,.746-.6l1.343-8.356c-.149-.149-.3-.448-.6-.448m-3.432,4.775a2.886,2.886,0,0,1-2.835,2.387,2.388,2.388,0,0,1-1.641-.6,3.182,3.182,0,0,1-.448-1.791,2.661,2.661,0,0,1,4.327-1.79,1.712,1.712,0,0,1,.6,1.79" transform="translate(-1363.308 -23.79)" fill="#5898d2"/>
  <path id="Path_1193" data-name="Path 1193" d="M1387.306,35.348h-2.536a.775.775,0,0,0-.6.3l-3.283,5.073-1.492-4.775a.689.689,0,0,0-.746-.448h-2.387c-.3,0-.448.3-.448.6L1378.5,44l-2.536,3.581c-.149.3,0,.746.3.746h2.387a.775.775,0,0,0,.6-.3l8.207-11.787c.447-.448.149-.9-.149-.9" transform="translate(-1322.849 -24.307)" fill="#313d7d"/>
  <path id="Path_1194" data-name="Path 1194" d="M1475.4,22.9l-2.089,13.429a.4.4,0,0,0,.448.447h2.089a.992.992,0,0,0,.746-.6l2.089-13.13a.4.4,0,0,0-.448-.448h-2.387c-.149-.149-.3,0-.448.3" transform="translate(-1384.685 -16.185)" fill="#5898d2"/>
  <path id="Path_1195" data-name="Path 1195" d="M1248.159,6.951c-1.045-1.193-2.984-1.79-5.67-1.79h-7.46a1.28,1.28,0,0,0-1.044.9L1231,25.6a.683.683,0,0,0,.6.746h4.625l1.193-7.311v.3a1.28,1.28,0,0,1,1.045-.9h2.238c4.327,0,7.61-1.79,8.654-6.714v-.447h0a5.212,5.212,0,0,0-1.193-4.327" transform="translate(-1231 -5.161)" fill="#313d7d"/>
  <path id="Path_1196" data-name="Path 1196" d="M1257.482,21.887h0v.447c-1.044,5.073-4.327,6.714-8.654,6.714h-2.238a1.28,1.28,0,0,0-1.045.9l-1.492,9.1a.547.547,0,0,0,.6.6h3.879a.836.836,0,0,0,.9-.746v-.149l.746-4.625v-.3a.836.836,0,0,1,.9-.746h.6c3.73,0,6.714-1.492,7.46-5.968.3-1.79.149-3.432-.746-4.476a1.527,1.527,0,0,0-.9-.746" transform="translate(-1239.279 -15.769)" fill="#5898d2"/>
  <path id="Path_1197" data-name="Path 1197" d="M1259.284,19.887c-.149,0-.3-.149-.448-.149a.548.548,0,0,1-.448-.149,7.879,7.879,0,0,0-1.94-.149h-5.819a.547.547,0,0,0-.447.149.821.821,0,0,0-.448.746l-1.194,7.759v.3a1.28,1.28,0,0,1,1.045-.9h2.238c4.327,0,7.61-1.79,8.654-6.714a.547.547,0,0,1,.149-.447c-.3-.149-.448-.3-.746-.3-.447-.149-.447-.149-.6-.149" transform="translate(-1242.125 -14.217)" fill="#2a3063"/>
</svg>
