<svg xmlns="http://www.w3.org/2000/svg" width="35.478" height="40.547" viewBox="0 0 35.478 40.547"><defs><style>.a{fill:#e2e5e7;}.b{fill:#b0b7bd;}.c{fill:#cad1d8;}.d{fill:#f15642;}.e{fill:#fff;}</style></defs><path class="a" d="M98.534,0A2.542,2.542,0,0,0,96,2.534V38.012a2.542,2.542,0,0,0,2.534,2.534h25.342a2.542,2.542,0,0,0,2.534-2.534V10.137L116.273,0Z" transform="translate(-90.932)"/><path class="b" d="M354.534,10.137h7.6L352,0V7.6A2.542,2.542,0,0,0,354.534,10.137Z" transform="translate(-326.658)"/><path class="c" d="M391.6,135.6,384,128h7.6Z" transform="translate(-356.124 -117.863)"/><path class="d" d="M62.41,253.938a1.271,1.271,0,0,1-1.267,1.267H33.267A1.271,1.271,0,0,1,32,253.938V241.267A1.271,1.271,0,0,1,33.267,240H61.143a1.271,1.271,0,0,1,1.267,1.267Z" transform="translate(-32 -220.994)"/><g transform="translate(5.523 23.308)"><path class="e" d="M101.744,295.019a.7.7,0,0,1,.688-.7h2.34a2.533,2.533,0,0,1,0,5.066h-1.692v1.338a.636.636,0,0,1-.649.7.683.683,0,0,1-.688-.7Zm1.337.577v2.524h1.692a1.263,1.263,0,0,0,0-2.524Z" transform="translate(-101.744 -294.32)"/><path class="e" d="M188.523,302.483a.634.634,0,0,1-.7-.627V296.1a.689.689,0,0,1,.7-.628h2.32c4.63,0,4.529,7.011.091,7.011Zm.639-5.774v4.539h1.681c2.736,0,2.857-4.539,0-4.539Z" transform="translate(-181.007 -295.381)"/><path class="e" d="M288.461,296.775v1.61h2.584a.784.784,0,0,1,.73.718.7.7,0,0,1-.73.608h-2.584v2.127a.6.6,0,0,1-.607.627.644.644,0,0,1-.718-.627v-5.755a.64.64,0,0,1,.718-.628h3.557a.632.632,0,0,1,.71.628.7.7,0,0,1-.71.689h-2.95Z" transform="translate(-272.454 -295.366)"/></g><path class="c" d="M120.075,417.267H96v1.267h24.075a1.271,1.271,0,0,0,1.267-1.267V416A1.271,1.271,0,0,1,120.075,417.267Z" transform="translate(-90.932 -383.056)"/></svg>