<svg id="eJCLpyqUawu1" xmlns="http://www.w3.org/2000/svg" xmlns:xlink="http://www.w3.org/1999/xlink" viewBox="0 0 500 280" shape-rendering="geometricPrecision" text-rendering="geometricPrecision"><style><![CDATA[#eJCLpyqUawu8 {animation: eJCLpyqUawu8__m 1515.151515151515ms linear infinite alternate forwards}@keyframes eJCLpyqUawu8__m { 0% {d: path('M24.500000,210.400000C20.600000,210.400000,16.800000,208.100000,15.200000,204.300000C13,199.200000,15.300000,193.200000,20.500000,190.900000L113.900000,150.300000C119,148.100000,125,150.400000,127.300000,155.600000C129.500000,160.700000,127.200000,166.700000,122,169L28.600000,209.600000C27.200000,210.100000,25.900000,210.400000,24.500000,210.400000Z')} 25% {d: path('M66.275063,191.300000C62.375063,191.300000,58.575063,189,56.975063,185.200000C54.775063,180.100000,57.075063,174.100000,62.275063,171.800000L113.900000,150.300000C119,148.100000,125,150.400000,127.300000,155.600000C129.500000,160.700000,127.200000,166.700000,122,169L70.375063,190.500000C68.975063,191,67.675063,191.300000,66.275063,191.300000Z')} 53% {d: path('M24.500000,210.400000C20.600000,210.400000,16.800000,208.100000,15.200000,204.300000C13,199.200000,15.300000,193.200000,20.500000,190.900000L113.900000,150.300000C119,148.100000,125,150.400000,127.300000,155.600000C129.500000,160.700000,127.200000,166.700000,122,169L28.600000,209.600000C27.200000,210.100000,25.900000,210.400000,24.500000,210.400000Z')} 78% {d: path('M66.275063,191.300000C62.375063,191.300000,58.575063,189,56.975063,185.200000C54.775063,180.100000,57.075063,174.100000,62.275063,171.800000L113.900000,150.300000C119,148.100000,125,150.400000,127.300000,155.600000C129.500000,160.700000,127.200000,166.700000,122,169L70.375063,190.500000C68.975063,191,67.675063,191.300000,66.275063,191.300000Z')} 100% {d: path('M66.275063,191.300000C62.375063,191.300000,58.575063,189,56.975063,185.200000C54.775063,180.100000,57.075063,174.100000,62.275063,171.800000L113.900000,150.300000C119,148.100000,125,150.400000,127.300000,155.600000C129.500000,160.700000,127.200000,166.700000,122,169L70.375063,190.500000C68.975063,191,67.675063,191.300000,66.275063,191.300000Z')}} #eJCLpyqUawu11 {animation: eJCLpyqUawu11__m 1515.151515151515ms linear infinite alternate forwards}@keyframes eJCLpyqUawu11__m { 0% {d: path('M27,259.600000C23.100000,259.600000,19.400000,257.300000,17.700000,253.500000C15.400000,248.400000,17.800000,242.400000,22.900000,240.100000L124.500000,195.400000C129.600000,193.100000,135.600000,195.500000,137.900000,200.600000C140.200000,205.700000,137.800000,211.700000,132.700000,214L31.100000,258.800000C29.700000,259.400000,28.400000,259.600000,27,259.600000Z')} 10% {d: path('M27,259.600000C23.100000,259.600000,19.400000,257.300000,17.700000,253.500000C15.400000,248.400000,17.800000,242.400000,22.900000,240.100000L124.500000,195.400000C129.600000,193.100000,135.600000,195.500000,137.900000,200.600000C140.200000,205.700000,137.800000,211.700000,132.700000,214L31.100000,258.800000C29.700000,259.400000,28.400000,259.600000,27,259.600000Z')} 35% {d: path('M76.305039,235.600000C72.405039,235.600000,68.705039,233.300000,67.005039,229.500000C64.705039,224.400000,67.105039,218.400000,72.205039,216.100000L124.500000,195.400000C129.600000,193.100000,135.600000,195.500000,137.900000,200.600000C140.200000,205.700000,137.800000,211.700000,132.700000,214L80.405039,234.800000C79.005039,235.400000,77.705039,235.600000,76.305039,235.600000Z')} 63% {d: path('M27,259.600000C23.100000,259.600000,19.400000,257.300000,17.700000,253.500000C15.400000,248.400000,17.800000,242.400000,22.900000,240.100000L124.500000,195.400000C129.600000,193.100000,135.600000,195.500000,137.900000,200.600000C140.200000,205.700000,137.800000,211.700000,132.700000,214L31.100000,258.800000C29.700000,259.400000,28.400000,259.600000,27,259.600000Z')} 88% {d: path('M76.305039,235.600000C72.405039,235.600000,68.705039,233.300000,67.005039,229.500000C64.705039,224.400000,67.105039,218.400000,72.205039,216.100000L124.500000,195.400000C129.600000,193.100000,135.600000,195.500000,137.900000,200.600000C140.200000,205.700000,137.800000,211.700000,132.700000,214L80.405039,234.800000C79.005039,235.400000,77.705039,235.600000,76.305039,235.600000Z')} 100% {d: path('M76.305039,235.600000C72.405039,235.600000,68.705039,233.300000,67.005039,229.500000C64.705039,224.400000,67.105039,218.400000,72.205039,216.100000L124.500000,195.400000C129.600000,193.100000,135.600000,195.500000,137.900000,200.600000C140.200000,205.700000,137.800000,211.700000,132.700000,214L80.405039,234.800000C79.005039,235.400000,77.705039,235.600000,76.305039,235.600000Z')}} #eJCLpyqUawu14 {animation: eJCLpyqUawu14__m 1515.151515151515ms linear infinite alternate forwards}@keyframes eJCLpyqUawu14__m { 0% {d: path('M100.600000,276.300000C96.700000,276.300000,93,274.100000,91.300000,270.300000C89,265.200000,91.300000,259.200000,96.400000,256.900000L159.400000,228.500000C164.500000,226.200000,170.500000,228.500000,172.800000,233.600000C175.100000,238.700000,172.800000,244.700000,167.700000,247L104.700000,275.400000C103.400000,276,102,276.300000,100.600000,276.300000Z')} 25% {d: path('M100.600000,276.300000C96.700000,276.300000,93,274.100000,91.300000,270.300000C89,265.200000,91.300000,259.200000,96.400000,256.900000L159.400000,228.500000C164.500000,226.200000,170.500000,228.500000,172.800000,233.600000C175.100000,238.700000,172.800000,244.700000,167.700000,247L104.700000,275.400000C103.400000,276,102,276.300000,100.600000,276.300000Z')} 45% {d: path('M72.205039,288.525735C68.305039,288.525735,64.605039,286.325735,62.905039,282.525735C60.605039,277.425735,62.905039,271.425735,68.005039,269.125735L159.400000,228.500000C164.500000,226.200000,170.500000,228.500000,172.800000,233.600000C175.100000,238.700000,172.800000,244.700000,167.700000,247L76.305039,287.625735C75.005039,288.225735,73.605039,288.525735,72.205039,288.525735Z')} 73% {d: path('M100.600000,276.300000C96.700000,276.300000,93,274.100000,91.300000,270.300000C89,265.200000,91.300000,259.200000,96.400000,256.900000L159.400000,228.500000C164.500000,226.200000,170.500000,228.500000,172.800000,233.600000C175.100000,238.700000,172.800000,244.700000,167.700000,247L104.700000,275.400000C103.400000,276,102,276.300000,100.600000,276.300000Z')} 93% {d: path('M72.205039,288.525735C68.305039,288.525735,64.605039,286.325735,62.905039,282.525735C60.605039,277.425735,62.905039,271.425735,68.005039,269.125735L159.400000,228.500000C164.500000,226.200000,170.500000,228.500000,172.800000,233.600000C175.100000,238.700000,172.800000,244.700000,167.700000,247L76.305039,287.625735C75.005039,288.225735,73.605039,288.525735,72.205039,288.525735Z')} 100% {d: path('M72.205039,288.525735C68.305039,288.525735,64.605039,286.325735,62.905039,282.525735C60.605039,277.425735,62.905039,271.425735,68.005039,269.125735L159.400000,228.500000C164.500000,226.200000,170.500000,228.500000,172.800000,233.600000C175.100000,238.700000,172.800000,244.700000,167.700000,247L76.305039,287.625735C75.005039,288.225735,73.605039,288.525735,72.205039,288.525735Z')}}]]></style><g id="eJCLpyqUawu2"><g id="eJCLpyqUawu3"><g id="eJCLpyqUawu4"><path id="eJCLpyqUawu5" d="M420.300000,56.300000C418.200000,55,415.900000,54.100000,413.600000,53.500000C408.900000,52.400000,403.900000,52.800000,399.300000,54.900000L355.600000,74.800000C350.800000,64.400000,347,55.500000,344.200000,48.700000C342,43.200000,337.700000,39,332.300000,36.700000C326.800000,34.400000,320.800000,34.400000,315.300000,36.700000C242.800000,66.600000,182.900000,82.100000,153.600000,88.700000C147.600000,90.100000,142.400000,93.900000,139.300000,99.300000C136.200000,104.700000,135.500000,111.100000,137.400000,117C161,190.900000,194.200000,227.700000,211.100000,242.500000C212.700000,243.900000,214.100000,245.100000,215.400000,246.100000C219.400000,249.300000,224.300000,251,229.300000,251C231.900000,251,234.500000,250.600000,237,249.600000L256,242.500000L391.400000,192.200000C396.500000,190.300000,400.600000,186.600000,403.200000,181.900000C403.600000,181.600000,408.200000,170.700000,413.700000,154C420.400000,133.300000,428.400000,103.800000,430.700000,74.400000C431.200000,66.900000,426.600000,60.200000,420.300000,56.300000ZM379.400000,173C378.700000,174.900000,377.300000,176.300000,375.400000,176.900000L228.600000,230.200000C226.400000,230.900000,224.100000,230.500000,222.300000,229C210.500000,219,177.400000,182.500000,156.300000,120.800000C154.900000,116.600000,159.500000,112.900000,163.200000,115.300000C181.900000,127.100000,207.800000,135.100000,233.100000,140.200000C234.300000,140.400000,235.400000,140.600000,236.600000,140.600000C243.500000,140.800000,249.300000,136.800000,254.300000,131.800000C268.600000,117.300000,295.500000,86,317.900000,59.700000C320.200000,57,324.500000,57.700000,325.800000,61C335.100000,84.500000,354.400000,127.800000,378.700000,167.300000C379.800000,169.100000,380,171.100000,379.400000,173Z" transform="matrix(1 0 0 1 6.55978775000005 -21.75036864999996)" fill="rgb(210,48,44)" stroke="none" stroke-width="1"/></g><g id="eJCLpyqUawu6"><g id="eJCLpyqUawu7"><path id="eJCLpyqUawu8" d="M24.500000,210.400000C20.600000,210.400000,16.800000,208.100000,15.200000,204.300000C13,199.200000,15.300000,193.200000,20.500000,190.900000L113.900000,150.300000C119,148.100000,125,150.400000,127.300000,155.600000C129.500000,160.700000,127.200000,166.700000,122,169L28.600000,209.600000C27.200000,210.100000,25.900000,210.400000,24.500000,210.400000Z" transform="matrix(1 0 0 1 6.55978775000001 -20.12050834499993)" fill="rgb(210,48,44)" stroke="none" stroke-width="1"/></g></g><g id="eJCLpyqUawu9"><g id="eJCLpyqUawu10"><path id="eJCLpyqUawu11" d="M27,259.600000C23.100000,259.600000,19.400000,257.300000,17.700000,253.500000C15.400000,248.400000,17.800000,242.400000,22.900000,240.100000L124.500000,195.400000C129.600000,193.100000,135.600000,195.500000,137.900000,200.600000C140.200000,205.700000,137.800000,211.700000,132.700000,214L31.100000,258.800000C29.700000,259.400000,28.400000,259.600000,27,259.600000Z" transform="matrix(1 0 0 1 6.55978775000001 -21.75036864999996)" fill="rgb(210,48,44)" stroke="none" stroke-width="1"/></g></g><g id="eJCLpyqUawu12"><g id="eJCLpyqUawu13"><path id="eJCLpyqUawu14" d="M100.600000,276.300000C96.700000,276.300000,93,274.100000,91.300000,270.300000C89,265.200000,91.300000,259.200000,96.400000,256.900000L159.400000,228.500000C164.500000,226.200000,170.500000,228.500000,172.800000,233.600000C175.100000,238.700000,172.800000,244.700000,167.700000,247L104.700000,275.400000C103.400000,276,102,276.300000,100.600000,276.300000Z" transform="matrix(1 0 0 1 6.55978775000000 -21.75036864999996)" fill="rgb(210,48,44)" stroke="none" stroke-width="1"/></g></g></g></g></svg>