<svg xmlns="http://www.w3.org/2000/svg" width="97.997" height="97.997" viewBox="0 0 97.997 97.997"><defs><style>.a{fill:#023047;}</style></defs><g transform="translate(0 0)"><path class="a" d="M5.879,332H1.914A1.914,1.914,0,0,0,0,333.913v15.312a1.914,1.914,0,0,0,3.828,0v-5.742H5.879A5.743,5.743,0,1,0,5.879,332Zm0,7.656H3.828v-3.828H5.879A1.918,1.918,0,1,1,5.879,339.655Z" transform="translate(0 -268.454)"/><path class="a" d="M89.443,337.741A5.818,5.818,0,0,0,83.564,332H79.6a1.914,1.914,0,0,0-1.914,1.914v15.312a1.914,1.914,0,0,0,3.828,0v-5.742H82.4l3.43,6.622a1.914,1.914,0,0,0,3.4-1.76l-2.875-5.551A5.73,5.73,0,0,0,89.443,337.741Zm-7.93-1.914h2.051a1.917,1.917,0,1,1,.015,3.828H81.513Z" transform="translate(-62.816 -268.454)"/><path class="a" d="M164.222,335.827a1.914,1.914,0,0,0,0-3.828h-6.939a1.914,1.914,0,0,0-1.914,1.914v15.312a1.914,1.914,0,0,0,1.914,1.914h6.939a1.914,1.914,0,0,0,0-3.828H159.2v-3.828h2.249a1.914,1.914,0,0,0,0-3.828H159.2v-3.828Z" transform="translate(-125.631 -268.454)"/><path class="a" d="M240.692,351.138a1.914,1.914,0,0,0,1.914-1.914V333.912a1.914,1.914,0,0,0-3.473-1.11l-3.893,5.467-3.893-5.467a1.914,1.914,0,0,0-3.473,1.11v15.312a1.914,1.914,0,0,0,3.828,0V339.9l1.979,2.779a1.927,1.927,0,0,0,3.118,0l1.979-2.779v9.324A1.914,1.914,0,0,0,240.692,351.138Z" transform="translate(-184.259 -268.454)"/><path class="a" d="M321.1,333.956v15.312a1.914,1.914,0,0,0,3.828,0V333.956A1.914,1.914,0,0,0,321.1,333.956Z" transform="translate(-259.638 -268.497)"/><path class="a" d="M359.264,332a1.914,1.914,0,0,0-1.914,1.914V345.4c.322,7.619,11.439,7.613,11.758,0V333.913a1.914,1.914,0,0,0-3.828,0V345.4a2.057,2.057,0,0,1-4.1,0V333.913A1.914,1.914,0,0,0,359.264,332Z" transform="translate(-288.953 -268.454)"/><path class="a" d="M448.434,332.089a1.914,1.914,0,0,0-2.142.713l-3.893,5.467-3.893-5.467a1.914,1.914,0,0,0-3.473,1.11v15.312a1.914,1.914,0,0,0,3.828,0V339.9l1.979,2.779a1.927,1.927,0,0,0,3.118,0l1.979-2.779v9.325a1.914,1.914,0,0,0,3.828,0V333.912a1.914,1.914,0,0,0-1.331-1.823Z" transform="translate(-351.769 -268.454)"/><path class="a" d="M66.877,59.716h69.3a1.914,1.914,0,0,0,1.914-1.914A36.625,36.625,0,0,0,121,26.848l5.455-6.694a1.925,1.925,0,0,0-.972-3.053l-14.468-4.014L103.136.876a1.914,1.914,0,0,0-1.6-.876h-.011a1.914,1.914,0,0,0-1.6.857l-8.289,12.52L77.6,17.095a1.914,1.914,0,0,0-1.008,3.042l9.345,11.752-.8,14.508a1.914,1.914,0,0,0,2.581,1.9l14.064-5.257,13.549,5.248a1.914,1.914,0,0,0,2.6-1.868l-.653-15,1.286-1.578a32.8,32.8,0,0,1,15.648,26.048H68.846a32.578,32.578,0,0,1,5.116-15.75,1.914,1.914,0,0,0-3.221-2.069A36.435,36.435,0,0,0,64.963,57.8,1.914,1.914,0,0,0,66.877,59.716Zm46.97-30.151a1.914,1.914,0,0,0-.428,1.292l.558,12.8-11.5-4.454a1.913,1.913,0,0,0-1.361-.008l-12,4.486L89.8,31.373a1.914,1.914,0,0,0-.413-1.3l-7.976-10.03,11.919-3.155a1.915,1.915,0,0,0,1.106-.794l7.074-10.685,6.684,10.361a1.914,1.914,0,0,0,1.1.807l12.348,3.426Z" transform="translate(-52.529 0)"/><path class="a" d="M136.178,452h-69.3a1.914,1.914,0,0,0-1.914,1.914v7.656a1.914,1.914,0,0,0,1.914,1.914h69.3a1.914,1.914,0,0,0,1.914-1.914v-7.656A1.914,1.914,0,0,0,136.178,452Zm-1.914,7.656H68.79v-3.828h65.474Z" transform="translate(-52.528 -365.487)"/><path class="a" d="M126.211,161.656a1.914,1.914,0,0,0-1.914-1.914h0a1.914,1.914,0,1,0,1.915,1.914Z" transform="translate(-98.958 -129.167)"/></g></svg>