<svg xmlns="http://www.w3.org/2000/svg" width="99.888" height="99.876" viewBox="0 0 99.888 99.876"><defs><style>.a{fill:#023047;}</style></defs><g transform="translate(0 -0.029)"><g transform="translate(8.686 8.871)"><path class="a" d="M46.474,45.351a1.951,1.951,0,0,0,0,3.9h.02a1.951,1.951,0,0,0-.02-3.9Z" transform="translate(-44.523 -45.351)"/></g><g transform="translate(18.04 8.871)"><path class="a" d="M94.419,45.351a1.951,1.951,0,1,0,0,3.9h.019a1.951,1.951,0,1,0-.019-3.9Z" transform="translate(-92.468 -45.351)"/></g><g transform="translate(27.394 8.871)"><path class="a" d="M142.364,45.351a1.951,1.951,0,0,0,0,3.9h.019a1.951,1.951,0,0,0-.019-3.9Z" transform="translate(-140.413 -45.351)"/></g><g transform="translate(51.568 8.871)"><path class="a" d="M289.947,45.351H266.274a1.951,1.951,0,1,0,0,3.9h23.673a1.951,1.951,0,1,0,0-3.9Z" transform="translate(-264.323 -45.351)"/></g><g transform="translate(42.305 76.886)"><path class="a" d="M220.174,394.554a1.949,1.949,0,1,0,.572,1.379A1.966,1.966,0,0,0,220.174,394.554Z" transform="translate(-216.844 -393.982)"/></g><g transform="translate(0 0.029)"><path class="a" d="M89.354,25.048V9.782A9.764,9.764,0,0,0,79.6.029H9.753A9.765,9.765,0,0,0,0,9.783V71.419a9.38,9.38,0,0,0,9.369,9.369H16.69V81.1a1.407,1.407,0,0,1-1.129,1.377L8.209,83.946A9.46,9.46,0,0,0,.624,92.231l-.6,5.512a1.951,1.951,0,0,0,1.939,2.162H44.255a1.951,1.951,0,0,0,1.939-2.163l-.6-5.514a9.46,9.46,0,0,0-7.585-8.282l-7.353-1.465A1.407,1.407,0,0,1,29.524,81.1V79.273c0-.01,0-.02,0-.029l3.306-1.89c.036-.021.072-.043.107-.066a7.322,7.322,0,0,0,3.114-5.577c0-.05.006-.1.006-.149v-8c1.166-.759,2.017-2.14,2.017-4.556l0-4.383a1.955,1.955,0,0,0-.012-.215,7.2,7.2,0,0,0-7.231-6.859H14.256a3.266,3.266,0,0,1-1.842-.709,2.678,2.678,0,0,0-4.273,2.151v6.347a9.02,9.02,0,0,0,2.02,5.7V71.562q0,.074.006.149a7.437,7.437,0,0,0,2.6,5.176H9.369A5.473,5.473,0,0,1,3.9,71.419V30.474H25.686a1.951,1.951,0,1,0,0-3.9H3.9V21.11H85.452v3.884H53.786A11.652,11.652,0,0,0,42.147,36.634V52.961A11.652,11.652,0,0,0,53.786,64.6h2.438v5.7a1.951,1.951,0,0,0,3.33,1.379L66.638,64.6H85.453v6.819a5.474,5.474,0,0,1-5.468,5.468H52.193a1.951,1.951,0,1,0,0,3.9H79.985a9.38,9.38,0,0,0,9.369-9.369V64.547A11.654,11.654,0,0,0,99.888,52.961V36.634A11.654,11.654,0,0,0,89.354,25.048ZM30.786,86.486l6.458,1.287a5.573,5.573,0,0,1,4.469,4.88L42.08,96H4.137l.365-3.35a5.573,5.573,0,0,1,4.469-4.881l6.459-1.287a11.554,11.554,0,0,0,15.355,0ZM19.342,84.515a5.3,5.3,0,0,0,1.234-3.06,5.676,5.676,0,0,0,5.063,0,5.3,5.3,0,0,0,1.235,3.06,7.667,7.667,0,0,1-7.532,0ZM32.155,71.481A3.464,3.464,0,0,1,30.83,74l-6.554,3.746c-.036.021-.072.043-.107.066a1.853,1.853,0,0,1-2.122,0c-.034-.022-.069-.044-.1-.064L15.408,74a3.467,3.467,0,0,1-1.345-2.522V63.84a9.018,9.018,0,0,0,3.143.563H32.155v7.078ZM12.043,55.338v-4.3a6.378,6.378,0,0,0,2.213.408H30.833a3.322,3.322,0,0,1,3.338,3.244c0,.022,0,.044,0,.065l0,4.245h0c0,.988-.2,1.237-.225,1.262-.079.086-.42.232-1.2.232H17.206A5.168,5.168,0,0,1,12.043,55.338ZM3.9,17.209V9.783A5.859,5.859,0,0,1,9.753,3.931H79.6a5.859,5.859,0,0,1,5.852,5.852v7.426H3.9ZM95.986,52.961A7.747,7.747,0,0,1,88.248,60.7H65.829a1.951,1.951,0,0,0-1.379.571l-4.324,4.324V62.65A1.951,1.951,0,0,0,58.175,60.7H53.786a7.747,7.747,0,0,1-7.738-7.738V36.634A7.747,7.747,0,0,1,53.786,28.9H88.248a7.747,7.747,0,0,1,7.738,7.738V52.961Z" transform="translate(0 -0.029)"/></g><g transform="translate(49.559 38.871)"><path class="a" d="M259.882,199.125a5.852,5.852,0,1,0,5.852,5.852A5.859,5.859,0,0,0,259.882,199.125Zm0,7.8a1.951,1.951,0,1,1,1.951-1.951A1.953,1.953,0,0,1,259.882,206.928Z" transform="translate(-254.03 -199.125)"/></g><g transform="translate(65.165 38.871)"><path class="a" d="M339.873,199.125a5.852,5.852,0,1,0,5.852,5.852A5.859,5.859,0,0,0,339.873,199.125Zm0,7.8a1.951,1.951,0,1,1,1.951-1.951A1.953,1.953,0,0,1,339.873,206.928Z" transform="translate(-334.021 -199.125)"/></g><g transform="translate(80.771 38.871)"><path class="a" d="M419.864,199.125a5.852,5.852,0,1,0,5.852,5.852A5.859,5.859,0,0,0,419.864,199.125Zm0,7.8a1.951,1.951,0,1,1,1.951-1.951A1.953,1.953,0,0,1,419.864,206.928Z" transform="translate(-414.012 -199.125)"/></g><g transform="translate(31.051 26.572)"><path class="a" d="M162.49,136.654a1.949,1.949,0,1,0,.572,1.379A1.965,1.965,0,0,0,162.49,136.654Z" transform="translate(-159.16 -136.082)"/></g></g></svg>