<svg xmlns="http://www.w3.org/2000/svg" width="80.376" height="97.999" viewBox="0 0 80.376 97.999"><defs><style>.a{fill:#fff;}</style></defs><g transform="translate(-0.5)"><path class="a" d="M13.222,97.213a1.435,1.435,0,0,0-1.436-1.436H3.371V86.966l6.959,4.716a2.949,2.949,0,0,0,3.2,0l6.96-4.716v8.811H18.677a1.436,1.436,0,0,0,0,2.871h2.288a2.4,2.4,0,0,0,2.393-2.393V85.217a2.4,2.4,0,0,0-2.393-2.393H2.893A2.4,2.4,0,0,0,.5,85.217V96.256a2.4,2.4,0,0,0,2.393,2.393h8.894a1.435,1.435,0,0,0,1.436-1.436ZM17.243,85.7l-5.288,3.584a.324.324,0,0,1-.054,0L6.613,85.7Zm0,0" transform="translate(0 -66.971)"/><path class="a" d="M102.471,13.154h13.951a2.4,2.4,0,0,0,2.393-2.393V2.393A2.4,2.4,0,0,0,116.422,0H102.471a2.4,2.4,0,0,0-2.393,2.393v8.369A2.4,2.4,0,0,0,102.471,13.154ZM112.7,2.871l-3.228,2.187a.222.222,0,0,1-.055,0l-3.228-2.187Zm-9.752,1.271,4.9,3.32a2.956,2.956,0,0,0,3.195,0l4.9-3.32v6.141H102.949Zm0,0" transform="translate(-80.518)"/><path class="a" d="M241.272,475.516h5.93a1.436,1.436,0,1,0,0-2.871h-5.93a1.436,1.436,0,1,0,0,2.871Zm0,0" transform="translate(-193.526 -382.179)"/><path class="a" d="M119.166,121.552a1.435,1.435,0,0,0,1.436-1.436v-2.871a2.4,2.4,0,0,0-2.393-2.393H110.97V104.259a4.245,4.245,0,0,0-4.245-4.236H74.144a4.245,4.245,0,0,0-4.245,4.236v11.309H52.021a2.4,2.4,0,0,0-2.393,2.393v16.976a2.4,2.4,0,0,0,2.393,2.393H69.9v37.312a4.245,4.245,0,0,0,4.245,4.236h32.582a4.245,4.245,0,0,0,4.245-4.236V144.575h7.238a2.4,2.4,0,0,0,2.393-2.393V127.007a1.436,1.436,0,0,0-2.871,0v14.7h-16.3a4.64,4.64,0,0,0-2.6.907l-6.512,5.169V144.1a2.4,2.4,0,0,0-2.393-2.393H85.7v-23.98H117.73v2.393a1.435,1.435,0,0,0,1.436,1.436ZM69.9,134.458H52.5V119.711l11.539,7.819a2.957,2.957,0,0,0,3.2,0l2.666-1.806v8.734Zm0-12.2-4.236,2.87a.222.222,0,0,1-.055,0l-9.868-6.686H69.9Zm38.2,52.386a1.371,1.371,0,0,1-1.374,1.364H74.144a1.371,1.371,0,0,1-1.373-1.364V170.1H108.1Zm0-59.789H85.22a2.4,2.4,0,0,0-2.393,2.393v24.937a2.4,2.4,0,0,0,2.393,2.393h4.224V149.8a1.914,1.914,0,0,0,1.032,1.794,1.729,1.729,0,0,0,.756.173,2.083,2.083,0,0,0,1.29-.481l8.091-6.423a1.9,1.9,0,0,1,.813-.284H108.1v22.659H72.771V104.259a1.371,1.371,0,0,1,1.373-1.364h3.205l.862,2.7a4.14,4.14,0,0,0,3.807,2.778h1.456a1.436,1.436,0,1,0,0-2.871H82.018a1.313,1.313,0,0,1-1.072-.78l-.583-1.828h20.144l-.583,1.828a1.311,1.311,0,0,1-1.072.78H90.558a1.436,1.436,0,1,0,0,2.871h8.294a4.141,4.141,0,0,0,3.808-2.778l.861-2.7h3.205a1.371,1.371,0,0,1,1.373,1.364Zm0,0" transform="translate(-39.725 -80.879)"/><path class="a" d="M280.139,210.5H258.088a1.436,1.436,0,0,0,0,2.871h22.05a1.436,1.436,0,0,0,0-2.871Zm0,0" transform="translate(-207.124 -170.21)"/><path class="a" d="M280.139,235.48H258.088a1.436,1.436,0,0,0,0,2.871h22.05a1.436,1.436,0,0,0,0-2.871Zm0,0" transform="translate(-207.124 -190.408)"/><path class="a" d="M281.574,261.9a1.435,1.435,0,0,0-1.436-1.436H258.088a1.436,1.436,0,0,0,0,2.871h22.05A1.436,1.436,0,0,0,281.574,261.9Zm0,0" transform="translate(-207.124 -210.608)"/><path class="a" d="M258.088,285.441a1.436,1.436,0,0,0,0,2.871h11.391a1.436,1.436,0,0,0,0-2.871Zm0,0" transform="translate(-207.124 -230.807)"/><path class="a" d="M187.717,389.5a2.4,2.4,0,0,0-2.393,2.393V396.1a2.4,2.4,0,0,0,2.393,2.393h4.211a2.4,2.4,0,0,0,2.393-2.393v-4.211a2.4,2.4,0,0,0-2.393-2.393Zm3.732,6.125H188.2v-3.254h3.254Zm0,0" transform="translate(-149.448 -314.948)"/><path class="a" d="M241.717,398.5h4.211a2.4,2.4,0,0,0,2.393-2.393v-4.211a2.4,2.4,0,0,0-2.393-2.393h-4.211a2.4,2.4,0,0,0-2.393,2.393V396.1A2.4,2.4,0,0,0,241.717,398.5Zm.479-6.125h3.254v3.254H242.2Zm0,0" transform="translate(-193.112 -314.948)"/><path class="a" d="M295.717,398.5h4.211a2.4,2.4,0,0,0,2.393-2.393v-4.211a2.4,2.4,0,0,0-2.393-2.393h-4.211a2.4,2.4,0,0,0-2.393,2.393V396.1A2.4,2.4,0,0,0,295.717,398.5Zm.479-6.125h3.254v3.254H296.2Zm0,0" transform="translate(-236.777 -314.948)"/></g></svg>