<svg xmlns="http://www.w3.org/2000/svg" width="52.414" height="52.414" viewBox="0 0 52.414 52.414"><defs><style>.a{fill:none;}.b{fill:#f9d142;}</style></defs><path class="a" d="M0,0H52.414V52.414H0Z"/><path class="a" d="M0,0H52.414V52.414H0Z"/><g transform="translate(7.519 7.802)"><path class="b" d="M22.131,33.487l9.063,5.482a2.179,2.179,0,0,0,3.254-2.359L32.046,26.3l8.015-6.945a2.179,2.179,0,0,0-1.245-3.822l-10.548-.9L24.14,4.9a2.185,2.185,0,0,0-4.018,0l-4.128,9.718-10.548.9A2.179,2.179,0,0,0,4.2,19.335l8.015,6.945-2.4,10.308a2.179,2.179,0,0,0,3.254,2.359Z" transform="translate(-3.443 -3.573)"/></g></svg>