<svg xmlns="http://www.w3.org/2000/svg" width="96.418" height="100.974" viewBox="0 0 96.418 100.974"><defs><style>.a{fill:#023047;stroke:#023047;}</style></defs><g transform="translate(-11.167 0.5)"><path class="a" d="M105.62,4.866H85.7v-3.4A1.464,1.464,0,0,0,84.237,0H33.817a1.464,1.464,0,0,0-1.464,1.464v3.4H13.132a1.479,1.479,0,0,0-1.465,1.465V44.759a1.464,1.464,0,0,0,1.464,1.464H32.353V56.915a1.464,1.464,0,0,0,1.464,1.464h4.469a5.241,5.241,0,0,0-.555,1.817L35.806,76.869a11.647,11.647,0,0,0-.076,1.41c0,3.759,1.912,6.855,4.677,9.236l4.875,4.2v6.8a1.464,1.464,0,0,0,1.464,1.464h4.506a1.464,1.464,0,0,0,0-2.929H48.212v-6a1.465,1.465,0,0,0-.509-1.11l-4.809-4.14c-2.35-2.023-4.174-4.236-4.234-7.534a8.692,8.692,0,0,1,.057-1.051l1.925-16.672a2.327,2.327,0,0,1,2.314-2.06,2.424,2.424,0,0,1,1.745.791,2.371,2.371,0,0,1,.582,1.536V73.146a1.464,1.464,0,0,0,2.929,0V33.464a2.327,2.327,0,0,1,4.655-.012s0,.007,0,.011,0,.015,0,.023V52a1.482,1.482,0,1,0,2.941.018c0-.318,0-1.254.005-1.5.261-2.979,5.255-2.908,5.255.153v2.219a1.465,1.465,0,0,0,2.929,0,2.334,2.334,0,0,1,2.331-2.331c1.456,0,2.93.631,2.93,2.331v1.443a1.466,1.466,0,0,0,2.929.026,2.1,2.1,0,0,1,.075-.6,2.383,2.383,0,0,1,4.577-.011l1.807,6.96a29.474,29.474,0,0,1-.153,15.352L74.4,90.644a1.459,1.459,0,0,0-.054.4v6H58.264a1.464,1.464,0,0,0,0,2.929H75.81a1.464,1.464,0,0,0,1.464-1.464V91.242l4.04-14.387a32.4,32.4,0,0,0,.168-16.88l-.414-1.6h3.171A1.464,1.464,0,0,0,85.7,56.915V13.735h18.454v29.56H91.123a1.464,1.464,0,0,0,0,2.929h14.5a1.464,1.464,0,0,0,1.464-1.464V6.331h0a1.465,1.465,0,0,0-1.465-1.464ZM14.6,7.8H32.353v3.01H14.6ZM35.282,2.929h47.49v7.876H35.282ZM14.6,43.294V13.735H32.353v29.56Zm65.71,12.157-.632-2.436a5.355,5.355,0,0,0-8.283-2.907,5.87,5.87,0,0,0-7.881-1.654A5.793,5.793,0,0,0,55.8,45.969V34.928H69.118a1.42,1.42,0,0,1,1.418,1.42v2.813a1.419,1.419,0,0,1-1.418,1.418H61.1a1.464,1.464,0,1,0,0,2.929h8.016a4.352,4.352,0,0,0,4.347-4.347V36.347A4.353,4.353,0,0,0,69.118,32H55.586a5.256,5.256,0,0,0-10.3,1.465V55.451h-10V13.735H82.773V55.451Zm5.4-44.645V7.8h18.454v3.01Z"/><path class="a" d="M221.678,28.036H204.7a1.464,1.464,0,0,0,0,2.929h16.982a1.464,1.464,0,1,0,0-2.929Z" transform="translate(-154.16 -22.562)"/><path class="a" d="M169.631,84.734H158.067A1.464,1.464,0,0,0,156.6,86.2v6.688a1.464,1.464,0,0,0,1.464,1.464h11.563a1.464,1.464,0,0,0,1.464-1.464V86.2a1.464,1.464,0,0,0-1.464-1.464Zm-1.464,6.688h-8.634v-3.76h8.634Z" transform="translate(-116.636 -68.189)"/><path class="a" d="M407.321,112.656h8.7a1.464,1.464,0,0,0,0-2.929h-8.7a1.464,1.464,0,0,0,0,2.929Z" transform="translate(-317.22 -88.302)"/><path class="a" d="M416.021,144.92a1.464,1.464,0,0,0,0-2.929h-8.7a1.464,1.464,0,0,0,0,2.929Z" transform="translate(-317.22 -114.266)"/><path class="a" d="M43.4,112.656h8.7a1.464,1.464,0,1,0,0-2.929H43.4a1.464,1.464,0,0,0,0,2.929Z" transform="translate(-24.361 -88.302)"/><path class="a" d="M52.1,141.991H43.4a1.464,1.464,0,1,0,0,2.929h8.7a1.464,1.464,0,1,0,0-2.929Z" transform="translate(-24.361 -114.266)"/><path class="a" d="M270.1,101.861H254.559a1.464,1.464,0,1,0,0,2.929H270.1a1.464,1.464,0,0,0,0-2.929Z" transform="translate(-194.287 -81.972)"/></g></svg>