<svg xmlns="http://www.w3.org/2000/svg" width="24" height="19.5" viewBox="0 0 24 19.5"><defs><style>.a{fill:#fff;}</style></defs><path class="a" d="M21.534,7.113A9.822,9.822,0,0,0,24,4.559h0a10.276,10.276,0,0,1-2.835.777A4.894,4.894,0,0,0,23.33,2.616a9.845,9.845,0,0,1-3.12,1.191A4.92,4.92,0,0,0,11.7,7.171a5.066,5.066,0,0,0,.114,1.122A13.93,13.93,0,0,1,1.671,3.146,4.92,4.92,0,0,0,3.183,9.722,4.863,4.863,0,0,1,.96,9.116V9.17A4.943,4.943,0,0,0,4.9,14.005a4.893,4.893,0,0,1-1.29.162,4.343,4.343,0,0,1-.931-.084,4.969,4.969,0,0,0,4.6,3.428,9.89,9.89,0,0,1-6.1,2.1A9.306,9.306,0,0,1,0,19.542,13.856,13.856,0,0,0,7.548,21.75,13.908,13.908,0,0,0,21.534,7.113Z" transform="translate(0 -2.25)"/></svg>