<svg xmlns="http://www.w3.org/2000/svg" width="1082" height="614" viewBox="0 0 1082 614">
  <g id="Group_864" data-name="Group 864" transform="translate(-838 -218)">
    <path id="Path_4369" data-name="Path 4369" d="M1082,787.153c-46.071,31.821-88.5,34.817-115.048,34.817C829.851,821.971,738.61,680,544.061,680c-170.411,0-215.307,94.466-227.618,110.181s-60.1,115.01-92.688,136.619-148.1,79.3-199.135,157.076C11.534,1103.818,0,1139.869,0,1156.847H1082Z" transform="translate(838 -324.847)" fill="#edf5f8"/>
    <g id="Group_771" data-name="Group 771" transform="translate(3154.061 71.95)">
      <path id="Path_4303" data-name="Path 4303" d="M-1920.824,1021.04h153.013l12.693-34.173a48.337,48.337,0,0,1,25.463-27.161c11.082-5.014,26-14.116,40.454-30.346a281.056,281.056,0,0,0,43.064-65.457l-94.828-.464s8.535-53.044-38.6-123.493a39.875,39.875,0,0,1-6.553-25.628l4.468-51.381s32.027-35.791,12.377-80.195c0,0-18.79-26.017-26.244-16.492,0,0-56.758,135.158-61.926,155.255s-12.058,32.728-5.168,95.889a382.736,382.736,0,0,1,2.456,42.131,149.516,149.516,0,0,1-14.372,63.634Z" transform="translate(-96.735 -260.99)" fill="#f7c29e"/>
      <path id="Path_4304" data-name="Path 4304" d="M-1778.111,1414.575c-14.2-15.768-33.932-13.279-54.68-20.471s-27.4-59.05-27.4-59.05l0-.008c.033,1.957.049,3.857.045,5.688a149.516,149.516,0,0,1-14.372,63.634l-46.3,97.881h153.013l12.693-34.173a48.338,48.338,0,0,1,25.463-27.161,119.086,119.086,0,0,0,33.978-23.561C-1737.822,1435.069-1763.908,1430.343-1778.111,1414.575Z" transform="translate(-96.735 -742.2)" fill="#f7c29e" opacity="0.2" style="mix-blend-mode: multiply;isolation: isolate"/>
      <g id="Group_751" data-name="Group 751" transform="translate(-1942.506 146.05)">
        <path id="Path_4305" data-name="Path 4305" d="M-1721.1,150.553c35.177,55.5,121.879,104.969,121.879,104.969s-68.921-5.6-103.125-50.139l12.4-10.271s-9.857.953-18.115,1.907C-1715.663,184.4-1720.591,169.1-1721.1,150.553Z" transform="translate(1721.098 -148.861)" fill="#5cb30b"/>
        <path id="Path_4306" data-name="Path 4306" d="M-1628.8,170.7c-5.349,2.427-13.262,6.124-13.262,6.124l7.625-10.954a88.854,88.854,0,0,0-28.337-14.528c-3.926,5.716-8.539,12.1-8.539,12.1l-.916-14.582a135.248,135.248,0,0,0-48.87-1.12c35.177,55.5,121.879,104.969,121.879,104.969C-1599.611,211.929-1612.029,186.465-1628.8,170.7Z" transform="translate(1721.098 -146.05)" fill="#7fbf43"/>
      </g>
      <g id="Group_752" data-name="Group 752" transform="translate(-1955.422 214.635)">
        <path id="Path_4307" data-name="Path 4307" d="M-1755.47,339.99a81.708,81.708,0,0,1,31.047-10.694c3.074,3.509,6.844,7.634,6.844,7.634l.209-8.261c39.209-1.879,72.266,22.815,72.266,22.815-22.437,13.65-41.746,17.477-57.655,16.344-1-2.885-2.429-7.189-2.429-7.189l-2.662,6.649a72.348,72.348,0,0,1-20.267-6.015c1.412-3.449,2.892-7.391,2.892-7.391l-8.36,4.582A74.285,74.285,0,0,1-1755.47,339.99Z" transform="translate(1755.47 -328.566)" fill="#0ea83c"/>
        <path id="Path_4308" data-name="Path 4308" d="M-1702.758,385.129c-1-2.885-2.429-7.189-2.429-7.189l-2.662,6.649a72.347,72.347,0,0,1-20.267-6.015c1.412-3.449,2.892-7.391,2.892-7.391l-8.36,4.582a74.285,74.285,0,0,1-21.885-18.474c45.618-5.214,110.367,11.494,110.367,11.494C-1667.541,382.435-1686.849,386.262-1702.758,385.129Z" transform="translate(1755.47 -345.868)" fill="#18852e"/>
      </g>
      <g id="Group_753" data-name="Group 753" transform="translate(-1587.902 204.667)">
        <path id="Path_4309" data-name="Path 4309" d="M-733.538,317.728l-3.308,24.928,17.706-12.931,54.194-27.686-41.919,3.838s-21.355,5.188-22.51,6.234A51.944,51.944,0,0,0-733.538,317.728Z" transform="translate(752.1 -302.039)" fill="#ab2522"/>
        <path id="Path_4310" data-name="Path 4310" d="M-777.44,302.675l87.154-.636-68.592,15.689Z" transform="translate(777.44 -302.039)" fill="#d2302c"/>
        <path id="Path_4311" data-name="Path 4311" d="M-691.42,342.806l-22.837-18.343,63.412-22.424Z" transform="translate(737.999 -302.039)" fill="#d2302c"/>
      </g>
      <g id="Group_757" data-name="Group 757" transform="translate(-1649.761 230.266)">
        <g id="Group_754" data-name="Group 754" transform="translate(70.888)">
          <path id="Path_4312" data-name="Path 4312" d="M-752.863,373.239a26.387,26.387,0,0,1,5.817-1.528l-.164-1.548a27.586,27.586,0,0,0-6.2,1.619Z" transform="translate(753.411 -370.163)" fill="#292929"/>
        </g>
        <g id="Group_755" data-name="Group 755" transform="translate(16.515 7.921)">
          <path id="Path_4313" data-name="Path 4313" d="M-898.107,525.228a98.148,98.148,0,0,0,10.09-5.855l.863,1.3a99.8,99.8,0,0,1-10.25,5.948Zm19.274-13A63.3,63.3,0,0,0-871,503.664l1.242.937a64.793,64.793,0,0,1-8.025,8.775Zm13.847-18.469c.763-1.6,1.466-3.271,2.087-4.962.7-1.914,1.327-3.915,1.852-5.947l1.507.389c-.538,2.082-1.176,4.133-1.9,6.1-.638,1.735-1.36,3.449-2.143,5.093Zm6.286-34.037,1.556-.035a100.594,100.594,0,0,1-.383,11.847l-1.549-.147A99.064,99.064,0,0,0-858.7,459.722Zm-2.214-23.329,1.54-.22c.652,4.554,1.117,8.275,1.464,11.71l-1.549.156C-859.8,444.627-860.267,440.926-860.915,436.394Zm-1.742-11.719a57.271,57.271,0,0,1-.589-11.814l1.553.1a55.75,55.75,0,0,0,.574,11.486l.013.091-1.542.212Zm1.956-23.508a28.257,28.257,0,0,1,6.756-9.926l1.069,1.131a26.716,26.716,0,0,0-6.384,9.384Z" transform="translate(898.107 -391.241)" fill="#292929"/>
        </g>
        <g id="Group_756" data-name="Group 756" transform="translate(0 146.687)">
          <path id="Path_4314" data-name="Path 4314" d="M-941.545,764.14c2-.7,3.977-1.426,5.868-2.171l-.57-1.448c-1.871.737-3.825,1.46-5.808,2.149Z" transform="translate(942.056 -760.521)" fill="#292929"/>
        </g>
      </g>
      <g id="Group_758" data-name="Group 758" transform="translate(-1659.617 202.87)">
        <path id="Path_4315" data-name="Path 4315" d="M-965.989,309.532s32.409-21.692,39.81-7.4-42.107,64.861-42.107,64.861Z" transform="translate(968.286 -297.259)" fill="#f19c61"/>
        <path id="Path_4316" data-name="Path 4316" d="M-965.989,561.045s32.409-21.692,39.81-7.4-42.107,64.86-42.107,64.86Z" transform="translate(968.286 -454.259)" fill="#f19c61"/>
        <path id="Path_4317" data-name="Path 4317" d="M-965.989,732.4s32.409-21.692,39.81-7.4-42.107,64.86-42.107,64.86Z" transform="translate(968.286 -561.226)" fill="#f19c61"/>
      </g>
      <path id="Path_4318" data-name="Path 4318" d="M-1357.156,265.235H-1535.08a23.992,23.992,0,0,0-23.992,23.992V652.855a24,24,0,0,0,23.992,23.992h177.924a23.992,23.992,0,0,0,23.992-23.992V289.227A24,24,0,0,0-1357.156,265.235Z" transform="translate(-322.549 -74.398)" fill="#023047"/>
      <path id="Path_4319" data-name="Path 4319" d="M-1564.564,997.407s-32.182,78.779-29.06,93.675,22.651,34.814,70.566,28.175,81.033-15.517,81.033-15.517,2-106.319,0-111.71-88.154-43.661-91.543-43.661S-1564.564,997.407-1564.564,997.407Z" transform="translate(-300.847 -500.827)" fill="#f7c29e" opacity="0.2" style="mix-blend-mode: multiply;isolation: isolate"/>
      <rect id="Rectangle_323" data-name="Rectangle 323" width="202.647" height="346.213" transform="translate(-1869.99 223.536)" fill="#fff"/>
      <path id="Path_4320" data-name="Path 4320" d="M-1430.555,889.63h-175.993a11.007,11.007,0,0,0-11.007,11.007v72.628a11.007,11.007,0,0,0,11.007,11.007h138.559c5.608,7.826,15.775,21.838,16.672,21.838.84,0-.777-13.235-1.918-21.838h22.679a11.007,11.007,0,0,0,11.008-11.007V900.637A11.007,11.007,0,0,0-1430.555,889.63Z" transform="translate(-286.042 -464.16)" fill="#f9d142" opacity="0.3" style="mix-blend-mode: multiply;isolation: isolate"/>
      <path id="Path_4321" data-name="Path 4321" d="M-1281.783,451.738H-1469.14a11.007,11.007,0,0,0-11.007,11.007v78.06a11.007,11.007,0,0,0,11.007,11.007h19.456c-1.129,8.594-2.608,20.92-1.8,20.92.863,0,10.3-12.968,16.014-20.92h153.684a11.007,11.007,0,0,0,11.007-11.007v-78.06A11.007,11.007,0,0,0-1281.783,451.738Z" transform="translate(-371.816 -190.818)" fill="#d2302c" opacity="0.3" style="mix-blend-mode: multiply;isolation: isolate"/>
      <path id="Rectangle_324" data-name="Rectangle 324" d="M2.169,0H84.546a2.169,2.169,0,0,1,2.169,2.169v0a2.169,2.169,0,0,1-2.169,2.169H2.169A2.169,2.169,0,0,1,0,2.169v0A2.169,2.169,0,0,1,2.169,0Z" transform="translate(-1811.859 208.318)" fill="#fff"/>
      <path id="Path_4322" data-name="Path 4322" d="M-1655.732,693.944s1.223,4.545,3.988,6.782l3.286-37.788s23.561-26.329,17.868-61.839a53.056,53.056,0,0,0-17.242-31.472c-5.279-4.64-11.076-7.741-14.493-3.375,0,0-26.691,63.559-45.132,109.986Z" transform="translate(-229.923 -260.991)" fill="#f7c29e"/>
      <path id="Path_4323" data-name="Path 4323" d="M-1449.891,839.495h-175.994a11.007,11.007,0,0,0-11.007,11.007v72.629a11.007,11.007,0,0,0,11.007,11.007h138.559c5.608,7.825,15.775,21.838,16.672,21.838.841,0-.778-13.235-1.918-21.838h22.68a11.007,11.007,0,0,0,11.007-11.007V850.5A11.007,11.007,0,0,0-1449.891,839.495Z" transform="translate(-273.972 -432.865)" fill="#f9d142"/>
      <g id="Group_760" data-name="Group 760" transform="translate(-1778.736 576.477)">
        <path id="Path_4324" data-name="Path 4324" d="M-1265.375,1301.437a9.952,9.952,0,0,1-9.952,9.953,9.952,9.952,0,0,1-9.953-9.953,9.953,9.953,0,0,1,9.953-9.953A9.953,9.953,0,0,1-1265.375,1301.437Z" transform="translate(1285.28 -1291.484)" fill="#fff"/>
      </g>
      <path id="Path_4326" data-name="Path 4326" d="M-1605.847,603.582c7.375-3.393,11.226-22.582,12.6-31.207-5.918-5.954-13.342-11.312-17.4-6.124,0,0-5.877,14-14.021,33.649C-1619.1,603-1611.36,606.118-1605.847,603.582Z" transform="translate(-281.603 -260.99)" fill="#f9e9de"/>
      <path id="Path_4327" data-name="Path 4327" d="M-1127.413,959.049s-27.37,2.3-28.327,9.57,1.148,20.1,26.987,22.585h26.764s-8.008-22.2-7.625-22.968S-1127.413,959.049-1127.413,959.049Z" transform="translate(-574.208 -507.493)" fill="#f3aa78"/>
      <path id="Path_4328" data-name="Path 4328" d="M-1203.408,931.728a7.426,7.426,0,0,0-2.893,10.284c12.6,21.722,62.676,108.048,67.19,115.069,5.168,8.039,17.8,26.987,59.716,36.748s59.141,37.9,59.141,37.9h129.192s-30.432-48.232-55.7-173.405c0,0-19.523-103.928-56.271-100.483,0,0-22.393-23.542-44.212-18.949,0,0-41.342-24.69-64.883-24.69l-56.547-66.829a16.362,16.362,0,0,0-22.342-2.645,10.712,10.712,0,0,0-4.368,6.887c-1.722,10.91,12.632,38.471,35.6,71.774s79.812,138.954,55.122,185.463a249.77,249.77,0,0,1-47.083-49.38C-1170.014,933.985-1191.507,925.413-1203.408,931.728Z" transform="translate(-542.127 -371.677)" fill="#f7c29e"/>
      <path id="Path_4329" data-name="Path 4329" d="M-953.641,935.079a235.529,235.529,0,0,1,21.177,20.71c8.971,9.761,20.3,24.232,26.945,35.409,8.385,13.821,13.919,25.938,16.536,41.156l-.169.035c-3.013-14.3-10.883-29.693-17.739-40.33a298.514,298.514,0,0,0-26.6-35.378c-6.014-6.936-13.64-15.13-20.271-21.476Z" transform="translate(-700.399 -492.531)" fill="#f19c61"/>
      <path id="Path_4330" data-name="Path 4330" d="M-782.462,1000.239a63.825,63.825,0,0,1,16.361,12.407,79.171,79.171,0,0,1,12.4,16.539,80.778,80.778,0,0,1,7.761,19.154,78.1,78.1,0,0,1,2.6,20.365l-.172.014a100.256,100.256,0,0,0-3.724-19.994,90.7,90.7,0,0,0-7.962-18.692,88.593,88.593,0,0,0-11.9-16.468,76.429,76.429,0,0,0-15.446-13.176Z" transform="translate(-807.273 -533.205)" fill="#f19c61"/>
      <path id="Path_4331" data-name="Path 4331" d="M-665.074,1049.855c5.4,4.083,10.866,11.312,13.516,16.2a72.975,72.975,0,0,1,7.718,19.686,61.26,61.26,0,0,1,1.8,13.933l-.171.024a103.861,103.861,0,0,0-2.932-13.588,95.046,95.046,0,0,0-7.842-19.278,77.111,77.111,0,0,0-12.167-16.846Z" transform="translate(-880.556 -564.177)" fill="#f19c61"/>
      <path id="Path_4332" data-name="Path 4332" d="M-1177.327,1274.272c1.145-5.812-5.628-15.031-11.776-21.987a14.294,14.294,0,0,0-15.226-4.149,7.436,7.436,0,0,0-1.968,9.69c3.385,5.837,9.477,16.34,16.663,28.715C-1184.253,1283.8-1178.387,1279.653-1177.327,1274.272Z" transform="translate(-542.13 -687.491)" fill="#f9e9de"/>
      <path id="Path_4333" data-name="Path 4333" d="M-1141.9,774.779c3.267-.654,18.086-5.582,17.179-8.283h0l-14.617-17.275a16.649,16.649,0,0,0-11.142-5.822h0l-.069-.007c-.118-.01-.387-.03-.762-.03-1.96,0-6.786.56-7.848,5.867-1.048,5.241,7.627,17.979,11.453,23.276A5.764,5.764,0,0,0-1141.9,774.779Z" transform="translate(-572.131 -372.856)" fill="#f9e9de"/>
      <path id="Path_4334" data-name="Path 4334" d="M-1831.332,1538.309c16.191,9.948,68.315,39.691,122.211,46.032,3.157.372,5.378,3.265,4.444,5.766l-9.415,25.22a4.188,4.188,0,0,1-4.6,2.387c-15.884-1.929-81.421-11.793-127.533-47.465a4.129,4.129,0,0,1-1.645-4.628l9.609-25.737C-1837.36,1537.46-1833.968,1536.69-1831.332,1538.309Z" transform="translate(-142.139 -868.548)" fill="#023047"/>
      <path id="Path_4335" data-name="Path 4335" d="M-1818.36,1585.018l-.179-.066a1.827,1.827,0,0,1-1.072-2.351l2.9-7.764a1.827,1.827,0,0,1,2.35-1.073l.178.066a1.827,1.827,0,0,1,1.073,2.351l-2.9,7.764A1.827,1.827,0,0,1-1818.36,1585.018Z" transform="translate(-159.842 -891.141)" fill="#141414"/>
      <path id="Path_4336" data-name="Path 4336" d="M-1792.56,1600.918l-.178-.067a1.827,1.827,0,0,1-1.072-2.351l2.9-7.764a1.827,1.827,0,0,1,2.35-1.073l.178.067a1.828,1.828,0,0,1,1.073,2.351l-2.9,7.763A1.828,1.828,0,0,1-1792.56,1600.918Z" transform="translate(-175.947 -901.066)" fill="#141414"/>
      <path id="Rectangle_327" data-name="Rectangle 327" d="M1.922,0h0A1.922,1.922,0,0,1,3.844,1.922v8.1a1.922,1.922,0,0,1-1.922,1.922h0A1.922,1.922,0,0,1,0,10.02v-8.1A1.922,1.922,0,0,1,1.922,0Z" transform="translate(-1956.512 693.893) rotate(20.451)" fill="#141414"/>
      <path id="Path_4337" data-name="Path 4337" d="M-1740.127,1629.553l-.178-.066a1.828,1.828,0,0,1-1.073-2.351l2.9-7.763a1.828,1.828,0,0,1,2.351-1.073l.178.067a1.827,1.827,0,0,1,1.072,2.351l-2.9,7.764A1.827,1.827,0,0,1-1740.127,1629.553Z" transform="translate(-208.676 -918.94)" fill="#141414"/>
      <path id="Path_4338" data-name="Path 4338" d="M-1713.965,1644.482l-.178-.066a1.827,1.827,0,0,1-1.072-2.351l2.9-7.764a1.827,1.827,0,0,1,2.351-1.072l.178.066a1.827,1.827,0,0,1,1.072,2.35l-2.9,7.765A1.827,1.827,0,0,1-1713.965,1644.482Z" transform="translate(-225.008 -928.26)" fill="#141414"/>
      <path id="Path_4339" data-name="Path 4339" d="M-1686.649,1656.32l-.178-.067a1.827,1.827,0,0,1-1.073-2.351l2.9-7.764a1.827,1.827,0,0,1,2.351-1.072l.178.066a1.827,1.827,0,0,1,1.073,2.351l-2.9,7.764A1.827,1.827,0,0,1-1686.649,1656.32Z" transform="translate(-242.059 -935.649)" fill="#141414"/>
      <path id="Path_4340" data-name="Path 4340" d="M-1658.8,1666.719l-.178-.066a1.828,1.828,0,0,1-1.073-2.351l2.9-7.764a1.827,1.827,0,0,1,2.35-1.073l.178.067a1.827,1.827,0,0,1,1.073,2.351l-2.9,7.764A1.826,1.826,0,0,1-1658.8,1666.719Z" transform="translate(-259.446 -942.14)" fill="#141414"/>
      <path id="Rectangle_328" data-name="Rectangle 328" d="M1.922,0h0a1.92,1.92,0,0,1,1.92,1.92v8.1a1.923,1.923,0,0,1-1.923,1.923h0A1.921,1.921,0,0,1,0,10.02v-8.1A1.922,1.922,0,0,1,1.922,0Z" transform="translate(-1905.29 716.053) rotate(20.441)" fill="#141414"/>
      <path id="Path_4341" data-name="Path 4341" d="M-1600.86,1681.548l-.178-.067a1.827,1.827,0,0,1-1.072-2.351l2.9-7.764a1.827,1.827,0,0,1,2.351-1.073l.178.067a1.827,1.827,0,0,1,1.072,2.351l-2.9,7.764A1.827,1.827,0,0,1-1600.86,1681.548Z" transform="translate(-295.611 -951.397)" fill="#141414"/>
      <path id="Path_4342" data-name="Path 4342" d="M-1572.094,1689.5l-.178-.066a1.827,1.827,0,0,1-1.073-2.351l2.9-7.764a1.827,1.827,0,0,1,2.35-1.073l.178.067a1.827,1.827,0,0,1,1.072,2.351l-2.9,7.764A1.828,1.828,0,0,1-1572.094,1689.5Z" transform="translate(-313.567 -956.362)" fill="#141414"/>
      <path id="Path_4343" data-name="Path 4343" d="M-1542.228,1694.508l-.178-.067a1.827,1.827,0,0,1-1.073-2.351l2.9-7.764a1.828,1.828,0,0,1,2.351-1.073l.178.067a1.827,1.827,0,0,1,1.072,2.351l-2.9,7.764A1.827,1.827,0,0,1-1542.228,1694.508Z" transform="translate(-332.21 -959.487)" fill="#141414"/>
      <path id="Path_4344" data-name="Path 4344" d="M-1512.32,1699.405l-.178-.067a1.826,1.826,0,0,1-1.073-2.35l2.9-7.764a1.826,1.826,0,0,1,2.35-1.073l.178.067a1.827,1.827,0,0,1,1.073,2.35l-2.9,7.764A1.827,1.827,0,0,1-1512.32,1699.405Z" transform="translate(-350.879 -962.544)" fill="#141414"/>
      <path id="Path_4345" data-name="Path 4345" d="M-1747.875,1621.921l.044-.119a2.278,2.278,0,0,1-.51-.124l-12.755-4.762a2.545,2.545,0,0,1-1.363-3.32l11.5-30.805a2.545,2.545,0,0,1,3.2-1.615l12.755,4.762a2.378,2.378,0,0,1,1.455,1.674q1.5.656,3.03,1.309a5.517,5.517,0,0,0-3.362-5.993l-12.755-4.762a5.648,5.648,0,0,0-7.114,3.585l-11.5,30.806a5.647,5.647,0,0,0,3.024,7.369l12.756,4.762a5.37,5.37,0,0,0,5.506-1.187Q-1745.913,1622.729-1747.875,1621.921Z" transform="translate(-193.604 -893.762)" fill="#fff"/>
      <path id="Path_4346" data-name="Path 4346" d="M-1739.462,1626.448l-5.548-2.072a2,2,0,0,0-2.527,1.273,2,2,0,0,0,1.074,2.618l5.548,2.072Z" transform="translate(-204.816 -922.736)" fill="#fff"/>
      <path id="Path_4347" data-name="Path 4347" d="M-905.717,1597.089h129.192s-19.951-31.625-40.957-110.111c-9.218,57.791-60.075,54.458-80.258,57.665-23.238,3.692-113.446-15.117-126.085-21.042,5.621,8.578,18.947,26.272,58.966,35.591C-922.942,1568.953-905.717,1597.089-905.717,1597.089Z" transform="translate(-656.663 -837.039)" fill="#f7c29e" opacity="0.2" style="mix-blend-mode: multiply;isolation: isolate"/>
      <path id="Path_4348" data-name="Path 4348" d="M-1062.651,987.342c25.33,40.7,70.777,134.195,48.292,174.986l14.924,14.73s37.707-41.772-22.3-133.893A614.186,614.186,0,0,0-1062.651,987.342Z" transform="translate(-632.426 -525.155)" fill="#f7c29e" opacity="0.2" style="mix-blend-mode: multiply;isolation: isolate"/>
      <path id="Path_4349" data-name="Path 4349" d="M-1554.617,919.587a27.594,27.594,0,0,1-27.594,27.594,27.594,27.594,0,0,1-27.595-27.594,27.594,27.594,0,0,1,27.595-27.595A27.594,27.594,0,0,1-1554.617,919.587Z" transform="translate(-290.879 -465.635)" fill="#fff"/>
      <path id="Path_4350" data-name="Path 4350" d="M-1575.544,934.987s-2.736-11.228,3.782-15.434,13.479-5.167,18.235-2.744c6.593,3.358,9.3,12.433,7.192,17.453l-17.5-4.4Z" transform="translate(-311.911 -480.31)"/>
      <g id="Group_761" data-name="Group 761" transform="translate(-1891.873 439.062)">
        <rect id="Rectangle_329" data-name="Rectangle 329" width="8.102" height="8.089" transform="translate(15.046 28.794)" fill="#f7c29e"/>
        <path id="Path_4351" data-name="Path 4351" d="M-1538.213,1007.277v-4.85h-8.1v4.126C-1544.571,1007.489-1541.988,1008.027-1538.213,1007.277Z" transform="translate(1561.361 -973.633)" fill="#f19a5e"/>
        <path id="Path_4352" data-name="Path 4352" d="M-1550.431,940.116a3.01,3.01,0,0,0-2.715.107,13.906,13.906,0,0,0-14.427-14.413A13.906,13.906,0,0,0-1582,940.224a3.009,3.009,0,0,0-2.715-.107c-1.622.8-2.126,3.087-1.126,5.111s3.126,3.018,4.748,2.219a2.652,2.652,0,0,0,.608-.417,13.066,13.066,0,0,0,12.913,11.454,13.066,13.066,0,0,0,12.913-11.454,2.643,2.643,0,0,0,.607.417c1.622.8,3.748-.195,4.748-2.219S-1548.809,940.915-1550.431,940.116Z" transform="translate(1586.355 -925.802)" fill="#f7c29e"/>
        <path id="Path_4353" data-name="Path 4353" d="M-1537.278,988.986c-.356,1.6-2.188,2.858-4.433,2.926s-4.15-1.075-4.6-2.65Z" transform="translate(1561.361 -965.243)" fill="#fff"/>
      </g>
      <path id="Path_4354" data-name="Path 4354" d="M-1575.608,936.34s10.6-3.213,15.245-8.577c0,0-1.314,6.462-2.294,7.494.309.206,10.591-4.793,11.988-9.406s-10.512-6.271-10.512-6.271-4.081,1.737-4.287,1.84-4.034.55-4.473,1.526c-.571,1.271-3.273,1.383-3.273,1.383l-1.706,3.55-1.194,3.735Z" transform="translate(-311.911 -482.856)"/>
      <path id="Path_4355" data-name="Path 4355" d="M-1597.883,906.456a11.609,11.609,0,0,0,7.852.517c6.188-1.9,8.639-1.164,9.462-.7a2.015,2.015,0,0,0,1.624.211c.61-.2,1.177-.756,1-2.15a11.245,11.245,0,0,0-4.8-9.23A27.656,27.656,0,0,0-1597.883,906.456Z" transform="translate(-298.322 -467.579)"/>
      <g id="Group_763" data-name="Group 763" transform="translate(-1882.999 435.36)">
        <g id="Group_762" data-name="Group 762" transform="translate(0 0)">
          <path id="Path_4356" data-name="Path 4356" d="M-1562.63,919.08l0,0a.523.523,0,0,1,.128-.753,14.532,14.532,0,0,1,6.885-2.373.526.526,0,0,1,.551.525h0a.523.523,0,0,1-.5.522,13.682,13.682,0,0,0-6.362,2.2A.523.523,0,0,1-1562.63,919.08Z" transform="translate(1562.739 -915.951)" fill="#7fbf43"/>
        </g>
      </g>
      <g id="Group_765" data-name="Group 765" transform="translate(-1843.944 240.171)">
        <path id="Path_4357" data-name="Path 4357" d="M-1257.948,396.521H-1445.3a11.007,11.007,0,0,0-11.007,11.007v78.06A11.007,11.007,0,0,0-1445.3,496.6h19.455c-1.129,8.593-2.607,20.919-1.8,20.919.863,0,10.3-12.967,16.014-20.919h153.683a11.007,11.007,0,0,0,11.007-11.007v-78.06A11.007,11.007,0,0,0-1257.948,396.521Z" transform="translate(1457.25 -396.521)" fill="#d2302c"/>
        <circle id="Ellipse_26" data-name="Ellipse 26" cx="27.594" cy="27.594" r="27.594" transform="translate(0 62.068) rotate(-62.53)" fill="#fff"/>
        <g id="Group_764" data-name="Group 764" transform="translate(18.43 28.32)">
          <rect id="Rectangle_330" data-name="Rectangle 330" width="8.102" height="8.089" transform="translate(15.046 35.898)" fill="#f7c29e"/>
          <path id="Path_4358" data-name="Path 4358" d="M-1361.621,572.265v-4.85h-8.1v4.126C-1367.98,572.477-1365.4,573.016-1361.621,572.265Z" transform="translate(1384.77 -531.517)" fill="#f19a5e"/>
          <path id="Path_4359" data-name="Path 4359" d="M-1373.84,505.105a3.009,3.009,0,0,0-2.715.107,13.906,13.906,0,0,0-14.427-14.413,13.906,13.906,0,0,0-14.427,14.413,3.01,3.01,0,0,0-2.715-.107c-1.622.8-2.126,3.087-1.126,5.111s3.126,3.018,4.748,2.219a2.652,2.652,0,0,0,.607-.417,13.065,13.065,0,0,0,12.913,11.454,13.065,13.065,0,0,0,12.913-11.454,2.652,2.652,0,0,0,.608.417c1.622.8,3.748-.195,4.748-2.219S-1372.218,505.9-1373.84,505.105Z" transform="translate(1409.763 -483.686)" fill="#f7c29e"/>
          <path id="Path_4360" data-name="Path 4360" d="M-1397.508,475.835s4.066-3.442,13.308-2.886,11,5.379,11.526,12.266l-.541,8.2s-2.4-2.467-5.525-9.308c0,0-5.174,5.807-7.428,5.119s.852-4.869.852-4.869-10.543,9.072-16.753,9.058c0,0-3.286-10.617,1.326-14.512,0,0-3.474.166-3.658-.517s1.657-1.706,5-1.32c0,0-2.38-4.655-1.051-5.139S-1397.508,475.835-1397.508,475.835Z" transform="translate(1406.424 -471.885)" fill="#050505"/>
          <path id="Path_4361" data-name="Path 4361" d="M-1360.686,553.976c-.356,1.6-2.188,2.858-4.434,2.926s-4.151-1.075-4.6-2.65Z" transform="translate(1384.77 -523.128)" fill="#fff"/>
        </g>
        <path id="Rectangle_331" data-name="Rectangle 331" d="M2.4,0H107.428a2.4,2.4,0,0,1,2.4,2.4v0a2.4,2.4,0,0,1-2.4,2.4H2.4A2.4,2.4,0,0,1,0,2.4v0A2.4,2.4,0,0,1,2.4,0Z" transform="translate(74.303 22.495)" fill="#fff"/>
        <path id="Rectangle_332" data-name="Rectangle 332" d="M2.4,0H23.539a2.4,2.4,0,0,1,2.4,2.4v0a2.4,2.4,0,0,1-2.4,2.4H2.4A2.4,2.4,0,0,1,0,2.4v0A2.4,2.4,0,0,1,2.4,0Z" transform="translate(74.303 35.148)" fill="#fff"/>
        <rect id="Rectangle_333" data-name="Rectangle 333" width="74.1" height="4.795" rx="2.398" transform="translate(110.028 35.148)" fill="#fff"/>
        <rect id="Rectangle_334" data-name="Rectangle 334" width="56.736" height="4.795" rx="2.398" transform="translate(74.303 47.8)" fill="#fff"/>
        <path id="Rectangle_335" data-name="Rectangle 335" d="M2.4,0h40a2.4,2.4,0,0,1,2.4,2.4v0a2.4,2.4,0,0,1-2.4,2.4H2.4A2.4,2.4,0,0,1,0,2.4v0A2.4,2.4,0,0,1,2.4,0Z" transform="translate(139.338 47.8)" fill="#fff"/>
        <path id="Rectangle_336" data-name="Rectangle 336" d="M2.4,0H107.428a2.4,2.4,0,0,1,2.4,2.4v0a2.4,2.4,0,0,1-2.4,2.4H2.4A2.4,2.4,0,0,1,0,2.4v0A2.4,2.4,0,0,1,2.4,0Z" transform="translate(74.303 60.453)" fill="#fff"/>
      </g>
      <path id="Rectangle_337" data-name="Rectangle 337" d="M2.4,0H34.57a2.4,2.4,0,0,1,2.4,2.4v0a2.4,2.4,0,0,1-2.4,2.4H2.4A2.4,2.4,0,0,1,0,2.4v0A2.4,2.4,0,0,1,2.4,0Z" transform="translate(-1840.116 430.179)" fill="#fff"/>
      <path id="Rectangle_338" data-name="Rectangle 338" d="M2.4,0H22.573a2.4,2.4,0,0,1,2.4,2.4v0a2.4,2.4,0,0,1-2.4,2.4H2.4A2.4,2.4,0,0,1,0,2.4v0A2.4,2.4,0,0,1,2.4,0Z" transform="translate(-1840.116 442.832)" fill="#fff"/>
      <path id="Rectangle_339" data-name="Rectangle 339" d="M2.4,0H28.331a2.4,2.4,0,0,1,2.4,2.4v0a2.4,2.4,0,0,1-2.4,2.4H2.4A2.4,2.4,0,0,1,0,2.4v0A2.4,2.4,0,0,1,2.4,0Z" transform="translate(-1810.84 442.832)" fill="#fff"/>
      <path id="Rectangle_340" data-name="Rectangle 340" d="M2.4,0H39.025a2.4,2.4,0,0,1,2.4,2.4v0a2.4,2.4,0,0,1-2.4,2.4H2.4A2.4,2.4,0,0,1,0,2.4v0A2.4,2.4,0,0,1,2.4,0Z" transform="translate(-1775.805 442.832)" fill="#fff"/>
      <path id="Rectangle_341" data-name="Rectangle 341" d="M2.4,0H60.243a2.4,2.4,0,0,1,2.4,2.4v0a2.4,2.4,0,0,1-2.4,2.4H2.4A2.4,2.4,0,0,1,0,2.4v0A2.4,2.4,0,0,1,2.4,0Z" transform="translate(-1797.023 430.179)" fill="#fff"/>
      <path id="Rectangle_342" data-name="Rectangle 342" d="M2.4,0H103.336a2.4,2.4,0,0,1,2.4,2.4v0a2.4,2.4,0,0,1-2.4,2.4H2.4A2.4,2.4,0,0,1,0,2.4v0A2.4,2.4,0,0,1,2.4,0Z" transform="translate(-1840.116 467.633)" fill="#fff"/>
      <path id="Rectangle_343" data-name="Rectangle 343" d="M2.4,0H52.225a2.4,2.4,0,0,1,2.4,2.4v0a2.4,2.4,0,0,1-2.4,2.4H2.4A2.4,2.4,0,0,1,0,2.4v0A2.4,2.4,0,0,1,2.4,0Z" transform="translate(-1840.116 455.484)" fill="#fff"/>
      <path id="Rectangle_344" data-name="Rectangle 344" d="M2.4,0H40.724a2.4,2.4,0,0,1,2.4,2.4v0a2.4,2.4,0,0,1-2.4,2.4H2.4A2.4,2.4,0,0,1,0,2.4v0A2.4,2.4,0,0,1,2.4,0Z" transform="translate(-1777.504 455.484)" fill="#fff"/>
      <g id="Group_769" data-name="Group 769" transform="translate(-2020.259 435.13)">
        <g id="Group_766" data-name="Group 766" transform="translate(13.479 0)">
          <path id="Path_4362" data-name="Path 4362" d="M-1887.208,920.177a26.377,26.377,0,0,0-4.932-3.443l.688-1.4a27.554,27.554,0,0,1,5.261,3.661Z" transform="translate(1892.14 -915.338)" fill="#292929"/>
        </g>
        <g id="Group_767" data-name="Group 767" transform="translate(0 13.101)">
          <path id="Path_4363" data-name="Path 4363" d="M-1907.13,1092.256a99.753,99.753,0,0,1-7.566-9.121l1.257-.917a98.213,98.213,0,0,0,7.448,8.979Zm-13.842-19.2a64.8,64.8,0,0,1-4.5-11.006l1.49-.451a63.216,63.216,0,0,0,4.393,10.741Zm-6.786-22.687c-.168-1.814-.252-3.671-.252-5.521,0-2.091.109-4.236.323-6.376l1.548.155c-.209,2.088-.315,4.182-.316,6.221,0,1.8.083,3.611.246,5.378Zm3.728-23.179-1.5-.4a100.6,100.6,0,0,1,3.73-11.251l1.448.57A98.958,98.958,0,0,0-1924.03,1027.19Zm8.419-21.78-1.4-.681c1.511-3.1,3.233-6.436,5.418-10.484l1.369.739C-1912.4,999.013-1914.109,1002.326-1915.611,1005.41Zm11.034-20.761-1.374-.731.044-.08a55.758,55.758,0,0,0,4.5-10.581l1.491.445a57.287,57.287,0,0,1-4.632,10.884Zm4.76-22.745a26.717,26.717,0,0,0-2.751-11.011l1.394-.692a28.255,28.255,0,0,1,2.913,11.648Z" transform="translate(1928.011 -950.201)" fill="#292929"/>
        </g>
        <g id="Group_768" data-name="Group 768" transform="translate(29.383 162.278)">
          <path id="Path_4364" data-name="Path 4364" d="M-1845.062,1352.41c-1.64-1.344-3.24-2.712-4.757-4.063l1.035-1.162c1.5,1.338,3.086,2.691,4.709,4.022Z" transform="translate(1849.819 -1347.185)" fill="#292929"/>
        </g>
      </g>
      <g id="Group_770" data-name="Group 770" transform="translate(-2075.792 383.748)">
        <path id="Path_4365" data-name="Path 4365" d="M-2012.094,808.5l-2.059,25.062-14.557-16.395-47.081-38.56,40.149,12.649s19.766,9.6,20.674,10.87A51.972,51.972,0,0,1-2012.094,808.5Z" transform="translate(2075.792 -778.604)" fill="#b4962c"/>
        <path id="Path_4366" data-name="Path 4366" d="M-1990.759,797.727l-85.033-19.124,63.7,29.893Z" transform="translate(2075.792 -778.604)" fill="#f9d142"/>
        <path id="Path_4367" data-name="Path 4367" d="M-2044.8,827.055l26.21-13.077-57.206-35.374Z" transform="translate(2075.792 -778.604)" fill="#f9d142"/>
      </g>
    </g>
  </g>
</svg>
