<svg xmlns="http://www.w3.org/2000/svg" width="110.614" height="98.299" viewBox="0 0 110.614 98.299"><defs><style>.a{fill:#fff;}</style></defs><g transform="translate(0 -28.5)"><path class="a" d="M105.753,126.8H66.128a4.866,4.866,0,0,1-4.861-4.861V107.356H4.861A4.866,4.866,0,0,1,0,102.495V49.78a1.62,1.62,0,0,1,3.241,0V97.634H56.407a1.62,1.62,0,0,1,0,3.241H3.241v1.62a1.622,1.622,0,0,0,1.62,1.62H61.268V79.054H14.239a4.866,4.866,0,0,1-4.861-4.861V59.5a4.866,4.866,0,0,1,4.861-4.861H56.407a1.62,1.62,0,0,1,0,3.241H14.239a1.622,1.622,0,0,0-1.62,1.62V74.193a1.622,1.622,0,0,0,1.62,1.62H61.268V53.021a4.866,4.866,0,0,1,4.861-4.861H94.411V44.919H1.62A1.62,1.62,0,0,1,0,43.3V33.361A4.866,4.866,0,0,1,4.861,28.5h71.51a1.62,1.62,0,1,1,0,3.241H4.861a1.622,1.622,0,0,0-1.62,1.62v8.318h97.651V33.361a1.622,1.622,0,0,0-1.62-1.62H82.852a1.62,1.62,0,1,1,0-3.241H99.272a4.866,4.866,0,0,1,4.861,4.861v14.8h1.62a4.866,4.866,0,0,1,4.861,4.861v68.918A4.866,4.866,0,0,1,105.753,126.8Zm-41.245-6.481v1.62a1.622,1.622,0,0,0,1.62,1.62h39.624a1.622,1.622,0,0,0,1.62-1.62v-1.62Zm0-3.241h42.865v-59.2H64.508Zm0-62.436h42.865v-1.62a1.622,1.622,0,0,0-1.62-1.62H66.128a1.622,1.622,0,0,0-1.62,1.62ZM97.651,48.16h3.241V44.919H97.651Zm-11.711,59.2a18.192,18.192,0,1,1,9.707-33.58,1.62,1.62,0,0,1-1.731,2.739A14.931,14.931,0,1,0,99.278,82.4L85.8,95.876a1.621,1.621,0,0,1-2.291,0l-7.933-7.933a1.62,1.62,0,0,1,2.291-2.292l6.788,6.788L98.441,78.652l.029-.029,2.9-2.9a1.62,1.62,0,0,1,2.291,2.292l-1.993,1.993a18.2,18.2,0,0,1-15.724,27.345ZM50.515,92.319a1.62,1.62,0,0,1-1.146-2.766l.777-.777H31.093a1.62,1.62,0,1,1,0-3.241H50.146l-.777-.777a1.62,1.62,0,0,1,2.291-2.292L55.2,86.01a1.62,1.62,0,0,1,0,2.292l-3.543,3.543A1.615,1.615,0,0,1,50.515,92.319Zm1.551-19.3a1.62,1.62,0,0,1-1.62-1.62V69.654l-1.509.871a1.62,1.62,0,0,1-1.62-2.806l1.509-.871-1.509-.871a1.62,1.62,0,0,1,1.62-2.806l1.509.871V62.3a1.62,1.62,0,0,1,3.241,0v1.742L55.2,63.17a1.62,1.62,0,1,1,1.62,2.806l-1.509.871,1.509.871a1.62,1.62,0,1,1-1.62,2.806l-1.509-.871V71.4A1.62,1.62,0,0,1,52.066,73.017Zm-15.123,0a1.62,1.62,0,0,1-1.62-1.62V69.654l-1.509.871a1.62,1.62,0,0,1-1.62-2.806l1.509-.871-1.509-.871a1.62,1.62,0,0,1,1.62-2.806l1.509.871V62.3a1.62,1.62,0,0,1,3.241,0v1.742l1.509-.871a1.62,1.62,0,0,1,1.62,2.806l-1.509.871,1.509.871a1.62,1.62,0,0,1-1.62,2.806l-1.509-.871V71.4A1.62,1.62,0,0,1,36.943,73.017Zm-15.123,0A1.62,1.62,0,0,1,20.2,71.4V69.654l-1.509.871a1.62,1.62,0,0,1-1.62-2.806l1.509-.871-1.509-.871a1.62,1.62,0,1,1,1.62-2.806l1.509.871V62.3a1.62,1.62,0,0,1,3.241,0v1.742l1.509-.871a1.62,1.62,0,1,1,1.62,2.806l-1.509.871,1.509.871a1.62,1.62,0,1,1-1.62,2.806l-1.509-.871V71.4A1.62,1.62,0,0,1,21.82,73.017Zm74.1-34.579a1.728,1.728,0,1,1,1.728-1.728A1.73,1.73,0,0,1,95.923,38.438Zm-6.481,0A1.728,1.728,0,1,1,91.17,36.71,1.73,1.73,0,0,1,89.442,38.438Zm-6.481,0a1.728,1.728,0,1,1,1.728-1.728A1.73,1.73,0,0,1,82.96,38.438Z" transform="translate(0 0)"/></g></svg>