<svg xmlns="http://www.w3.org/2000/svg" width="119.237" height="97.738" viewBox="0 0 119.237 97.738">
  <g id="Group_597" data-name="Group 597" transform="translate(-6576 -1582)">
    <g id="paper-plane" transform="translate(6576 1582)">
      <g id="Group_584" data-name="Group 584" transform="translate(10.308 0)">
        <g id="Group_583" data-name="Group 583">
          <path id="Path_667" data-name="Path 667" d="M140.466.251a1.909,1.909,0,0,0-1.918.015L103.566,20.951a1.909,1.909,0,1,0,1.943,3.286L130.608,9.4,83.857,57.9,60.605,50.791,90.95,32.847a1.909,1.909,0,0,0-1.943-3.286L54.937,49.707a1.909,1.909,0,0,0,.413,3.469l27.769,8.5L95.37,83.97a.453.453,0,0,0,.04.06,1.9,1.9,0,0,0,2.968.386l14.087-13.767,26.5,8.106a1.909,1.909,0,0,0,2.467-1.825V1.909A1.909,1.909,0,0,0,140.466.251Zm-44.992,62.6a1.91,1.91,0,0,0-.34,1.087V75.612L86.769,60.385l37.018-38.41Zm3.478,15.668v-12l9.352,2.861Zm38.659-4.166L100.1,62.874l37.51-54.149Z" transform="translate(-53.999 0)" fill="#023047"/>
        </g>
      </g>
      <g id="Group_586" data-name="Group 586" transform="translate(10.308 65.791)">
        <g id="Group_585" data-name="Group 585">
          <path id="Path_668" data-name="Path 668" d="M75.078,345.207a1.909,1.909,0,0,0-2.7,0l-17.82,17.82a1.909,1.909,0,0,0,2.7,2.7l17.82-17.82A1.909,1.909,0,0,0,75.078,345.207Z" transform="translate(-53.999 -344.648)" fill="#023047"/>
        </g>
      </g>
      <g id="Group_588" data-name="Group 588" transform="translate(0 89.529)">
        <g id="Group_587" data-name="Group 587">
          <path id="Path_669" data-name="Path 669" d="M7.65,469.56a1.91,1.91,0,0,0-2.7,0L.559,473.95a1.909,1.909,0,0,0,2.7,2.7l4.391-4.391A1.909,1.909,0,0,0,7.65,469.56Z" transform="translate(0 -469.001)" fill="#023047"/>
        </g>
      </g>
      <g id="Group_590" data-name="Group 590" transform="translate(23.972 93.807)">
        <g id="Group_589" data-name="Group 589">
          <path id="Path_670" data-name="Path 670" d="M128.838,491.969a1.908,1.908,0,1,0,.56,1.35A1.923,1.923,0,0,0,128.838,491.969Z" transform="translate(-125.58 -491.41)" fill="#023047"/>
        </g>
      </g>
      <g id="Group_592" data-name="Group 592" transform="translate(28.736 79.604)">
        <g id="Group_591" data-name="Group 591">
          <path id="Path_671" data-name="Path 671" d="M163.232,417.565a1.909,1.909,0,0,0-2.7,0L151.093,427a1.909,1.909,0,1,0,2.7,2.7l9.439-9.439A1.909,1.909,0,0,0,163.232,417.565Z" transform="translate(-150.534 -417.006)" fill="#023047"/>
        </g>
      </g>
      <g id="Group_594" data-name="Group 594" transform="translate(61.287 78.879)">
        <g id="Group_593" data-name="Group 593">
          <path id="Path_672" data-name="Path 672" d="M333.776,413.77a1.909,1.909,0,0,0-2.7,0l-9.465,9.464a1.909,1.909,0,1,0,2.7,2.7l9.465-9.465A1.909,1.909,0,0,0,333.776,413.77Z" transform="translate(-321.053 -413.211)" fill="#023047"/>
        </g>
      </g>
      <g id="Group_596" data-name="Group 596" transform="translate(50.86 25.461)">
        <g id="Group_595" data-name="Group 595">
          <path id="Path_673" data-name="Path 673" d="M269.689,133.939a1.908,1.908,0,1,0,.559,1.352A1.923,1.923,0,0,0,269.689,133.939Z" transform="translate(-266.43 -133.38)" fill="#023047"/>
        </g>
      </g>
    </g>
    <circle id="Ellipse_14" data-name="Ellipse 14" cx="23" cy="23" r="23" transform="translate(6647 1628.998)" fill="#fff"/>
    <g id="discount" transform="translate(6645.304 1627.942)">
      <path id="Path_674" data-name="Path 674" d="M24.466,48.932A24.466,24.466,0,1,0,0,24.466,24.494,24.494,0,0,0,24.466,48.932Zm0-46.751A22.285,22.285,0,1,1,2.182,24.466,22.31,22.31,0,0,1,24.466,2.182Zm0,0" fill="#023047" stroke="#023047" stroke-width="2"/>
      <path id="Path_675" data-name="Path 675" d="M93.83,93.946a4.518,4.518,0,1,0-4.517-4.518,4.517,4.517,0,0,0,4.517,4.518Zm0-6.854a2.336,2.336,0,1,1-2.336,2.336,2.336,2.336,0,0,1,2.336-2.336Zm0,0" transform="translate(-75.395 -71.678)" fill="#023047" stroke="#023047" stroke-width="2"/>
      <path id="Path_676" data-name="Path 676" d="M164.953,177.385a4.518,4.518,0,1,0,4.517-4.518A4.517,4.517,0,0,0,164.953,177.385Zm6.854,0a2.336,2.336,0,1,1-2.336-2.336A2.336,2.336,0,0,1,171.807,177.385Zm0,0" transform="translate(-139.247 -145.928)" fill="#023047" stroke="#023047" stroke-width="2"/>
      <path id="Path_677" data-name="Path 677" d="M101.017,99.774a1.091,1.091,0,0,0,1.51-.318l15.42-23.645a1.091,1.091,0,1,0-1.827-1.192L100.7,98.264A1.091,1.091,0,0,0,101.017,99.774Zm0,0" transform="translate(-84.857 -62.572)" fill="#023047" stroke="#023047" stroke-width="2"/>
    </g>
  </g>
</svg>
