<svg xmlns="http://www.w3.org/2000/svg" width="35.478" height="40.547" viewBox="0 0 35.478 40.547"><defs><style>.a{fill:#e2e5e7;}.b{fill:#b0b7bd;}.c{fill:#cad1d8;}.d{fill:#84bd5a;}.e{fill:#fff;}</style></defs><g transform="translate(0)"><path class="a" d="M98.534,0A2.542,2.542,0,0,0,96,2.534V38.012a2.542,2.542,0,0,0,2.534,2.534h25.342a2.542,2.542,0,0,0,2.534-2.534V10.137L116.273,0Z" transform="translate(-90.932)"/><path class="b" d="M354.534,10.137h7.6L352,0V7.6A2.542,2.542,0,0,0,354.534,10.137Z" transform="translate(-326.658)"/><path class="c" d="M391.6,135.6,384,128h7.6Z" transform="translate(-356.124 -117.863)"/><path class="d" d="M62.41,253.938a1.271,1.271,0,0,1-1.267,1.267H33.267A1.271,1.271,0,0,1,32,253.938V241.267A1.271,1.271,0,0,1,33.267,240H61.143a1.271,1.271,0,0,1,1.267,1.267Z" transform="translate(-32 -220.994)"/><g transform="translate(5.799 23.077)"><path class="e" d="M108.323,297.51l1.763-2.209c.527-.689,1.551.191.973.85-.607.72-1.246,1.5-1.854,2.3l2.067,2.573a.665.665,0,1,1-1.1.739l-1.865-2.391-1.833,2.443c-.517.739-1.662-.091-1.085-.781l2.036-2.584c-.639-.8-1.257-1.58-1.874-2.3a.656.656,0,1,1,1.014-.829Z" transform="translate(-105.226 -294.755)"/><path class="e" d="M197.36,295.962a.632.632,0,0,1,.639-.618.618.618,0,0,1,.6.618v5.076h2.756a.669.669,0,1,1,0,1.327H198a.612.612,0,0,1-.639-.617v-5.785Z" transform="translate(-190.064 -295.032)"/><path class="e" d="M270.664,293.25c.233-1.967,3.2-2.32,4.6-1.246a.593.593,0,1,1-.649.992c-.75-.475-2.452-.7-2.665.354-.274,1.662,4.133.711,4.062,3.406-.071,2.573-3.8,2.633-5.2,1.479a.749.749,0,0,1-.142-.993.6.6,0,0,1,.9-.07c.83.566,2.969.992,3.12-.447C274.564,295.226,270.35,296.127,270.664,293.25Z" transform="translate(-257.454 -291.407)"/></g><path class="c" d="M120.075,417.267H96v1.267h24.075a1.271,1.271,0,0,0,1.267-1.267V416A1.271,1.271,0,0,1,120.075,417.267Z" transform="translate(-90.932 -383.056)"/></g></svg>